M48
; DRILL file {KiCad 8.0.4} date 2024-12-04T14:23:49+0100
; FORMAT={-:-/ absolute / inch / decimal}
; #@! TF.CreationDate,2024-12-04T14:23:49+01:00
; #@! TF.GenerationSoftware,Kicad,Pcbnew,8.0.4
; #@! TF.FileFunction,Plated,1,2,PTH
FMAT,2
INCH
; #@! TA.AperFunction,Plated,PTH,ComponentDrill
T1C0.0300
; #@! TA.AperFunction,Plated,PTH,ComponentDrill
T2C0.0315
; #@! TA.AperFunction,Plated,PTH,ComponentDrill
T3C0.0362
; #@! TA.AperFunction,Plated,PTH,ComponentDrill
T4C0.0374
; #@! TA.AperFunction,Plated,PTH,ComponentDrill
T5C0.0394
; #@! TA.AperFunction,Plated,PTH,ComponentDrill
T6C0.0709
; #@! TA.AperFunction,Plated,PTH,ComponentDrill
T7C0.0917
; #@! TA.AperFunction,Plated,PTH,ComponentDrill
T8C0.1063
%
G90
G05
T1
X3.11Y-2.52
X3.11Y-2.92
X3.18Y-1.6
X3.18Y-1.7
X3.18Y-1.8
X3.18Y-1.9
X3.18Y-2.0
X3.18Y-2.1
X3.18Y-2.2
X3.18Y-2.3
X3.21Y-2.52
X3.21Y-2.92
X3.31Y-2.52
X3.31Y-2.92
X3.41Y-2.52
X3.41Y-2.92
X3.51Y-2.52
X3.51Y-2.92
X3.61Y-2.52
X3.61Y-2.92
X5.3241Y-1.6
X5.3241Y-1.7
X5.3241Y-1.8
X5.3241Y-1.9
X5.3241Y-2.0
X5.3241Y-2.1
X5.3241Y-2.2
X5.3241Y-2.3
X5.4241Y-1.6
X5.4241Y-1.7
X5.4241Y-1.8
X5.4241Y-1.9
X5.4241Y-2.0
X5.4241Y-2.1
X5.4241Y-2.2
X5.4241Y-2.3
T2
X3.264Y-2.3951
X3.2641Y-1.495
X3.364Y-2.3951
X3.3641Y-1.495
X3.464Y-2.3951
X3.4641Y-1.495
X3.564Y-1.4951
X3.564Y-2.3951
X3.664Y-1.4951
X3.664Y-2.3951
X3.764Y-1.4951
X3.764Y-2.3951
X3.864Y-1.4951
X3.864Y-2.3951
X3.964Y-1.4951
X3.964Y-2.3951
X4.064Y-1.4951
X4.064Y-2.3951
X4.164Y-1.4951
X4.164Y-2.3951
X4.264Y-1.4951
X4.264Y-2.3951
X4.364Y-1.4951
X4.364Y-2.3951
X4.464Y-1.4951
X4.464Y-2.3951
X4.564Y-1.4951
X4.564Y-2.3951
X4.664Y-1.4951
X4.664Y-2.3951
X4.764Y-1.4951
X4.764Y-2.3951
X4.864Y-1.4951
X4.864Y-2.3951
X4.964Y-1.4951
X4.964Y-2.3951
X4.9752Y-2.6117
X4.9752Y-2.9117
X5.064Y-1.4951
X5.064Y-2.3951
X5.0752Y-2.6117
X5.0752Y-2.9117
X5.164Y-1.4951
X5.164Y-2.3951
X5.264Y-1.4951
X5.264Y-2.3951
X5.364Y-1.4951
X5.364Y-2.3951
T3
X1.9182Y-2.0233
X1.9182Y-2.1217
X1.9969Y-2.0233
X1.9969Y-2.1217
T4
X2.243Y-1.9291
X2.243Y-2.0275
X2.243Y-2.1259
X2.243Y-2.2244
X3.8731Y-2.835
X3.9716Y-2.835
X4.07Y-2.835
X4.38Y-2.83
X4.4784Y-2.83
X4.5769Y-2.83
X4.6753Y-2.83
X4.9997Y-1.315
X5.0981Y-1.315
X5.1966Y-1.315
X5.295Y-1.315
X5.3934Y-1.315
T5
X2.69Y-1.25
X2.79Y-1.25
X2.89Y-1.25
X3.8731Y-2.5743
X3.9716Y-2.5743
X4.2Y-1.315
X4.2984Y-1.315
X4.605Y-1.315
X4.7034Y-1.315
T6
X1.9519Y-2.4993
X1.9519Y-2.6646
X1.9519Y-2.83
X1.9569Y-1.3146
X1.9569Y-1.48
X1.9569Y-1.6454
X2.1685Y-2.4993
X2.1685Y-2.6646
X2.1685Y-2.83
X2.1735Y-1.3146
X2.1735Y-1.48
X2.1735Y-1.6454
T7
X1.8115Y-1.8355
X1.8115Y-2.3095
T8
X2.588Y-2.0881
X2.588Y-2.285
M30
