%TF.GenerationSoftware,KiCad,Pcbnew,8.0.4*%
%TF.CreationDate,2024-12-04T14:23:44+01:00*%
%TF.ProjectId,ActivePedal,41637469-7665-4506-9564-616c2e6b6963,rev?*%
%TF.SameCoordinates,Original*%
%TF.FileFunction,Copper,L2,Bot*%
%TF.FilePolarity,Positive*%
%FSLAX46Y46*%
G04 Gerber Fmt 4.6, Leading zero omitted, Abs format (unit mm)*
G04 Created by KiCad (PCBNEW 8.0.4) date 2024-12-04 14:23:44*
%MOMM*%
%LPD*%
G01*
G04 APERTURE LIST*
G04 Aperture macros list*
%AMRoundRect*
0 Rectangle with rounded corners*
0 $1 Rounding radius*
0 $2 $3 $4 $5 $6 $7 $8 $9 X,Y pos of 4 corners*
0 Add a 4 corners polygon primitive as box body*
4,1,4,$2,$3,$4,$5,$6,$7,$8,$9,$2,$3,0*
0 Add four circle primitives for the rounded corners*
1,1,$1+$1,$2,$3*
1,1,$1+$1,$4,$5*
1,1,$1+$1,$6,$7*
1,1,$1+$1,$8,$9*
0 Add four rect primitives between the rounded corners*
20,1,$1+$1,$2,$3,$4,$5,0*
20,1,$1+$1,$4,$5,$6,$7,0*
20,1,$1+$1,$6,$7,$8,$9,0*
20,1,$1+$1,$8,$9,$2,$3,0*%
G04 Aperture macros list end*
%TA.AperFunction,ComponentPad*%
%ADD10RoundRect,0.250000X-0.600000X-0.725000X0.600000X-0.725000X0.600000X0.725000X-0.600000X0.725000X0*%
%TD*%
%TA.AperFunction,ComponentPad*%
%ADD11O,1.700000X1.950000*%
%TD*%
%TA.AperFunction,ComponentPad*%
%ADD12RoundRect,0.250000X-0.600000X-0.750000X0.600000X-0.750000X0.600000X0.750000X-0.600000X0.750000X0*%
%TD*%
%TA.AperFunction,ComponentPad*%
%ADD13O,1.700000X2.000000*%
%TD*%
%TA.AperFunction,ComponentPad*%
%ADD14R,1.200000X2.000000*%
%TD*%
%TA.AperFunction,ComponentPad*%
%ADD15O,1.200000X2.000000*%
%TD*%
%TA.AperFunction,ComponentPad*%
%ADD16R,3.800000X3.800000*%
%TD*%
%TA.AperFunction,ComponentPad*%
%ADD17C,4.000000*%
%TD*%
%TA.AperFunction,ComponentPad*%
%ADD18RoundRect,0.250000X0.600000X0.725000X-0.600000X0.725000X-0.600000X-0.725000X0.600000X-0.725000X0*%
%TD*%
%TA.AperFunction,ComponentPad*%
%ADD19RoundRect,0.250001X1.599999X-1.099999X1.599999X1.099999X-1.599999X1.099999X-1.599999X-1.099999X0*%
%TD*%
%TA.AperFunction,ComponentPad*%
%ADD20O,3.700000X2.700000*%
%TD*%
%TA.AperFunction,ComponentPad*%
%ADD21R,1.524000X1.524000*%
%TD*%
%TA.AperFunction,ComponentPad*%
%ADD22C,1.524000*%
%TD*%
%TA.AperFunction,ComponentPad*%
%ADD23R,1.600000X1.600000*%
%TD*%
%TA.AperFunction,ComponentPad*%
%ADD24O,1.600000X1.600000*%
%TD*%
%TA.AperFunction,ComponentPad*%
%ADD25RoundRect,0.250000X0.600000X0.750000X-0.600000X0.750000X-0.600000X-0.750000X0.600000X-0.750000X0*%
%TD*%
%TA.AperFunction,ComponentPad*%
%ADD26RoundRect,0.250000X0.725000X-0.600000X0.725000X0.600000X-0.725000X0.600000X-0.725000X-0.600000X0*%
%TD*%
%TA.AperFunction,ComponentPad*%
%ADD27O,1.950000X1.700000*%
%TD*%
%TA.AperFunction,ComponentPad*%
%ADD28R,1.700000X1.700000*%
%TD*%
%TA.AperFunction,ComponentPad*%
%ADD29C,1.700000*%
%TD*%
%TA.AperFunction,ComponentPad*%
%ADD30C,3.500000*%
%TD*%
%TA.AperFunction,ComponentPad*%
%ADD31R,1.500000X1.500000*%
%TD*%
%TA.AperFunction,ComponentPad*%
%ADD32C,1.500000*%
%TD*%
%TA.AperFunction,Conductor*%
%ADD33C,0.200000*%
%TD*%
%TA.AperFunction,Conductor*%
%ADD34C,1.000000*%
%TD*%
%TA.AperFunction,Conductor*%
%ADD35C,0.500000*%
%TD*%
G04 APERTURE END LIST*
D10*
%TO.P,J2,1,Pin_1*%
%TO.N,Net-(J2-Pin_1)*%
X98378000Y-72009000D03*
D11*
%TO.P,J2,2,Pin_2*%
%TO.N,Net-(J2-Pin_2)*%
X100878000Y-72009000D03*
%TO.P,J2,3,Pin_3*%
%TO.N,GND*%
X103378000Y-72009000D03*
%TD*%
D12*
%TO.P,J9,1,Pin_1*%
%TO.N,/PAIR*%
X98378000Y-65388000D03*
D13*
%TO.P,J9,2,Pin_2*%
%TO.N,GND*%
X100878000Y-65388000D03*
%TD*%
D14*
%TO.P,U1,1,3V3*%
%TO.N,+3V3*%
X136245300Y-37976680D03*
D15*
%TO.P,U1,2,3V3*%
X133705300Y-37976680D03*
%TO.P,U1,3,CHIP_PU*%
%TO.N,Net-(U1-CHIP_PU)*%
X131165300Y-37976680D03*
%TO.P,U1,4,GPIO4/ADC1_CH3*%
%TO.N,unconnected-(U1-GPIO4{slash}ADC1_CH3-Pad4)*%
X128625300Y-37976680D03*
%TO.P,U1,5,GPIO5/ADC1_CH4*%
%TO.N,/EMERGENCY*%
X126085300Y-37976680D03*
%TO.P,U1,6,GPIO6/ADC1_CH5*%
%TO.N,/BUZZER*%
X123545300Y-37976680D03*
%TO.P,U1,7,GPIO7/ADC1_CH6*%
%TO.N,/ADC_CS*%
X121005300Y-37976680D03*
%TO.P,U1,8,GPIO15/ADC2_CH4/32K_P*%
%TO.N,/ADC_DRDY*%
X118465300Y-37976680D03*
%TO.P,U1,9,GPIO16/ADC2_CH5/32K_N*%
%TO.N,/ADC_SCK*%
X115925300Y-37976680D03*
%TO.P,U1,10,GPIO17/ADC2_CH6*%
%TO.N,/ADC_MOSI*%
X113385300Y-37976680D03*
%TO.P,U1,11,GPIO18/ADC2_CH7*%
%TO.N,/ADC_MISO*%
X110845300Y-37976680D03*
%TO.P,U1,12,GPIO8/ADC1_CH7*%
%TO.N,unconnected-(U1-GPIO8{slash}ADC1_CH7-Pad12)*%
X108305300Y-37976680D03*
%TO.P,U1,13,GPIO3/ADC1_CH2*%
%TO.N,unconnected-(U1-GPIO3{slash}ADC1_CH2-Pad13)*%
X105765300Y-37976680D03*
%TO.P,U1,14,GPIO46*%
%TO.N,unconnected-(U1-GPIO46-Pad14)*%
X103225300Y-37976680D03*
%TO.P,U1,15,GPIO9/ADC1_CH8*%
%TO.N,/SERVO_RX*%
X100685300Y-37976680D03*
%TO.P,U1,16,GPIO10/ADC1_CH9*%
%TO.N,/SERVO_TX*%
X98145300Y-37976680D03*
%TO.P,U1,17,GPIO11/ADC2_CH0*%
%TO.N,unconnected-(U1-GPIO11{slash}ADC2_CH0-Pad17)*%
X95605300Y-37976680D03*
%TO.P,U1,18,GPIO12/ADC2_CH1*%
%TO.N,unconnected-(U1-GPIO12{slash}ADC2_CH1-Pad18)*%
X93065300Y-37976680D03*
%TO.P,U1,19,GPIO13/ADC2_CH2*%
%TO.N,unconnected-(U1-GPIO13{slash}ADC2_CH2-Pad19)*%
X90525300Y-37976680D03*
%TO.P,U1,20,GPIO14/ADC2_CH3*%
%TO.N,unconnected-(U1-GPIO14{slash}ADC2_CH3-Pad20)*%
X87988020Y-37973000D03*
%TO.P,U1,21,5V*%
%TO.N,+5V*%
X85448020Y-37973000D03*
%TO.P,U1,22,GND*%
%TO.N,GND*%
X82908020Y-37973000D03*
%TO.P,U1,23,GND*%
X82905300Y-60836680D03*
%TO.P,U1,24,GND*%
X85445300Y-60836680D03*
%TO.P,U1,25,GPIO19/USB_D-*%
%TO.N,unconnected-(U1-GPIO19{slash}USB_D--Pad25)*%
X87985300Y-60836680D03*
%TO.P,U1,26,GPIO20/USB_D+*%
%TO.N,unconnected-(U1-GPIO20{slash}USB_D+-Pad26)*%
X90525300Y-60836680D03*
%TO.P,U1,27,GPIO21*%
%TO.N,unconnected-(U1-GPIO21-Pad27)*%
X93065300Y-60836680D03*
%TO.P,U1,28,GPIO47*%
%TO.N,unconnected-(U1-GPIO47-Pad28)*%
X95605300Y-60836680D03*
%TO.P,U1,29,GPIO48*%
%TO.N,unconnected-(U1-GPIO48-Pad29)*%
X98145300Y-60836680D03*
%TO.P,U1,30,GPIO45*%
%TO.N,unconnected-(U1-GPIO45-Pad30)*%
X100685300Y-60836680D03*
%TO.P,U1,31,GPIO0*%
%TO.N,unconnected-(U1-GPIO0-Pad31)*%
X103225300Y-60836680D03*
%TO.P,U1,32,GPIO35*%
%TO.N,/PAIR*%
X105765300Y-60836680D03*
%TO.P,U1,33,GPIO36*%
%TO.N,/SERVO_STEP*%
X108305300Y-60836680D03*
%TO.P,U1,34,GPIO37*%
%TO.N,/SERVO_DIR*%
X110845300Y-60836680D03*
%TO.P,U1,35,GPIO38*%
%TO.N,unconnected-(U1-GPIO38-Pad35)*%
X113385300Y-60836680D03*
%TO.P,U1,36,GPIO39/MTCK*%
%TO.N,unconnected-(U1-GPIO39{slash}MTCK-Pad36)*%
X115925300Y-60836680D03*
%TO.P,U1,37,GPIO40/MTDO*%
%TO.N,unconnected-(U1-GPIO40{slash}MTDO-Pad37)*%
X118465300Y-60836680D03*
%TO.P,U1,38,GPIO41/MTDI*%
%TO.N,unconnected-(U1-GPIO41{slash}MTDI-Pad38)*%
X121005300Y-60836680D03*
%TO.P,U1,39,GPIO42/MTMS*%
%TO.N,unconnected-(U1-GPIO42{slash}MTMS-Pad39)*%
X123545300Y-60836680D03*
%TO.P,U1,40,GPIO2/ADC1_CH1*%
%TO.N,/CFG1*%
X126085300Y-60836680D03*
%TO.P,U1,41,GPIO1/ADC1_CH0*%
%TO.N,/CFG2*%
X128625300Y-60836680D03*
%TO.P,U1,42,GPIO44/U0RXD*%
%TO.N,unconnected-(U1-GPIO44{slash}U0RXD-Pad42)*%
X131165300Y-60836680D03*
%TO.P,U1,43,GPIO43/U0TXD*%
%TO.N,unconnected-(U1-GPIO43{slash}U0TXD-Pad43)*%
X133705300Y-60836680D03*
%TO.P,U1,44,GND*%
%TO.N,GND*%
X136245300Y-60836680D03*
%TD*%
D16*
%TO.P,J10,1,Pin_1*%
%TO.N,GND*%
X65735000Y-58039000D03*
D17*
%TO.P,J10,2,Pin_2*%
%TO.N,Net-(D1-K)*%
X65735000Y-53039000D03*
%TD*%
D18*
%TO.P,J3,1,Pin_1*%
%TO.N,Net-(J3-Pin_1)*%
X136993000Y-33401000D03*
D11*
%TO.P,J3,2,Pin_2*%
%TO.N,Net-(J3-Pin_2)*%
X134493000Y-33401000D03*
%TO.P,J3,3,Pin_3*%
%TO.N,GND*%
X131993000Y-33401000D03*
%TO.P,J3,4,Pin_4*%
X129493000Y-33401000D03*
%TO.P,J3,5,Pin_5*%
%TO.N,+5V*%
X126993000Y-33401000D03*
%TD*%
D19*
%TO.P,J7,1,Pin_1*%
%TO.N,+36V*%
X49579000Y-71882000D03*
D20*
%TO.P,J7,2,Pin_2*%
X49579000Y-67682000D03*
%TO.P,J7,3,Pin_3*%
X49579000Y-63482000D03*
%TO.P,J7,4,Pin_4*%
%TO.N,GND*%
X55079000Y-71882000D03*
%TO.P,J7,5,Pin_5*%
X55079000Y-67682000D03*
%TO.P,J7,6,Pin_6*%
X55079000Y-63482000D03*
%TD*%
D21*
%TO.P,U3,1,LV1*%
%TO.N,/SERVO_TX*%
X91694000Y-64008000D03*
D22*
%TO.P,U3,2,LV2*%
%TO.N,/SERVO_RX*%
X89154000Y-64008000D03*
%TO.P,U3,3,LV*%
%TO.N,+3V3*%
X86614000Y-64008000D03*
%TO.P,U3,4,GND*%
%TO.N,GND*%
X84074000Y-64008000D03*
%TO.P,U3,5,LV3*%
%TO.N,unconnected-(U3-LV3-Pad5)*%
X81534000Y-64008000D03*
%TO.P,U3,6,LV4*%
%TO.N,unconnected-(U3-LV4-Pad6)*%
X78994000Y-64008000D03*
%TO.P,U3,7,HV4*%
%TO.N,unconnected-(U3-HV4-Pad7)*%
X78994000Y-74168000D03*
%TO.P,U3,8,HV3*%
%TO.N,unconnected-(U3-HV3-Pad8)*%
X81534000Y-74168000D03*
%TO.P,U3,9,GND*%
%TO.N,GND*%
X84074000Y-74168000D03*
%TO.P,U3,10,HV*%
%TO.N,+5V*%
X86614000Y-74168000D03*
%TO.P,U3,11,HV2*%
%TO.N,Net-(J2-Pin_2)*%
X89154000Y-74168000D03*
%TO.P,U3,12,HV1*%
%TO.N,Net-(J2-Pin_1)*%
X91694000Y-74168000D03*
%TD*%
D23*
%TO.P,SW1,1*%
%TO.N,/CFG2*%
X128910000Y-66336500D03*
D24*
%TO.P,SW1,2*%
%TO.N,/CFG1*%
X126370000Y-66336500D03*
%TO.P,SW1,3*%
%TO.N,GND*%
X126370000Y-73956500D03*
%TO.P,SW1,4*%
X128910000Y-73956500D03*
%TD*%
D10*
%TO.P,J1,1,Pin_1*%
%TO.N,+3V3*%
X111252000Y-71882000D03*
D11*
%TO.P,J1,2,Pin_2*%
%TO.N,/SERVO_STEP*%
X113752000Y-71882000D03*
%TO.P,J1,3,Pin_3*%
%TO.N,+3V3*%
X116252000Y-71882000D03*
%TO.P,J1,4,Pin_4*%
%TO.N,/SERVO_DIR*%
X118752000Y-71882000D03*
%TD*%
D25*
%TO.P,J4,1,Pin_1*%
%TO.N,/EMERGENCY*%
X119467000Y-33401000D03*
D13*
%TO.P,J4,2,Pin_2*%
%TO.N,GND*%
X116967000Y-33401000D03*
%TD*%
D26*
%TO.P,J5,1,Pin_1*%
%TO.N,VBUS*%
X56972000Y-56499000D03*
D27*
%TO.P,J5,2,Pin_2*%
%TO.N,Net-(J5-Pin_2)*%
X56972000Y-53999000D03*
%TO.P,J5,3,Pin_3*%
%TO.N,Net-(J5-Pin_3)*%
X56972000Y-51499000D03*
%TO.P,J5,4,Pin_4*%
%TO.N,GND*%
X56972000Y-48999000D03*
%TD*%
D19*
%TO.P,J8,1,Pin_1*%
%TO.N,+36V*%
X49706000Y-41792000D03*
D20*
%TO.P,J8,2,Pin_2*%
X49706000Y-37592000D03*
%TO.P,J8,3,Pin_3*%
X49706000Y-33392000D03*
%TO.P,J8,4,Pin_4*%
%TO.N,GND*%
X55206000Y-41792000D03*
%TO.P,J8,5,Pin_5*%
X55206000Y-37592000D03*
%TO.P,J8,6,Pin_6*%
X55206000Y-33392000D03*
%TD*%
D28*
%TO.P,J6,1,VBUS*%
%TO.N,VBUS*%
X50722500Y-53892000D03*
D29*
%TO.P,J6,2,D-*%
%TO.N,Net-(J5-Pin_3)*%
X50722500Y-51392000D03*
%TO.P,J6,3,D+*%
%TO.N,Net-(J5-Pin_2)*%
X48722500Y-51392000D03*
%TO.P,J6,4,GND*%
%TO.N,GND*%
X48722500Y-53892000D03*
D30*
%TO.P,J6,5,Shield*%
X46012500Y-58662000D03*
X46012500Y-46622000D03*
%TD*%
D25*
%TO.P,J11,1,Pin_1*%
%TO.N,/BUZZER*%
X109180000Y-33401000D03*
D13*
%TO.P,J11,2,Pin_2*%
%TO.N,GND*%
X106680000Y-33401000D03*
%TD*%
D31*
%TO.P,PS1,1,+VIN*%
%TO.N,+36V*%
X68326000Y-31750000D03*
D32*
%TO.P,PS1,2,GND*%
%TO.N,GND*%
X70866000Y-31750000D03*
%TO.P,PS1,3,+VOUT*%
%TO.N,+5V*%
X73406000Y-31750000D03*
%TD*%
D21*
%TO.P,U2,1,VDD*%
%TO.N,+5V*%
X80772000Y-58420000D03*
D22*
%TO.P,U2,2,GND*%
%TO.N,GND*%
X80772000Y-55880000D03*
%TO.P,U2,3,SCLK*%
%TO.N,/ADC_SCK*%
X80772000Y-53340000D03*
%TO.P,U2,4,DIN*%
%TO.N,/ADC_MOSI*%
X80772000Y-50800000D03*
%TO.P,U2,5,DOUT*%
%TO.N,/ADC_MISO*%
X80772000Y-48260000D03*
%TO.P,U2,6,~{DRDY}*%
%TO.N,/ADC_DRDY*%
X80772000Y-45720000D03*
%TO.P,U2,7,~{CS}*%
%TO.N,/ADC_CS*%
X80772000Y-43180000D03*
%TO.P,U2,8,~{PDWN}*%
%TO.N,+3V3*%
X80772000Y-40640000D03*
%TO.P,U2,9,GND*%
%TO.N,GND*%
X135232000Y-58420000D03*
%TO.P,U2,10,GND*%
X135232000Y-55880000D03*
%TO.P,U2,11,GND*%
X135232000Y-53340000D03*
%TO.P,U2,12,GND*%
X135232000Y-50800000D03*
%TO.P,U2,13,GND*%
X135232000Y-48260000D03*
%TO.P,U2,14,GND*%
X135232000Y-45720000D03*
%TO.P,U2,15,GND*%
X135232000Y-43180000D03*
%TO.P,U2,16,GND*%
X135232000Y-40640000D03*
%TO.P,U2,17,Ain0/D0*%
%TO.N,Net-(J3-Pin_1)*%
X137772000Y-58420000D03*
%TO.P,U2,18,Ain1/D1*%
%TO.N,Net-(J3-Pin_2)*%
X137772000Y-55880000D03*
%TO.P,U2,19,Ain2/D2*%
%TO.N,unconnected-(U2-Ain2{slash}D2-Pad19)*%
X137772000Y-53340000D03*
%TO.P,U2,20,Ain3/D3*%
%TO.N,unconnected-(U2-Ain3{slash}D3-Pad20)*%
X137772000Y-50800000D03*
%TO.P,U2,21,Ain4/D4*%
%TO.N,unconnected-(U2-Ain4{slash}D4-Pad21)*%
X137772000Y-48260000D03*
%TO.P,U2,22,Ain5/D5*%
%TO.N,unconnected-(U2-Ain5{slash}D5-Pad22)*%
X137772000Y-45720000D03*
%TO.P,U2,23,Ain6/D6*%
%TO.N,unconnected-(U2-Ain6{slash}D6-Pad23)*%
X137772000Y-43180000D03*
%TO.P,U2,24,Ain7/D7*%
%TO.N,unconnected-(U2-Ain7{slash}D7-Pad24)*%
X137772000Y-40640000D03*
%TD*%
D33*
%TO.N,/EMERGENCY*%
X121509620Y-33401000D02*
X119467000Y-33401000D01*
X126085300Y-37976680D02*
X121509620Y-33401000D01*
D34*
%TO.N,GND*%
X55206000Y-37592000D02*
X58013600Y-37592000D01*
X57776000Y-67682000D02*
X57861200Y-67767200D01*
X55206000Y-33392000D02*
X55206000Y-41792000D01*
X55079000Y-63482000D02*
X58057000Y-63482000D01*
X55079000Y-71882000D02*
X58039000Y-71882000D01*
X55079000Y-71882000D02*
X55079000Y-63482000D01*
X55079000Y-71882000D02*
X55079000Y-74052800D01*
X55079000Y-61100600D02*
X55245000Y-60934600D01*
X69138800Y-58039000D02*
X69164200Y-58064400D01*
X55206000Y-31052400D02*
X55206000Y-33392000D01*
X55206000Y-44235000D02*
X55194200Y-44246800D01*
X55079000Y-63482000D02*
X55079000Y-61100600D01*
X55079000Y-67682000D02*
X57776000Y-67682000D01*
X65735000Y-58039000D02*
X62357000Y-58039000D01*
X55206000Y-33392000D02*
X58309400Y-33392000D01*
X58309400Y-33392000D02*
X58394600Y-33477200D01*
X55206000Y-31052400D02*
X55245000Y-31013400D01*
X55079000Y-74052800D02*
X55168800Y-74142600D01*
X65735000Y-61163000D02*
X65760600Y-61188600D01*
X55206000Y-41792000D02*
X55206000Y-44235000D01*
X57979200Y-41792000D02*
X57988200Y-41783000D01*
X55206000Y-41792000D02*
X57979200Y-41792000D01*
X65735000Y-58039000D02*
X69138800Y-58039000D01*
X65735000Y-58039000D02*
X65735000Y-61163000D01*
D33*
%TO.N,/PAIR*%
X101504300Y-62261700D02*
X98378000Y-65388000D01*
X105765300Y-60836680D02*
X104340280Y-62261700D01*
X104340280Y-62261700D02*
X101504300Y-62261700D01*
%TO.N,/BUZZER*%
X111212000Y-35433000D02*
X109180000Y-33401000D01*
X121001620Y-35433000D02*
X111212000Y-35433000D01*
X123545300Y-37976680D02*
X121001620Y-35433000D01*
%TO.N,/SERVO_TX*%
X98145300Y-38100000D02*
X98145300Y-39401700D01*
X94335300Y-43211700D02*
X94335300Y-61827000D01*
X92154300Y-64008000D02*
X91694000Y-64008000D01*
X94335300Y-61827000D02*
X92154300Y-64008000D01*
X98145300Y-39401700D02*
X94335300Y-43211700D01*
D35*
%TO.N,+5V*%
X87826000Y-62880904D02*
X89379100Y-61327804D01*
X89379100Y-61327804D02*
X89379100Y-43329100D01*
X87826000Y-72956000D02*
X87826000Y-62880904D01*
X86614000Y-74168000D02*
X87826000Y-72956000D01*
X89379100Y-43329100D02*
X85448000Y-39398000D01*
X85448000Y-39398000D02*
X85448000Y-38096300D01*
D33*
%TO.N,/SERVO_RX*%
X96875300Y-62509700D02*
X96875300Y-43211700D01*
X96875300Y-43211700D02*
X100685300Y-39401700D01*
X94315000Y-65070000D02*
X90216000Y-65070000D01*
X100685300Y-39401700D02*
X100685300Y-38100000D01*
X90216000Y-65070000D02*
X89154000Y-64008000D01*
X94315000Y-65070000D02*
X96875300Y-62509700D01*
D35*
%TO.N,+3V3*%
X133705300Y-38100000D02*
X133705300Y-39401700D01*
X133705300Y-39401700D02*
X117388000Y-55719000D01*
X86715300Y-46687300D02*
X86715300Y-62331300D01*
X117388000Y-55719000D02*
X117388000Y-70746000D01*
X117388000Y-70746000D02*
X116252000Y-71882000D01*
X80795000Y-40767000D02*
X86715300Y-46687300D01*
X86715300Y-62331300D02*
X86614000Y-62432600D01*
X86614000Y-62432600D02*
X86614000Y-64008000D01*
D33*
%TO.N,/ADC_MISO*%
X110845300Y-38100000D02*
X109067300Y-36322000D01*
X109067300Y-36322000D02*
X81661000Y-36322000D01*
X79121000Y-46713000D02*
X80795000Y-48387000D01*
X79121000Y-38862000D02*
X79121000Y-46713000D01*
X81661000Y-36322000D02*
X79121000Y-38862000D01*
%TO.N,/SERVO_STEP*%
X108305300Y-62261700D02*
X113752000Y-67708400D01*
X108305300Y-60960000D02*
X108305300Y-62261700D01*
X113752000Y-67708400D02*
X113752000Y-71882000D01*
%TO.N,Net-(J3-Pin_2)*%
X136525000Y-54737000D02*
X136525000Y-40386000D01*
X136525000Y-40386000D02*
X134970200Y-38831200D01*
X134970200Y-38831200D02*
X134970200Y-35154900D01*
X134493000Y-33401000D02*
X134493000Y-34677700D01*
X134970200Y-35154900D02*
X134493000Y-34677700D01*
X137795000Y-56007000D02*
X136525000Y-54737000D01*
%TO.N,Net-(J3-Pin_1)*%
X137795000Y-58547000D02*
X138858700Y-57483300D01*
X138858700Y-35266700D02*
X136993000Y-33401000D01*
X138858700Y-57483300D02*
X138858700Y-35266700D01*
%TD*%
%TA.AperFunction,Conductor*%
%TO.N,GND*%
G36*
X139202539Y-30170185D02*
G01*
X139248294Y-30222989D01*
X139259500Y-30274500D01*
X139259500Y-34518903D01*
X139239815Y-34585942D01*
X139187011Y-34631697D01*
X139117853Y-34641641D01*
X139054297Y-34612616D01*
X139047819Y-34606584D01*
X138379818Y-33938583D01*
X138346333Y-33877260D01*
X138343499Y-33850902D01*
X138343499Y-32625998D01*
X138343498Y-32625981D01*
X138332999Y-32523203D01*
X138332998Y-32523200D01*
X138322659Y-32492000D01*
X138277814Y-32356666D01*
X138185712Y-32207344D01*
X138061656Y-32083288D01*
X137926467Y-31999903D01*
X137912336Y-31991187D01*
X137912331Y-31991185D01*
X137885623Y-31982335D01*
X137745797Y-31936001D01*
X137745795Y-31936000D01*
X137643010Y-31925500D01*
X136342998Y-31925500D01*
X136342981Y-31925501D01*
X136240203Y-31936000D01*
X136240200Y-31936001D01*
X136073668Y-31991185D01*
X136073663Y-31991187D01*
X135924342Y-32083289D01*
X135800289Y-32207342D01*
X135704821Y-32362121D01*
X135652873Y-32408845D01*
X135583910Y-32420068D01*
X135519828Y-32392224D01*
X135511601Y-32384705D01*
X135372786Y-32245890D01*
X135200820Y-32120951D01*
X135011414Y-32024444D01*
X135011413Y-32024443D01*
X135011412Y-32024443D01*
X134809243Y-31958754D01*
X134809241Y-31958753D01*
X134809240Y-31958753D01*
X134647957Y-31933208D01*
X134599287Y-31925500D01*
X134386713Y-31925500D01*
X134338042Y-31933208D01*
X134176760Y-31958753D01*
X133974585Y-32024444D01*
X133785179Y-32120951D01*
X133613213Y-32245890D01*
X133462894Y-32396209D01*
X133462890Y-32396214D01*
X133343008Y-32561218D01*
X133287678Y-32603884D01*
X133218065Y-32609863D01*
X133156270Y-32577257D01*
X133142372Y-32561218D01*
X133022727Y-32396540D01*
X133022723Y-32396535D01*
X132872464Y-32246276D01*
X132872459Y-32246272D01*
X132700557Y-32121379D01*
X132511215Y-32024903D01*
X132309124Y-31959241D01*
X132243000Y-31948768D01*
X132243000Y-32996854D01*
X132176343Y-32958370D01*
X132055535Y-32926000D01*
X131930465Y-32926000D01*
X131809657Y-32958370D01*
X131743000Y-32996854D01*
X131743000Y-31948768D01*
X131742999Y-31948768D01*
X131676875Y-31959241D01*
X131474784Y-32024903D01*
X131285442Y-32121379D01*
X131113540Y-32246272D01*
X131113535Y-32246276D01*
X130963276Y-32396535D01*
X130963272Y-32396540D01*
X130843318Y-32561644D01*
X130787988Y-32604310D01*
X130718375Y-32610289D01*
X130656580Y-32577684D01*
X130642682Y-32561644D01*
X130522727Y-32396540D01*
X130522723Y-32396535D01*
X130372464Y-32246276D01*
X130372459Y-32246272D01*
X130200557Y-32121379D01*
X130011215Y-32024903D01*
X129809124Y-31959241D01*
X129743000Y-31948768D01*
X129743000Y-32996854D01*
X129676343Y-32958370D01*
X129555535Y-32926000D01*
X129430465Y-32926000D01*
X129309657Y-32958370D01*
X129243000Y-32996854D01*
X129243000Y-31948768D01*
X129242999Y-31948768D01*
X129176875Y-31959241D01*
X128974784Y-32024903D01*
X128785442Y-32121379D01*
X128613540Y-32246272D01*
X128613535Y-32246276D01*
X128463276Y-32396535D01*
X128463272Y-32396540D01*
X128343627Y-32561218D01*
X128288297Y-32603884D01*
X128218684Y-32609863D01*
X128156889Y-32577257D01*
X128142991Y-32561218D01*
X128023109Y-32396214D01*
X128023105Y-32396209D01*
X127872786Y-32245890D01*
X127700820Y-32120951D01*
X127511414Y-32024444D01*
X127511413Y-32024443D01*
X127511412Y-32024443D01*
X127309243Y-31958754D01*
X127309241Y-31958753D01*
X127309240Y-31958753D01*
X127147957Y-31933208D01*
X127099287Y-31925500D01*
X126886713Y-31925500D01*
X126838042Y-31933208D01*
X126676760Y-31958753D01*
X126474585Y-32024444D01*
X126285179Y-32120951D01*
X126113213Y-32245890D01*
X125962890Y-32396213D01*
X125837951Y-32568179D01*
X125741444Y-32757585D01*
X125675753Y-32959760D01*
X125654493Y-33093993D01*
X125642500Y-33169713D01*
X125642500Y-33632287D01*
X125645464Y-33651000D01*
X125667962Y-33793051D01*
X125675754Y-33842243D01*
X125715873Y-33965717D01*
X125741444Y-34044414D01*
X125837951Y-34233820D01*
X125962890Y-34405786D01*
X126113213Y-34556109D01*
X126285179Y-34681048D01*
X126285181Y-34681049D01*
X126285184Y-34681051D01*
X126474588Y-34777557D01*
X126676757Y-34843246D01*
X126886713Y-34876500D01*
X126886714Y-34876500D01*
X127099286Y-34876500D01*
X127099287Y-34876500D01*
X127309243Y-34843246D01*
X127511412Y-34777557D01*
X127700816Y-34681051D01*
X127755060Y-34641641D01*
X127872786Y-34556109D01*
X127872788Y-34556106D01*
X127872792Y-34556104D01*
X128023104Y-34405792D01*
X128142991Y-34240779D01*
X128198320Y-34198115D01*
X128267933Y-34192136D01*
X128329729Y-34224741D01*
X128343627Y-34240781D01*
X128463272Y-34405459D01*
X128463276Y-34405464D01*
X128613535Y-34555723D01*
X128613540Y-34555727D01*
X128785442Y-34680620D01*
X128974782Y-34777095D01*
X129176871Y-34842757D01*
X129243000Y-34853231D01*
X129243000Y-33805145D01*
X129309657Y-33843630D01*
X129430465Y-33876000D01*
X129555535Y-33876000D01*
X129676343Y-33843630D01*
X129743000Y-33805145D01*
X129743000Y-34853230D01*
X129809126Y-34842757D01*
X129809129Y-34842757D01*
X130011217Y-34777095D01*
X130200557Y-34680620D01*
X130372459Y-34555727D01*
X130372464Y-34555723D01*
X130522727Y-34405460D01*
X130642682Y-34240355D01*
X130698011Y-34197689D01*
X130767625Y-34191710D01*
X130829420Y-34224315D01*
X130843318Y-34240355D01*
X130963272Y-34405460D01*
X131113535Y-34555723D01*
X131113540Y-34555727D01*
X131285442Y-34680620D01*
X131474782Y-34777095D01*
X131676871Y-34842757D01*
X131743000Y-34853231D01*
X131743000Y-33805145D01*
X131809657Y-33843630D01*
X131930465Y-33876000D01*
X132055535Y-33876000D01*
X132176343Y-33843630D01*
X132243000Y-33805145D01*
X132243000Y-34853230D01*
X132309126Y-34842757D01*
X132309129Y-34842757D01*
X132511217Y-34777095D01*
X132700557Y-34680620D01*
X132872459Y-34555727D01*
X132872464Y-34555723D01*
X133022721Y-34405466D01*
X133142371Y-34240781D01*
X133197701Y-34198115D01*
X133267314Y-34192136D01*
X133329110Y-34224741D01*
X133343008Y-34240781D01*
X133462890Y-34405785D01*
X133462894Y-34405790D01*
X133462896Y-34405792D01*
X133613208Y-34556104D01*
X133785184Y-34681051D01*
X133833404Y-34705620D01*
X133836782Y-34707341D01*
X133887579Y-34755315D01*
X133900262Y-34785731D01*
X133904755Y-34802496D01*
X133933424Y-34909489D01*
X133933425Y-34909490D01*
X133958246Y-34952480D01*
X133958248Y-34952482D01*
X134012479Y-35046414D01*
X134012481Y-35046417D01*
X134124285Y-35158221D01*
X134333381Y-35367316D01*
X134366866Y-35428639D01*
X134369700Y-35454997D01*
X134369700Y-36477739D01*
X134350015Y-36544778D01*
X134297211Y-36590533D01*
X134228053Y-36600477D01*
X134189405Y-36588224D01*
X134127747Y-36556808D01*
X134127746Y-36556807D01*
X134127745Y-36556807D01*
X133963001Y-36503278D01*
X133962999Y-36503277D01*
X133962998Y-36503277D01*
X133831571Y-36482461D01*
X133791911Y-36476180D01*
X133618689Y-36476180D01*
X133579028Y-36482461D01*
X133447602Y-36503277D01*
X133282852Y-36556808D01*
X133128511Y-36635448D01*
X133050675Y-36692000D01*
X132988372Y-36737266D01*
X132988370Y-36737268D01*
X132988369Y-36737268D01*
X132865888Y-36859749D01*
X132865888Y-36859750D01*
X132865886Y-36859752D01*
X132859025Y-36869196D01*
X132764068Y-36999891D01*
X132685428Y-37154232D01*
X132631897Y-37318982D01*
X132604800Y-37490069D01*
X132604800Y-38463290D01*
X132631314Y-38630697D01*
X132631898Y-38634381D01*
X132684231Y-38795445D01*
X132685428Y-38799127D01*
X132764068Y-38953468D01*
X132839883Y-39057818D01*
X132863363Y-39123625D01*
X132847538Y-39191679D01*
X132827246Y-39218385D01*
X116805052Y-55240578D01*
X116805046Y-55240585D01*
X116761146Y-55306287D01*
X116761147Y-55306288D01*
X116722913Y-55363508D01*
X116666343Y-55500082D01*
X116666340Y-55500092D01*
X116637500Y-55645079D01*
X116637500Y-59362094D01*
X116617815Y-59429133D01*
X116565011Y-59474888D01*
X116495853Y-59484832D01*
X116457206Y-59472579D01*
X116347750Y-59416809D01*
X116347747Y-59416808D01*
X116347745Y-59416807D01*
X116183001Y-59363278D01*
X116182999Y-59363277D01*
X116182998Y-59363277D01*
X116038157Y-59340337D01*
X116011911Y-59336180D01*
X115838689Y-59336180D01*
X115812443Y-59340337D01*
X115667602Y-59363277D01*
X115667599Y-59363278D01*
X115515357Y-59412745D01*
X115502852Y-59416808D01*
X115348511Y-59495448D01*
X115287815Y-59539547D01*
X115208372Y-59597266D01*
X115208370Y-59597268D01*
X115208369Y-59597268D01*
X115085888Y-59719749D01*
X115085888Y-59719750D01*
X115085886Y-59719752D01*
X115052060Y-59766310D01*
X114984068Y-59859891D01*
X114905428Y-60014232D01*
X114851897Y-60178982D01*
X114824800Y-60350069D01*
X114824800Y-61323290D01*
X114851897Y-61494377D01*
X114851897Y-61494379D01*
X114851898Y-61494381D01*
X114905427Y-61659125D01*
X114984068Y-61813468D01*
X115085886Y-61953608D01*
X115208372Y-62076094D01*
X115348512Y-62177912D01*
X115502855Y-62256553D01*
X115667599Y-62310082D01*
X115838689Y-62337180D01*
X115838690Y-62337180D01*
X116011910Y-62337180D01*
X116011911Y-62337180D01*
X116183001Y-62310082D01*
X116347745Y-62256553D01*
X116457207Y-62200779D01*
X116525874Y-62187884D01*
X116590614Y-62214160D01*
X116630872Y-62271266D01*
X116637500Y-62311265D01*
X116637500Y-70305538D01*
X116617815Y-70372577D01*
X116565011Y-70418332D01*
X116495853Y-70428276D01*
X116494102Y-70428011D01*
X116424581Y-70417000D01*
X116358287Y-70406500D01*
X116145713Y-70406500D01*
X116097042Y-70414208D01*
X115935760Y-70439753D01*
X115733585Y-70505444D01*
X115544179Y-70601951D01*
X115372213Y-70726890D01*
X115221894Y-70877209D01*
X115221890Y-70877214D01*
X115102318Y-71041793D01*
X115046989Y-71084459D01*
X114977375Y-71090438D01*
X114915580Y-71057833D01*
X114901682Y-71041793D01*
X114782109Y-70877214D01*
X114782105Y-70877209D01*
X114631786Y-70726890D01*
X114459815Y-70601948D01*
X114459814Y-70601947D01*
X114420205Y-70581765D01*
X114369409Y-70533791D01*
X114352500Y-70471281D01*
X114352500Y-67797459D01*
X114352501Y-67797446D01*
X114352501Y-67629345D01*
X114352501Y-67629343D01*
X114311577Y-67476615D01*
X114278335Y-67419038D01*
X114232520Y-67339684D01*
X114120716Y-67227880D01*
X114120715Y-67227879D01*
X114116385Y-67223549D01*
X114116374Y-67223539D01*
X109083259Y-62190424D01*
X109049774Y-62129101D01*
X109054758Y-62059409D01*
X109083255Y-62015066D01*
X109144714Y-61953608D01*
X109246532Y-61813468D01*
X109325173Y-61659125D01*
X109378702Y-61494381D01*
X109405800Y-61323291D01*
X109405800Y-60350069D01*
X109744800Y-60350069D01*
X109744800Y-61323290D01*
X109771897Y-61494377D01*
X109771897Y-61494379D01*
X109771898Y-61494381D01*
X109825427Y-61659125D01*
X109904068Y-61813468D01*
X110005886Y-61953608D01*
X110128372Y-62076094D01*
X110268512Y-62177912D01*
X110422855Y-62256553D01*
X110587599Y-62310082D01*
X110758689Y-62337180D01*
X110758690Y-62337180D01*
X110931910Y-62337180D01*
X110931911Y-62337180D01*
X111103001Y-62310082D01*
X111267745Y-62256553D01*
X111422088Y-62177912D01*
X111562228Y-62076094D01*
X111684714Y-61953608D01*
X111786532Y-61813468D01*
X111865173Y-61659125D01*
X111918702Y-61494381D01*
X111945800Y-61323291D01*
X111945800Y-60350069D01*
X112284800Y-60350069D01*
X112284800Y-61323290D01*
X112311897Y-61494377D01*
X112311897Y-61494379D01*
X112311898Y-61494381D01*
X112365427Y-61659125D01*
X112444068Y-61813468D01*
X112545886Y-61953608D01*
X112668372Y-62076094D01*
X112808512Y-62177912D01*
X112962855Y-62256553D01*
X113127599Y-62310082D01*
X113298689Y-62337180D01*
X113298690Y-62337180D01*
X113471910Y-62337180D01*
X113471911Y-62337180D01*
X113643001Y-62310082D01*
X113807745Y-62256553D01*
X113962088Y-62177912D01*
X114102228Y-62076094D01*
X114224714Y-61953608D01*
X114326532Y-61813468D01*
X114405173Y-61659125D01*
X114458702Y-61494381D01*
X114485800Y-61323291D01*
X114485800Y-60350069D01*
X114458702Y-60178979D01*
X114405173Y-60014235D01*
X114326532Y-59859892D01*
X114224714Y-59719752D01*
X114102228Y-59597266D01*
X113962088Y-59495448D01*
X113898552Y-59463075D01*
X113807747Y-59416808D01*
X113807746Y-59416807D01*
X113807745Y-59416807D01*
X113643001Y-59363278D01*
X113642999Y-59363277D01*
X113642998Y-59363277D01*
X113498157Y-59340337D01*
X113471911Y-59336180D01*
X113298689Y-59336180D01*
X113272443Y-59340337D01*
X113127602Y-59363277D01*
X113127599Y-59363278D01*
X112975357Y-59412745D01*
X112962852Y-59416808D01*
X112808511Y-59495448D01*
X112747815Y-59539547D01*
X112668372Y-59597266D01*
X112668370Y-59597268D01*
X112668369Y-59597268D01*
X112545888Y-59719749D01*
X112545888Y-59719750D01*
X112545886Y-59719752D01*
X112512060Y-59766310D01*
X112444068Y-59859891D01*
X112365428Y-60014232D01*
X112311897Y-60178982D01*
X112284800Y-60350069D01*
X111945800Y-60350069D01*
X111918702Y-60178979D01*
X111865173Y-60014235D01*
X111786532Y-59859892D01*
X111684714Y-59719752D01*
X111562228Y-59597266D01*
X111422088Y-59495448D01*
X111358552Y-59463075D01*
X111267747Y-59416808D01*
X111267746Y-59416807D01*
X111267745Y-59416807D01*
X111103001Y-59363278D01*
X111102999Y-59363277D01*
X111102998Y-59363277D01*
X110958157Y-59340337D01*
X110931911Y-59336180D01*
X110758689Y-59336180D01*
X110732443Y-59340337D01*
X110587602Y-59363277D01*
X110587599Y-59363278D01*
X110435357Y-59412745D01*
X110422852Y-59416808D01*
X110268511Y-59495448D01*
X110207815Y-59539547D01*
X110128372Y-59597266D01*
X110128370Y-59597268D01*
X110128369Y-59597268D01*
X110005888Y-59719749D01*
X110005888Y-59719750D01*
X110005886Y-59719752D01*
X109972060Y-59766310D01*
X109904068Y-59859891D01*
X109825428Y-60014232D01*
X109771897Y-60178982D01*
X109744800Y-60350069D01*
X109405800Y-60350069D01*
X109378702Y-60178979D01*
X109325173Y-60014235D01*
X109246532Y-59859892D01*
X109144714Y-59719752D01*
X109022228Y-59597266D01*
X108882088Y-59495448D01*
X108818552Y-59463075D01*
X108727747Y-59416808D01*
X108727746Y-59416807D01*
X108727745Y-59416807D01*
X108563001Y-59363278D01*
X108562999Y-59363277D01*
X108562998Y-59363277D01*
X108418157Y-59340337D01*
X108391911Y-59336180D01*
X108218689Y-59336180D01*
X108192443Y-59340337D01*
X108047602Y-59363277D01*
X108047599Y-59363278D01*
X107895357Y-59412745D01*
X107882852Y-59416808D01*
X107728511Y-59495448D01*
X107667815Y-59539547D01*
X107588372Y-59597266D01*
X107588370Y-59597268D01*
X107588369Y-59597268D01*
X107465888Y-59719749D01*
X107465888Y-59719750D01*
X107465886Y-59719752D01*
X107432060Y-59766310D01*
X107364068Y-59859891D01*
X107285428Y-60014232D01*
X107231897Y-60178982D01*
X107204800Y-60350069D01*
X107204800Y-61323290D01*
X107231897Y-61494377D01*
X107231897Y-61494379D01*
X107231898Y-61494381D01*
X107285427Y-61659125D01*
X107364068Y-61813468D01*
X107465886Y-61953608D01*
X107588372Y-62076094D01*
X107624144Y-62102084D01*
X107653684Y-62123546D01*
X107696350Y-62178876D01*
X107704799Y-62223864D01*
X107704799Y-62340754D01*
X107704798Y-62340754D01*
X107745723Y-62493485D01*
X107764153Y-62525405D01*
X107764154Y-62525409D01*
X107824775Y-62630409D01*
X107824781Y-62630417D01*
X107943649Y-62749285D01*
X107943655Y-62749290D01*
X113115181Y-67920816D01*
X113148666Y-67982139D01*
X113151500Y-68008497D01*
X113151500Y-70471281D01*
X113131815Y-70538320D01*
X113083795Y-70581765D01*
X113044185Y-70601947D01*
X113044184Y-70601948D01*
X112872215Y-70726889D01*
X112733398Y-70865706D01*
X112672075Y-70899190D01*
X112602383Y-70894206D01*
X112546450Y-70852334D01*
X112540178Y-70843120D01*
X112444712Y-70688344D01*
X112320657Y-70564289D01*
X112320656Y-70564288D01*
X112197151Y-70488110D01*
X112171336Y-70472187D01*
X112171331Y-70472185D01*
X112168603Y-70471281D01*
X112004797Y-70417001D01*
X112004795Y-70417000D01*
X111902010Y-70406500D01*
X110601998Y-70406500D01*
X110601981Y-70406501D01*
X110499203Y-70417000D01*
X110499200Y-70417001D01*
X110332668Y-70472185D01*
X110332663Y-70472187D01*
X110183342Y-70564289D01*
X110059289Y-70688342D01*
X109967187Y-70837663D01*
X109967185Y-70837668D01*
X109954083Y-70877208D01*
X109912001Y-71004203D01*
X109912001Y-71004204D01*
X109912000Y-71004204D01*
X109901500Y-71106983D01*
X109901500Y-72657001D01*
X109901501Y-72657018D01*
X109912000Y-72759796D01*
X109912001Y-72759799D01*
X109967185Y-72926331D01*
X109967187Y-72926336D01*
X109998794Y-72977579D01*
X110059288Y-73075656D01*
X110183344Y-73199712D01*
X110332666Y-73291814D01*
X110499203Y-73346999D01*
X110601991Y-73357500D01*
X111902008Y-73357499D01*
X112004797Y-73346999D01*
X112171334Y-73291814D01*
X112320656Y-73199712D01*
X112444712Y-73075656D01*
X112536814Y-72926334D01*
X112536814Y-72926331D01*
X112540178Y-72920879D01*
X112592126Y-72874154D01*
X112661088Y-72862931D01*
X112725170Y-72890774D01*
X112733398Y-72898294D01*
X112872213Y-73037109D01*
X113044179Y-73162048D01*
X113044181Y-73162049D01*
X113044184Y-73162051D01*
X113233588Y-73258557D01*
X113435757Y-73324246D01*
X113645713Y-73357500D01*
X113645714Y-73357500D01*
X113858286Y-73357500D01*
X113858287Y-73357500D01*
X114068243Y-73324246D01*
X114270412Y-73258557D01*
X114459816Y-73162051D01*
X114539150Y-73104412D01*
X114631786Y-73037109D01*
X114631788Y-73037106D01*
X114631792Y-73037104D01*
X114782104Y-72886792D01*
X114901683Y-72722204D01*
X114957011Y-72679540D01*
X115026624Y-72673561D01*
X115088420Y-72706166D01*
X115102313Y-72722199D01*
X115173401Y-72820044D01*
X115221896Y-72886792D01*
X115372213Y-73037109D01*
X115544179Y-73162048D01*
X115544181Y-73162049D01*
X115544184Y-73162051D01*
X115733588Y-73258557D01*
X115935757Y-73324246D01*
X116145713Y-73357500D01*
X116145714Y-73357500D01*
X116358286Y-73357500D01*
X116358287Y-73357500D01*
X116568243Y-73324246D01*
X116770412Y-73258557D01*
X116959816Y-73162051D01*
X117039150Y-73104412D01*
X117131786Y-73037109D01*
X117131788Y-73037106D01*
X117131792Y-73037104D01*
X117282104Y-72886792D01*
X117401683Y-72722204D01*
X117457011Y-72679540D01*
X117526624Y-72673561D01*
X117588420Y-72706166D01*
X117602313Y-72722199D01*
X117673401Y-72820044D01*
X117721896Y-72886792D01*
X117872213Y-73037109D01*
X118044179Y-73162048D01*
X118044181Y-73162049D01*
X118044184Y-73162051D01*
X118233588Y-73258557D01*
X118435757Y-73324246D01*
X118645713Y-73357500D01*
X118645714Y-73357500D01*
X118858286Y-73357500D01*
X118858287Y-73357500D01*
X119068243Y-73324246D01*
X119270412Y-73258557D01*
X119459816Y-73162051D01*
X119539150Y-73104412D01*
X119631786Y-73037109D01*
X119631788Y-73037106D01*
X119631792Y-73037104D01*
X119782104Y-72886792D01*
X119782106Y-72886788D01*
X119782109Y-72886786D01*
X119907048Y-72714820D01*
X119907047Y-72714820D01*
X119907051Y-72714816D01*
X120003557Y-72525412D01*
X120069246Y-72323243D01*
X120102500Y-72113287D01*
X120102500Y-71650713D01*
X120069246Y-71440757D01*
X120003557Y-71238588D01*
X119907051Y-71049184D01*
X119907049Y-71049181D01*
X119907048Y-71049179D01*
X119782109Y-70877213D01*
X119631786Y-70726890D01*
X119459820Y-70601951D01*
X119270414Y-70505444D01*
X119270413Y-70505443D01*
X119270412Y-70505443D01*
X119068243Y-70439754D01*
X119068241Y-70439753D01*
X119068240Y-70439753D01*
X118906957Y-70414208D01*
X118858287Y-70406500D01*
X118645713Y-70406500D01*
X118606202Y-70412757D01*
X118435759Y-70439753D01*
X118300818Y-70483598D01*
X118230976Y-70485593D01*
X118171144Y-70449512D01*
X118140316Y-70386811D01*
X118138500Y-70365667D01*
X118138500Y-69046000D01*
X133707709Y-69046000D01*
X133726851Y-69325862D01*
X133726852Y-69325864D01*
X133783921Y-69600499D01*
X133783926Y-69600516D01*
X133850597Y-69788109D01*
X133877864Y-69864830D01*
X134006919Y-70113896D01*
X134168688Y-70343069D01*
X134168692Y-70343073D01*
X134168692Y-70343074D01*
X134359396Y-70547268D01*
X134360155Y-70548081D01*
X134577754Y-70725111D01*
X134577756Y-70725112D01*
X134577757Y-70725113D01*
X134817433Y-70870863D01*
X134985700Y-70943951D01*
X135074725Y-70982620D01*
X135344839Y-71058303D01*
X135578638Y-71090438D01*
X135622741Y-71096500D01*
X135622742Y-71096500D01*
X135903259Y-71096500D01*
X135947362Y-71090438D01*
X136181161Y-71058303D01*
X136451275Y-70982620D01*
X136708568Y-70870862D01*
X136948246Y-70725111D01*
X137165845Y-70548081D01*
X137357312Y-70343069D01*
X137519081Y-70113896D01*
X137648136Y-69864830D01*
X137742075Y-69600511D01*
X137742076Y-69600504D01*
X137742078Y-69600499D01*
X137775933Y-69437578D01*
X137799148Y-69325862D01*
X137818291Y-69046000D01*
X137799148Y-68766138D01*
X137773845Y-68644374D01*
X137742078Y-68491500D01*
X137742073Y-68491483D01*
X137682770Y-68324622D01*
X137648136Y-68227170D01*
X137519081Y-67978104D01*
X137357312Y-67748931D01*
X137357307Y-67748925D01*
X137165845Y-67543919D01*
X137012347Y-67419039D01*
X136948246Y-67366889D01*
X136948244Y-67366888D01*
X136948242Y-67366886D01*
X136708566Y-67221136D01*
X136451276Y-67109380D01*
X136181166Y-67033698D01*
X136181162Y-67033697D01*
X136181161Y-67033697D01*
X136042209Y-67014598D01*
X135903259Y-66995500D01*
X135903258Y-66995500D01*
X135622742Y-66995500D01*
X135622741Y-66995500D01*
X135344839Y-67033697D01*
X135344833Y-67033698D01*
X135074723Y-67109380D01*
X134817433Y-67221136D01*
X134577757Y-67366886D01*
X134360154Y-67543919D01*
X134168692Y-67748925D01*
X134168692Y-67748926D01*
X134006919Y-67978103D01*
X133877863Y-68227171D01*
X133783926Y-68491483D01*
X133783921Y-68491500D01*
X133726852Y-68766135D01*
X133726851Y-68766137D01*
X133707709Y-69046000D01*
X118138500Y-69046000D01*
X118138500Y-66336498D01*
X125064532Y-66336498D01*
X125064532Y-66336501D01*
X125084364Y-66563186D01*
X125084366Y-66563197D01*
X125143258Y-66782988D01*
X125143261Y-66782997D01*
X125239431Y-66989232D01*
X125239432Y-66989234D01*
X125369954Y-67175641D01*
X125530858Y-67336545D01*
X125530861Y-67336547D01*
X125717266Y-67467068D01*
X125923504Y-67563239D01*
X126143308Y-67622135D01*
X126305230Y-67636301D01*
X126369998Y-67641968D01*
X126370000Y-67641968D01*
X126370002Y-67641968D01*
X126426807Y-67636998D01*
X126596692Y-67622135D01*
X126816496Y-67563239D01*
X127022734Y-67467068D01*
X127209139Y-67336547D01*
X127370047Y-67175639D01*
X127387272Y-67151039D01*
X127441848Y-67107413D01*
X127511346Y-67100218D01*
X127573701Y-67131739D01*
X127609116Y-67191968D01*
X127612138Y-67208906D01*
X127615908Y-67243983D01*
X127666202Y-67378828D01*
X127666206Y-67378835D01*
X127752452Y-67494044D01*
X127752455Y-67494047D01*
X127867664Y-67580293D01*
X127867671Y-67580297D01*
X128002517Y-67630591D01*
X128002516Y-67630591D01*
X128009444Y-67631335D01*
X128062127Y-67637000D01*
X129757872Y-67636999D01*
X129817483Y-67630591D01*
X129952331Y-67580296D01*
X130067546Y-67494046D01*
X130153796Y-67378831D01*
X130204091Y-67243983D01*
X130210500Y-67184373D01*
X130210499Y-65488628D01*
X130204091Y-65429017D01*
X130169567Y-65336454D01*
X130153797Y-65294171D01*
X130153793Y-65294164D01*
X130067547Y-65178955D01*
X130067544Y-65178952D01*
X129952335Y-65092706D01*
X129952328Y-65092702D01*
X129817482Y-65042408D01*
X129817483Y-65042408D01*
X129757883Y-65036001D01*
X129757881Y-65036000D01*
X129757873Y-65036000D01*
X129757864Y-65036000D01*
X128062129Y-65036000D01*
X128062123Y-65036001D01*
X128002516Y-65042408D01*
X127867671Y-65092702D01*
X127867664Y-65092706D01*
X127752455Y-65178952D01*
X127752452Y-65178955D01*
X127666206Y-65294164D01*
X127666202Y-65294171D01*
X127615908Y-65429016D01*
X127612137Y-65464096D01*
X127585398Y-65528646D01*
X127528006Y-65568494D01*
X127458180Y-65570987D01*
X127398092Y-65535334D01*
X127387273Y-65521962D01*
X127370045Y-65497358D01*
X127209141Y-65336454D01*
X127022734Y-65205932D01*
X127022732Y-65205931D01*
X126816497Y-65109761D01*
X126816488Y-65109758D01*
X126596697Y-65050866D01*
X126596693Y-65050865D01*
X126596692Y-65050865D01*
X126596691Y-65050864D01*
X126596686Y-65050864D01*
X126370002Y-65031032D01*
X126369998Y-65031032D01*
X126143313Y-65050864D01*
X126143302Y-65050866D01*
X125923511Y-65109758D01*
X125923502Y-65109761D01*
X125717267Y-65205931D01*
X125717265Y-65205932D01*
X125530858Y-65336454D01*
X125369954Y-65497358D01*
X125239432Y-65683765D01*
X125239431Y-65683767D01*
X125143261Y-65890002D01*
X125143258Y-65890011D01*
X125084366Y-66109802D01*
X125084364Y-66109813D01*
X125064532Y-66336498D01*
X118138500Y-66336498D01*
X118138500Y-62444322D01*
X118158185Y-62377283D01*
X118210989Y-62331528D01*
X118280147Y-62321584D01*
X118281763Y-62321828D01*
X118378689Y-62337180D01*
X118378691Y-62337180D01*
X118551910Y-62337180D01*
X118551911Y-62337180D01*
X118723001Y-62310082D01*
X118887745Y-62256553D01*
X119042088Y-62177912D01*
X119182228Y-62076094D01*
X119304714Y-61953608D01*
X119406532Y-61813468D01*
X119485173Y-61659125D01*
X119538702Y-61494381D01*
X119565800Y-61323291D01*
X119565800Y-60350069D01*
X119904800Y-60350069D01*
X119904800Y-61323290D01*
X119931897Y-61494377D01*
X119931897Y-61494379D01*
X119931898Y-61494381D01*
X119985427Y-61659125D01*
X120064068Y-61813468D01*
X120165886Y-61953608D01*
X120288372Y-62076094D01*
X120428512Y-62177912D01*
X120582855Y-62256553D01*
X120747599Y-62310082D01*
X120918689Y-62337180D01*
X120918690Y-62337180D01*
X121091910Y-62337180D01*
X121091911Y-62337180D01*
X121263001Y-62310082D01*
X121427745Y-62256553D01*
X121582088Y-62177912D01*
X121722228Y-62076094D01*
X121844714Y-61953608D01*
X121946532Y-61813468D01*
X122025173Y-61659125D01*
X122078702Y-61494381D01*
X122105800Y-61323291D01*
X122105800Y-60350069D01*
X122444800Y-60350069D01*
X122444800Y-61323290D01*
X122471897Y-61494377D01*
X122471897Y-61494379D01*
X122471898Y-61494381D01*
X122525427Y-61659125D01*
X122604068Y-61813468D01*
X122705886Y-61953608D01*
X122828372Y-62076094D01*
X122968512Y-62177912D01*
X123122855Y-62256553D01*
X123287599Y-62310082D01*
X123458689Y-62337180D01*
X123458690Y-62337180D01*
X123631910Y-62337180D01*
X123631911Y-62337180D01*
X123803001Y-62310082D01*
X123967745Y-62256553D01*
X124122088Y-62177912D01*
X124262228Y-62076094D01*
X124384714Y-61953608D01*
X124486532Y-61813468D01*
X124565173Y-61659125D01*
X124618702Y-61494381D01*
X124645800Y-61323291D01*
X124645800Y-60350069D01*
X124984800Y-60350069D01*
X124984800Y-61323290D01*
X125011897Y-61494377D01*
X125011897Y-61494379D01*
X125011898Y-61494381D01*
X125065427Y-61659125D01*
X125144068Y-61813468D01*
X125245886Y-61953608D01*
X125368372Y-62076094D01*
X125508512Y-62177912D01*
X125662855Y-62256553D01*
X125827599Y-62310082D01*
X125998689Y-62337180D01*
X125998690Y-62337180D01*
X126171910Y-62337180D01*
X126171911Y-62337180D01*
X126343001Y-62310082D01*
X126507745Y-62256553D01*
X126662088Y-62177912D01*
X126802228Y-62076094D01*
X126924714Y-61953608D01*
X127026532Y-61813468D01*
X127105173Y-61659125D01*
X127158702Y-61494381D01*
X127185800Y-61323291D01*
X127185800Y-60350069D01*
X127524800Y-60350069D01*
X127524800Y-61323290D01*
X127551897Y-61494377D01*
X127551897Y-61494379D01*
X127551898Y-61494381D01*
X127605427Y-61659125D01*
X127684068Y-61813468D01*
X127785886Y-61953608D01*
X127908372Y-62076094D01*
X128048512Y-62177912D01*
X128202855Y-62256553D01*
X128367599Y-62310082D01*
X128538689Y-62337180D01*
X128538690Y-62337180D01*
X128711910Y-62337180D01*
X128711911Y-62337180D01*
X128883001Y-62310082D01*
X129047745Y-62256553D01*
X129202088Y-62177912D01*
X129342228Y-62076094D01*
X129464714Y-61953608D01*
X129566532Y-61813468D01*
X129645173Y-61659125D01*
X129698702Y-61494381D01*
X129725800Y-61323291D01*
X129725800Y-60350069D01*
X130064800Y-60350069D01*
X130064800Y-61323290D01*
X130091897Y-61494377D01*
X130091897Y-61494379D01*
X130091898Y-61494381D01*
X130145427Y-61659125D01*
X130224068Y-61813468D01*
X130325886Y-61953608D01*
X130448372Y-62076094D01*
X130588512Y-62177912D01*
X130742855Y-62256553D01*
X130907599Y-62310082D01*
X131078689Y-62337180D01*
X131078690Y-62337180D01*
X131251910Y-62337180D01*
X131251911Y-62337180D01*
X131423001Y-62310082D01*
X131587745Y-62256553D01*
X131742088Y-62177912D01*
X131882228Y-62076094D01*
X132004714Y-61953608D01*
X132106532Y-61813468D01*
X132185173Y-61659125D01*
X132238702Y-61494381D01*
X132265800Y-61323291D01*
X132265800Y-60350069D01*
X132238702Y-60178979D01*
X132185173Y-60014235D01*
X132106532Y-59859892D01*
X132004714Y-59719752D01*
X131882228Y-59597266D01*
X131742088Y-59495448D01*
X131678552Y-59463075D01*
X131587747Y-59416808D01*
X131587746Y-59416807D01*
X131587745Y-59416807D01*
X131423001Y-59363278D01*
X131422999Y-59363277D01*
X131422998Y-59363277D01*
X131278157Y-59340337D01*
X131251911Y-59336180D01*
X131078689Y-59336180D01*
X131052443Y-59340337D01*
X130907602Y-59363277D01*
X130907599Y-59363278D01*
X130755357Y-59412745D01*
X130742852Y-59416808D01*
X130588511Y-59495448D01*
X130527815Y-59539547D01*
X130448372Y-59597266D01*
X130448370Y-59597268D01*
X130448369Y-59597268D01*
X130325888Y-59719749D01*
X130325888Y-59719750D01*
X130325886Y-59719752D01*
X130292060Y-59766310D01*
X130224068Y-59859891D01*
X130145428Y-60014232D01*
X130091897Y-60178982D01*
X130064800Y-60350069D01*
X129725800Y-60350069D01*
X129698702Y-60178979D01*
X129645173Y-60014235D01*
X129566532Y-59859892D01*
X129464714Y-59719752D01*
X129342228Y-59597266D01*
X129202088Y-59495448D01*
X129138552Y-59463075D01*
X129047747Y-59416808D01*
X129047746Y-59416807D01*
X129047745Y-59416807D01*
X128883001Y-59363278D01*
X128882999Y-59363277D01*
X128882998Y-59363277D01*
X128738157Y-59340337D01*
X128711911Y-59336180D01*
X128538689Y-59336180D01*
X128512443Y-59340337D01*
X128367602Y-59363277D01*
X128367599Y-59363278D01*
X128215357Y-59412745D01*
X128202852Y-59416808D01*
X128048511Y-59495448D01*
X127987815Y-59539547D01*
X127908372Y-59597266D01*
X127908370Y-59597268D01*
X127908369Y-59597268D01*
X127785888Y-59719749D01*
X127785888Y-59719750D01*
X127785886Y-59719752D01*
X127752060Y-59766310D01*
X127684068Y-59859891D01*
X127605428Y-60014232D01*
X127551897Y-60178982D01*
X127524800Y-60350069D01*
X127185800Y-60350069D01*
X127158702Y-60178979D01*
X127105173Y-60014235D01*
X127026532Y-59859892D01*
X126924714Y-59719752D01*
X126802228Y-59597266D01*
X126662088Y-59495448D01*
X126598552Y-59463075D01*
X126507747Y-59416808D01*
X126507746Y-59416807D01*
X126507745Y-59416807D01*
X126343001Y-59363278D01*
X126342999Y-59363277D01*
X126342998Y-59363277D01*
X126198157Y-59340337D01*
X126171911Y-59336180D01*
X125998689Y-59336180D01*
X125972443Y-59340337D01*
X125827602Y-59363277D01*
X125827599Y-59363278D01*
X125675357Y-59412745D01*
X125662852Y-59416808D01*
X125508511Y-59495448D01*
X125447815Y-59539547D01*
X125368372Y-59597266D01*
X125368370Y-59597268D01*
X125368369Y-59597268D01*
X125245888Y-59719749D01*
X125245888Y-59719750D01*
X125245886Y-59719752D01*
X125212060Y-59766310D01*
X125144068Y-59859891D01*
X125065428Y-60014232D01*
X125011897Y-60178982D01*
X124984800Y-60350069D01*
X124645800Y-60350069D01*
X124618702Y-60178979D01*
X124565173Y-60014235D01*
X124486532Y-59859892D01*
X124384714Y-59719752D01*
X124262228Y-59597266D01*
X124122088Y-59495448D01*
X124058552Y-59463075D01*
X123967747Y-59416808D01*
X123967746Y-59416807D01*
X123967745Y-59416807D01*
X123803001Y-59363278D01*
X123802999Y-59363277D01*
X123802998Y-59363277D01*
X123658157Y-59340337D01*
X123631911Y-59336180D01*
X123458689Y-59336180D01*
X123432443Y-59340337D01*
X123287602Y-59363277D01*
X123287599Y-59363278D01*
X123135357Y-59412745D01*
X123122852Y-59416808D01*
X122968511Y-59495448D01*
X122907815Y-59539547D01*
X122828372Y-59597266D01*
X122828370Y-59597268D01*
X122828369Y-59597268D01*
X122705888Y-59719749D01*
X122705888Y-59719750D01*
X122705886Y-59719752D01*
X122672060Y-59766310D01*
X122604068Y-59859891D01*
X122525428Y-60014232D01*
X122471897Y-60178982D01*
X122444800Y-60350069D01*
X122105800Y-60350069D01*
X122078702Y-60178979D01*
X122025173Y-60014235D01*
X121946532Y-59859892D01*
X121844714Y-59719752D01*
X121722228Y-59597266D01*
X121582088Y-59495448D01*
X121518552Y-59463075D01*
X121427747Y-59416808D01*
X121427746Y-59416807D01*
X121427745Y-59416807D01*
X121263001Y-59363278D01*
X121262999Y-59363277D01*
X121262998Y-59363277D01*
X121118157Y-59340337D01*
X121091911Y-59336180D01*
X120918689Y-59336180D01*
X120892443Y-59340337D01*
X120747602Y-59363277D01*
X120747599Y-59363278D01*
X120595357Y-59412745D01*
X120582852Y-59416808D01*
X120428511Y-59495448D01*
X120367815Y-59539547D01*
X120288372Y-59597266D01*
X120288370Y-59597268D01*
X120288369Y-59597268D01*
X120165888Y-59719749D01*
X120165888Y-59719750D01*
X120165886Y-59719752D01*
X120132060Y-59766310D01*
X120064068Y-59859891D01*
X119985428Y-60014232D01*
X119931897Y-60178982D01*
X119904800Y-60350069D01*
X119565800Y-60350069D01*
X119538702Y-60178979D01*
X119485173Y-60014235D01*
X119406532Y-59859892D01*
X119304714Y-59719752D01*
X119182228Y-59597266D01*
X119042088Y-59495448D01*
X118978552Y-59463075D01*
X118887747Y-59416808D01*
X118887746Y-59416807D01*
X118887745Y-59416807D01*
X118723001Y-59363278D01*
X118722999Y-59363277D01*
X118722998Y-59363277D01*
X118578157Y-59340337D01*
X118551911Y-59336180D01*
X118378689Y-59336180D01*
X118281897Y-59351510D01*
X118212604Y-59342555D01*
X118159152Y-59297559D01*
X118138513Y-59230807D01*
X118138500Y-59229037D01*
X118138500Y-56081229D01*
X118158185Y-56014190D01*
X118174814Y-55993553D01*
X133766161Y-40402206D01*
X133827480Y-40368724D01*
X133897172Y-40373708D01*
X133953105Y-40415580D01*
X133977522Y-40481044D01*
X133977366Y-40500697D01*
X133965179Y-40639997D01*
X133965179Y-40640000D01*
X133984424Y-40859976D01*
X133984426Y-40859986D01*
X134041575Y-41073270D01*
X134041580Y-41073284D01*
X134134898Y-41273405D01*
X134134901Y-41273411D01*
X134180258Y-41338187D01*
X134180258Y-41338188D01*
X134851000Y-40667446D01*
X134851000Y-40690160D01*
X134876964Y-40787061D01*
X134927124Y-40873940D01*
X134998060Y-40944876D01*
X135084939Y-40995036D01*
X135181840Y-41021000D01*
X135204551Y-41021000D01*
X134533810Y-41691740D01*
X134598589Y-41737098D01*
X134728373Y-41797618D01*
X134780812Y-41843790D01*
X134799964Y-41910984D01*
X134779748Y-41977865D01*
X134728373Y-42022382D01*
X134598590Y-42082901D01*
X134533811Y-42128258D01*
X135204553Y-42799000D01*
X135181840Y-42799000D01*
X135084939Y-42824964D01*
X134998060Y-42875124D01*
X134927124Y-42946060D01*
X134876964Y-43032939D01*
X134851000Y-43129840D01*
X134851000Y-43152553D01*
X134180258Y-42481811D01*
X134134901Y-42546590D01*
X134041579Y-42746720D01*
X134041575Y-42746729D01*
X133984426Y-42960013D01*
X133984424Y-42960023D01*
X133965179Y-43179999D01*
X133965179Y-43180000D01*
X133984424Y-43399976D01*
X133984426Y-43399986D01*
X134041575Y-43613270D01*
X134041580Y-43613284D01*
X134134898Y-43813405D01*
X134134901Y-43813411D01*
X134180258Y-43878187D01*
X134180259Y-43878188D01*
X134851000Y-43207447D01*
X134851000Y-43230160D01*
X134876964Y-43327061D01*
X134927124Y-43413940D01*
X134998060Y-43484876D01*
X135084939Y-43535036D01*
X135181840Y-43561000D01*
X135204551Y-43561000D01*
X134533810Y-44231740D01*
X134598589Y-44277098D01*
X134728373Y-44337618D01*
X134780812Y-44383790D01*
X134799964Y-44450984D01*
X134779748Y-44517865D01*
X134728373Y-44562382D01*
X134598590Y-44622901D01*
X134533811Y-44668258D01*
X135204553Y-45339000D01*
X135181840Y-45339000D01*
X135084939Y-45364964D01*
X134998060Y-45415124D01*
X134927124Y-45486060D01*
X134876964Y-45572939D01*
X134851000Y-45669840D01*
X134851000Y-45692553D01*
X134180258Y-45021811D01*
X134134901Y-45086590D01*
X134041579Y-45286720D01*
X134041575Y-45286729D01*
X133984426Y-45500013D01*
X133984424Y-45500023D01*
X133965179Y-45719999D01*
X133965179Y-45720000D01*
X133984424Y-45939976D01*
X133984426Y-45939986D01*
X134041575Y-46153270D01*
X134041580Y-46153284D01*
X134134898Y-46353405D01*
X134134901Y-46353411D01*
X134180258Y-46418187D01*
X134180259Y-46418188D01*
X134851000Y-45747447D01*
X134851000Y-45770160D01*
X134876964Y-45867061D01*
X134927124Y-45953940D01*
X134998060Y-46024876D01*
X135084939Y-46075036D01*
X135181840Y-46101000D01*
X135204551Y-46101000D01*
X134533810Y-46771740D01*
X134598589Y-46817098D01*
X134728373Y-46877618D01*
X134780812Y-46923790D01*
X134799964Y-46990984D01*
X134779748Y-47057865D01*
X134728373Y-47102382D01*
X134598590Y-47162901D01*
X134533811Y-47208258D01*
X135204553Y-47879000D01*
X135181840Y-47879000D01*
X135084939Y-47904964D01*
X134998060Y-47955124D01*
X134927124Y-48026060D01*
X134876964Y-48112939D01*
X134851000Y-48209840D01*
X134851000Y-48232553D01*
X134180258Y-47561811D01*
X134134901Y-47626590D01*
X134041579Y-47826720D01*
X134041575Y-47826729D01*
X133984426Y-48040013D01*
X133984424Y-48040023D01*
X133965179Y-48259999D01*
X133965179Y-48260000D01*
X133984424Y-48479976D01*
X133984426Y-48479986D01*
X134041575Y-48693270D01*
X134041580Y-48693284D01*
X134134898Y-48893405D01*
X134134901Y-48893411D01*
X134180258Y-48958187D01*
X134180259Y-48958188D01*
X134851000Y-48287447D01*
X134851000Y-48310160D01*
X134876964Y-48407061D01*
X134927124Y-48493940D01*
X134998060Y-48564876D01*
X135084939Y-48615036D01*
X135181840Y-48641000D01*
X135204551Y-48641000D01*
X134533810Y-49311740D01*
X134598589Y-49357098D01*
X134728373Y-49417618D01*
X134780812Y-49463790D01*
X134799964Y-49530984D01*
X134779748Y-49597865D01*
X134728373Y-49642382D01*
X134598590Y-49702901D01*
X134533811Y-49748258D01*
X135204553Y-50419000D01*
X135181840Y-50419000D01*
X135084939Y-50444964D01*
X134998060Y-50495124D01*
X134927124Y-50566060D01*
X134876964Y-50652939D01*
X134851000Y-50749840D01*
X134851000Y-50772553D01*
X134180258Y-50101811D01*
X134134901Y-50166590D01*
X134041579Y-50366720D01*
X134041575Y-50366729D01*
X133984426Y-50580013D01*
X133984424Y-50580023D01*
X133965179Y-50799999D01*
X133965179Y-50800000D01*
X133984424Y-51019976D01*
X133984426Y-51019986D01*
X134041575Y-51233270D01*
X134041580Y-51233284D01*
X134134898Y-51433405D01*
X134134901Y-51433411D01*
X134180258Y-51498187D01*
X134180259Y-51498188D01*
X134851000Y-50827447D01*
X134851000Y-50850160D01*
X134876964Y-50947061D01*
X134927124Y-51033940D01*
X134998060Y-51104876D01*
X135084939Y-51155036D01*
X135181840Y-51181000D01*
X135204551Y-51181000D01*
X134533810Y-51851740D01*
X134598589Y-51897098D01*
X134728373Y-51957618D01*
X134780812Y-52003790D01*
X134799964Y-52070984D01*
X134779748Y-52137865D01*
X134728373Y-52182382D01*
X134598590Y-52242901D01*
X134533811Y-52288258D01*
X135204553Y-52959000D01*
X135181840Y-52959000D01*
X135084939Y-52984964D01*
X134998060Y-53035124D01*
X134927124Y-53106060D01*
X134876964Y-53192939D01*
X134851000Y-53289840D01*
X134851000Y-53312553D01*
X134180258Y-52641811D01*
X134134901Y-52706590D01*
X134041579Y-52906720D01*
X134041575Y-52906729D01*
X133984426Y-53120013D01*
X133984424Y-53120023D01*
X133965179Y-53339999D01*
X133965179Y-53340000D01*
X133984424Y-53559976D01*
X133984426Y-53559986D01*
X134041575Y-53773270D01*
X134041580Y-53773284D01*
X134134898Y-53973405D01*
X134134901Y-53973411D01*
X134180258Y-54038187D01*
X134180259Y-54038188D01*
X134851000Y-53367447D01*
X134851000Y-53390160D01*
X134876964Y-53487061D01*
X134927124Y-53573940D01*
X134998060Y-53644876D01*
X135084939Y-53695036D01*
X135181840Y-53721000D01*
X135204551Y-53721000D01*
X134533810Y-54391740D01*
X134598589Y-54437098D01*
X134728373Y-54497618D01*
X134780812Y-54543790D01*
X134799964Y-54610984D01*
X134779748Y-54677865D01*
X134728373Y-54722382D01*
X134598590Y-54782901D01*
X134533811Y-54828258D01*
X135204553Y-55499000D01*
X135181840Y-55499000D01*
X135084939Y-55524964D01*
X134998060Y-55575124D01*
X134927124Y-55646060D01*
X134876964Y-55732939D01*
X134851000Y-55829840D01*
X134851000Y-55852553D01*
X134180258Y-55181811D01*
X134134901Y-55246590D01*
X134041579Y-55446720D01*
X134041575Y-55446729D01*
X133984426Y-55660013D01*
X133984424Y-55660023D01*
X133965179Y-55879999D01*
X133965179Y-55880000D01*
X133984424Y-56099976D01*
X133984426Y-56099986D01*
X134041575Y-56313270D01*
X134041580Y-56313284D01*
X134134898Y-56513405D01*
X134134901Y-56513411D01*
X134180258Y-56578187D01*
X134180259Y-56578188D01*
X134851000Y-55907447D01*
X134851000Y-55930160D01*
X134876964Y-56027061D01*
X134927124Y-56113940D01*
X134998060Y-56184876D01*
X135084939Y-56235036D01*
X135181840Y-56261000D01*
X135204553Y-56261000D01*
X134533810Y-56931740D01*
X134598589Y-56977098D01*
X134728373Y-57037618D01*
X134780812Y-57083790D01*
X134799964Y-57150984D01*
X134779748Y-57217865D01*
X134728373Y-57262382D01*
X134598590Y-57322901D01*
X134533811Y-57368258D01*
X135204553Y-58039000D01*
X135181840Y-58039000D01*
X135084939Y-58064964D01*
X134998060Y-58115124D01*
X134927124Y-58186060D01*
X134876964Y-58272939D01*
X134851000Y-58369840D01*
X134851000Y-58392553D01*
X134180258Y-57721811D01*
X134134901Y-57786590D01*
X134041579Y-57986720D01*
X134041575Y-57986729D01*
X133984426Y-58200013D01*
X133984424Y-58200023D01*
X133965179Y-58419999D01*
X133965179Y-58420000D01*
X133984424Y-58639976D01*
X133984426Y-58639986D01*
X134041575Y-58853270D01*
X134041580Y-58853284D01*
X134134899Y-59053407D01*
X134134900Y-59053409D01*
X134253837Y-59223268D01*
X134276164Y-59289474D01*
X134259154Y-59357242D01*
X134208206Y-59405055D01*
X134139496Y-59417733D01*
X134113946Y-59412323D01*
X133963001Y-59363278D01*
X133962999Y-59363277D01*
X133962998Y-59363277D01*
X133818157Y-59340337D01*
X133791911Y-59336180D01*
X133618689Y-59336180D01*
X133592443Y-59340337D01*
X133447602Y-59363277D01*
X133447599Y-59363278D01*
X133295357Y-59412745D01*
X133282852Y-59416808D01*
X133128511Y-59495448D01*
X133067815Y-59539547D01*
X132988372Y-59597266D01*
X132988370Y-59597268D01*
X132988369Y-59597268D01*
X132865888Y-59719749D01*
X132865888Y-59719750D01*
X132865886Y-59719752D01*
X132832060Y-59766310D01*
X132764068Y-59859891D01*
X132685428Y-60014232D01*
X132631897Y-60178982D01*
X132604800Y-60350069D01*
X132604800Y-61323290D01*
X132631897Y-61494377D01*
X132631897Y-61494379D01*
X132631898Y-61494381D01*
X132685427Y-61659125D01*
X132764068Y-61813468D01*
X132865886Y-61953608D01*
X132988372Y-62076094D01*
X133128512Y-62177912D01*
X133282855Y-62256553D01*
X133447599Y-62310082D01*
X133618689Y-62337180D01*
X133618690Y-62337180D01*
X133791910Y-62337180D01*
X133791911Y-62337180D01*
X133963001Y-62310082D01*
X134127745Y-62256553D01*
X134282088Y-62177912D01*
X134422228Y-62076094D01*
X134544714Y-61953608D01*
X134646532Y-61813468D01*
X134725173Y-61659125D01*
X134778702Y-61494381D01*
X134805800Y-61323291D01*
X134805800Y-60350069D01*
X134778702Y-60178979D01*
X134725173Y-60014235D01*
X134646532Y-59859892D01*
X134576257Y-59763167D01*
X134552778Y-59697362D01*
X134568603Y-59629309D01*
X134618709Y-59580614D01*
X134687187Y-59566738D01*
X134728981Y-59577901D01*
X134798720Y-59610420D01*
X134798729Y-59610424D01*
X135012013Y-59667573D01*
X135012024Y-59667575D01*
X135202812Y-59684267D01*
X135267881Y-59709719D01*
X135308860Y-59766310D01*
X135312738Y-59836072D01*
X135302490Y-59864090D01*
X135225892Y-60014422D01*
X135172385Y-60179095D01*
X135145300Y-60350108D01*
X135145300Y-60586680D01*
X135929614Y-60586680D01*
X135925220Y-60591074D01*
X135872559Y-60682286D01*
X135845300Y-60784019D01*
X135845300Y-60889341D01*
X135872559Y-60991074D01*
X135925220Y-61082286D01*
X135929614Y-61086680D01*
X135145300Y-61086680D01*
X135145300Y-61323251D01*
X135172385Y-61494264D01*
X135225891Y-61658937D01*
X135304495Y-61813204D01*
X135406267Y-61953282D01*
X135528697Y-62075712D01*
X135668775Y-62177484D01*
X135823044Y-62256088D01*
X135987715Y-62309594D01*
X135987714Y-62309594D01*
X135995299Y-62310795D01*
X135995300Y-62310794D01*
X135995300Y-61152366D01*
X135999694Y-61156760D01*
X136090906Y-61209421D01*
X136192639Y-61236680D01*
X136297961Y-61236680D01*
X136399694Y-61209421D01*
X136490906Y-61156760D01*
X136495300Y-61152366D01*
X136495300Y-62310795D01*
X136502884Y-62309594D01*
X136667555Y-62256088D01*
X136821824Y-62177484D01*
X136961902Y-62075712D01*
X137084332Y-61953282D01*
X137186104Y-61813204D01*
X137264708Y-61658937D01*
X137318214Y-61494264D01*
X137345300Y-61323251D01*
X137345300Y-61086680D01*
X136560986Y-61086680D01*
X136565380Y-61082286D01*
X136618041Y-60991074D01*
X136645300Y-60889341D01*
X136645300Y-60784019D01*
X136618041Y-60682286D01*
X136565380Y-60591074D01*
X136560986Y-60586680D01*
X137345300Y-60586680D01*
X137345300Y-60350108D01*
X137318214Y-60179095D01*
X137264708Y-60014422D01*
X137186101Y-59860151D01*
X137115930Y-59763567D01*
X137092450Y-59697761D01*
X137108276Y-59629707D01*
X137158382Y-59581012D01*
X137226860Y-59567137D01*
X137268649Y-59578299D01*
X137338550Y-59610894D01*
X137551932Y-59668070D01*
X137709123Y-59681822D01*
X137771998Y-59687323D01*
X137772000Y-59687323D01*
X137772002Y-59687323D01*
X137827151Y-59682498D01*
X137992068Y-59668070D01*
X138205450Y-59610894D01*
X138405662Y-59517534D01*
X138586620Y-59390826D01*
X138742826Y-59234620D01*
X138869534Y-59053662D01*
X138962894Y-58853450D01*
X139015725Y-58656282D01*
X139052090Y-58596622D01*
X139114937Y-58566093D01*
X139184313Y-58574388D01*
X139238190Y-58618873D01*
X139259465Y-58685425D01*
X139259500Y-58688376D01*
X139259500Y-75025500D01*
X139239815Y-75092539D01*
X139187011Y-75138294D01*
X139135500Y-75149500D01*
X129854840Y-75149500D01*
X129787801Y-75129815D01*
X129742046Y-75077011D01*
X129732102Y-75007853D01*
X129761127Y-74944297D01*
X129767159Y-74937819D01*
X129909657Y-74795320D01*
X130040134Y-74608982D01*
X130136265Y-74402826D01*
X130136269Y-74402817D01*
X130188872Y-74206500D01*
X129225686Y-74206500D01*
X129230080Y-74202106D01*
X129282741Y-74110894D01*
X129310000Y-74009161D01*
X129310000Y-73903839D01*
X129282741Y-73802106D01*
X129230080Y-73710894D01*
X129225686Y-73706500D01*
X130188872Y-73706500D01*
X130188872Y-73706499D01*
X130136269Y-73510182D01*
X130136265Y-73510173D01*
X130040134Y-73304017D01*
X129909657Y-73117679D01*
X129748820Y-72956842D01*
X129562482Y-72826365D01*
X129356328Y-72730234D01*
X129160000Y-72677627D01*
X129160000Y-73640814D01*
X129155606Y-73636420D01*
X129064394Y-73583759D01*
X128962661Y-73556500D01*
X128857339Y-73556500D01*
X128755606Y-73583759D01*
X128664394Y-73636420D01*
X128660000Y-73640814D01*
X128660000Y-72677627D01*
X128463671Y-72730234D01*
X128257517Y-72826365D01*
X128071179Y-72956842D01*
X127910342Y-73117679D01*
X127779865Y-73304017D01*
X127752382Y-73362957D01*
X127706210Y-73415396D01*
X127639016Y-73434548D01*
X127572135Y-73414332D01*
X127527618Y-73362957D01*
X127500134Y-73304017D01*
X127369657Y-73117679D01*
X127208820Y-72956842D01*
X127022482Y-72826365D01*
X126816328Y-72730234D01*
X126620000Y-72677627D01*
X126620000Y-73640814D01*
X126615606Y-73636420D01*
X126524394Y-73583759D01*
X126422661Y-73556500D01*
X126317339Y-73556500D01*
X126215606Y-73583759D01*
X126124394Y-73636420D01*
X126120000Y-73640814D01*
X126120000Y-72677627D01*
X125923671Y-72730234D01*
X125717517Y-72826365D01*
X125531179Y-72956842D01*
X125370342Y-73117679D01*
X125239865Y-73304017D01*
X125143734Y-73510173D01*
X125143730Y-73510182D01*
X125091127Y-73706499D01*
X125091128Y-73706500D01*
X126054314Y-73706500D01*
X126049920Y-73710894D01*
X125997259Y-73802106D01*
X125970000Y-73903839D01*
X125970000Y-74009161D01*
X125997259Y-74110894D01*
X126049920Y-74202106D01*
X126054314Y-74206500D01*
X125091128Y-74206500D01*
X125143730Y-74402817D01*
X125143734Y-74402826D01*
X125239865Y-74608982D01*
X125370342Y-74795320D01*
X125512841Y-74937819D01*
X125546326Y-74999142D01*
X125541342Y-75068834D01*
X125499470Y-75124767D01*
X125434006Y-75149184D01*
X125425160Y-75149500D01*
X92786177Y-75149500D01*
X92719138Y-75129815D01*
X92673383Y-75077011D01*
X92663439Y-75007853D01*
X92684601Y-74954378D01*
X92791534Y-74801662D01*
X92884894Y-74601450D01*
X92942070Y-74388068D01*
X92961323Y-74168000D01*
X92942070Y-73947932D01*
X92884894Y-73734550D01*
X92791534Y-73534339D01*
X92707489Y-73414309D01*
X92664827Y-73353381D01*
X92587329Y-73275883D01*
X92508620Y-73197174D01*
X92508616Y-73197171D01*
X92508615Y-73197170D01*
X92327666Y-73070468D01*
X92327662Y-73070466D01*
X92256127Y-73037109D01*
X92127450Y-72977106D01*
X92127447Y-72977105D01*
X92127445Y-72977104D01*
X91914070Y-72919930D01*
X91914062Y-72919929D01*
X91694002Y-72900677D01*
X91693998Y-72900677D01*
X91473937Y-72919929D01*
X91473929Y-72919930D01*
X91260554Y-72977104D01*
X91260548Y-72977107D01*
X91060340Y-73070465D01*
X91060338Y-73070466D01*
X90879377Y-73197175D01*
X90723175Y-73353377D01*
X90596466Y-73534338D01*
X90596465Y-73534340D01*
X90536382Y-73663189D01*
X90490209Y-73715628D01*
X90423016Y-73734780D01*
X90356135Y-73714564D01*
X90311618Y-73663189D01*
X90251651Y-73534590D01*
X90251534Y-73534339D01*
X90167489Y-73414309D01*
X90124827Y-73353381D01*
X90047329Y-73275883D01*
X89968620Y-73197174D01*
X89968616Y-73197171D01*
X89968615Y-73197170D01*
X89787666Y-73070468D01*
X89787662Y-73070466D01*
X89716127Y-73037109D01*
X89587450Y-72977106D01*
X89587447Y-72977105D01*
X89587445Y-72977104D01*
X89374070Y-72919930D01*
X89374062Y-72919929D01*
X89154002Y-72900677D01*
X89153998Y-72900677D01*
X88933937Y-72919929D01*
X88933926Y-72919931D01*
X88732593Y-72973878D01*
X88662743Y-72972215D01*
X88604881Y-72933052D01*
X88577377Y-72868824D01*
X88576500Y-72854103D01*
X88576500Y-71233983D01*
X97027500Y-71233983D01*
X97027500Y-72784001D01*
X97027501Y-72784018D01*
X97038000Y-72886796D01*
X97038001Y-72886799D01*
X97093185Y-73053331D01*
X97093187Y-73053336D01*
X97106954Y-73075656D01*
X97185288Y-73202656D01*
X97309344Y-73326712D01*
X97458666Y-73418814D01*
X97625203Y-73473999D01*
X97727991Y-73484500D01*
X99028008Y-73484499D01*
X99130797Y-73473999D01*
X99297334Y-73418814D01*
X99446656Y-73326712D01*
X99570712Y-73202656D01*
X99662814Y-73053334D01*
X99662814Y-73053331D01*
X99666178Y-73047879D01*
X99718126Y-73001154D01*
X99787088Y-72989931D01*
X99851170Y-73017774D01*
X99859398Y-73025294D01*
X99998213Y-73164109D01*
X100170179Y-73289048D01*
X100170181Y-73289049D01*
X100170184Y-73289051D01*
X100359588Y-73385557D01*
X100561757Y-73451246D01*
X100771713Y-73484500D01*
X100771714Y-73484500D01*
X100984286Y-73484500D01*
X100984287Y-73484500D01*
X101194243Y-73451246D01*
X101396412Y-73385557D01*
X101585816Y-73289051D01*
X101627788Y-73258557D01*
X101757786Y-73164109D01*
X101757788Y-73164106D01*
X101757792Y-73164104D01*
X101908104Y-73013792D01*
X102027991Y-72848779D01*
X102083320Y-72806115D01*
X102152933Y-72800136D01*
X102214729Y-72832741D01*
X102228627Y-72848781D01*
X102348272Y-73013459D01*
X102348276Y-73013464D01*
X102498535Y-73163723D01*
X102498540Y-73163727D01*
X102670442Y-73288620D01*
X102859782Y-73385095D01*
X103061871Y-73450757D01*
X103128000Y-73461231D01*
X103128000Y-72413145D01*
X103194657Y-72451630D01*
X103315465Y-72484000D01*
X103440535Y-72484000D01*
X103561343Y-72451630D01*
X103628000Y-72413145D01*
X103628000Y-73461230D01*
X103694126Y-73450757D01*
X103694129Y-73450757D01*
X103896217Y-73385095D01*
X104085557Y-73288620D01*
X104257459Y-73163727D01*
X104257464Y-73163723D01*
X104407723Y-73013464D01*
X104407727Y-73013459D01*
X104532620Y-72841557D01*
X104629095Y-72652217D01*
X104694757Y-72450130D01*
X104694757Y-72450127D01*
X104725030Y-72259000D01*
X103782146Y-72259000D01*
X103820630Y-72192343D01*
X103853000Y-72071535D01*
X103853000Y-71946465D01*
X103820630Y-71825657D01*
X103782146Y-71759000D01*
X104725030Y-71759000D01*
X104694757Y-71567872D01*
X104694757Y-71567869D01*
X104629095Y-71365782D01*
X104532620Y-71176442D01*
X104407727Y-71004540D01*
X104407723Y-71004535D01*
X104257464Y-70854276D01*
X104257459Y-70854272D01*
X104085557Y-70729379D01*
X103896215Y-70632903D01*
X103694124Y-70567241D01*
X103628000Y-70556768D01*
X103628000Y-71604854D01*
X103561343Y-71566370D01*
X103440535Y-71534000D01*
X103315465Y-71534000D01*
X103194657Y-71566370D01*
X103128000Y-71604854D01*
X103128000Y-70556768D01*
X103127999Y-70556768D01*
X103061875Y-70567241D01*
X102859784Y-70632903D01*
X102670442Y-70729379D01*
X102498540Y-70854272D01*
X102498535Y-70854276D01*
X102348276Y-71004535D01*
X102348272Y-71004540D01*
X102228627Y-71169218D01*
X102173297Y-71211884D01*
X102103684Y-71217863D01*
X102041889Y-71185257D01*
X102027991Y-71169218D01*
X101908109Y-71004214D01*
X101908105Y-71004209D01*
X101757786Y-70853890D01*
X101585820Y-70728951D01*
X101396414Y-70632444D01*
X101396413Y-70632443D01*
X101396412Y-70632443D01*
X101194243Y-70566754D01*
X101194241Y-70566753D01*
X101194240Y-70566753D01*
X101014719Y-70538320D01*
X100984287Y-70533500D01*
X100771713Y-70533500D01*
X100741281Y-70538320D01*
X100561760Y-70566753D01*
X100359585Y-70632444D01*
X100170179Y-70728951D01*
X99998215Y-70853889D01*
X99859398Y-70992706D01*
X99798075Y-71026190D01*
X99728383Y-71021206D01*
X99672450Y-70979334D01*
X99666178Y-70970120D01*
X99570712Y-70815344D01*
X99446657Y-70691289D01*
X99446656Y-70691288D01*
X99301812Y-70601948D01*
X99297336Y-70599187D01*
X99297331Y-70599185D01*
X99295862Y-70598698D01*
X99130797Y-70544001D01*
X99130795Y-70544000D01*
X99028010Y-70533500D01*
X97727998Y-70533500D01*
X97727981Y-70533501D01*
X97625203Y-70544000D01*
X97625200Y-70544001D01*
X97458668Y-70599185D01*
X97458663Y-70599187D01*
X97309342Y-70691289D01*
X97185289Y-70815342D01*
X97093187Y-70964663D01*
X97093185Y-70964668D01*
X97083894Y-70992706D01*
X97038001Y-71131203D01*
X97038001Y-71131204D01*
X97038000Y-71131204D01*
X97027500Y-71233983D01*
X88576500Y-71233983D01*
X88576500Y-65321895D01*
X88596185Y-65254856D01*
X88648989Y-65209101D01*
X88718147Y-65199157D01*
X88732574Y-65202116D01*
X88933932Y-65256070D01*
X89080743Y-65268914D01*
X89153998Y-65275323D01*
X89154000Y-65275323D01*
X89154002Y-65275323D01*
X89184502Y-65272654D01*
X89374068Y-65256070D01*
X89375916Y-65255575D01*
X89384253Y-65253340D01*
X89445903Y-65236821D01*
X89515752Y-65238482D01*
X89565678Y-65268913D01*
X89847284Y-65550520D01*
X89900065Y-65580993D01*
X89984211Y-65629575D01*
X89984212Y-65629575D01*
X89984215Y-65629577D01*
X90136943Y-65670501D01*
X90136946Y-65670501D01*
X90302654Y-65670501D01*
X90302670Y-65670500D01*
X94228331Y-65670500D01*
X94228347Y-65670501D01*
X94235943Y-65670501D01*
X94394054Y-65670501D01*
X94394057Y-65670501D01*
X94546785Y-65629577D01*
X94596904Y-65600639D01*
X94683716Y-65550520D01*
X94795520Y-65438716D01*
X94795520Y-65438714D01*
X94805728Y-65428507D01*
X94805730Y-65428504D01*
X95646251Y-64587983D01*
X97027500Y-64587983D01*
X97027500Y-66188001D01*
X97027501Y-66188018D01*
X97038000Y-66290796D01*
X97038001Y-66290799D01*
X97093185Y-66457331D01*
X97093187Y-66457336D01*
X97094580Y-66459594D01*
X97185288Y-66606656D01*
X97309344Y-66730712D01*
X97458666Y-66822814D01*
X97625203Y-66877999D01*
X97727991Y-66888500D01*
X99028008Y-66888499D01*
X99130797Y-66877999D01*
X99297334Y-66822814D01*
X99446656Y-66730712D01*
X99570712Y-66606656D01*
X99662814Y-66457334D01*
X99662814Y-66457331D01*
X99666448Y-66451441D01*
X99718395Y-66404716D01*
X99787358Y-66393493D01*
X99851440Y-66421336D01*
X99859668Y-66428856D01*
X99998535Y-66567723D01*
X99998540Y-66567727D01*
X100170442Y-66692620D01*
X100359782Y-66789095D01*
X100561871Y-66854757D01*
X100628000Y-66865231D01*
X100628000Y-65821012D01*
X100685007Y-65853925D01*
X100812174Y-65888000D01*
X100943826Y-65888000D01*
X101070993Y-65853925D01*
X101128000Y-65821012D01*
X101128000Y-66865230D01*
X101194126Y-66854757D01*
X101194129Y-66854757D01*
X101396217Y-66789095D01*
X101585557Y-66692620D01*
X101757459Y-66567727D01*
X101757464Y-66567723D01*
X101907723Y-66417464D01*
X101907727Y-66417459D01*
X102032620Y-66245557D01*
X102129095Y-66056217D01*
X102194757Y-65854130D01*
X102194757Y-65854127D01*
X102228000Y-65644246D01*
X102228000Y-65638000D01*
X101311012Y-65638000D01*
X101343925Y-65580993D01*
X101378000Y-65453826D01*
X101378000Y-65322174D01*
X101343925Y-65195007D01*
X101311012Y-65138000D01*
X102228000Y-65138000D01*
X102228000Y-65131753D01*
X102194757Y-64921872D01*
X102194757Y-64921869D01*
X102129095Y-64719782D01*
X102032620Y-64530442D01*
X101907727Y-64358540D01*
X101907723Y-64358535D01*
X101757464Y-64208276D01*
X101757459Y-64208272D01*
X101585557Y-64083379D01*
X101396217Y-63986904D01*
X101194128Y-63921242D01*
X101002741Y-63890929D01*
X100939606Y-63861000D01*
X100902675Y-63801688D01*
X100903673Y-63731826D01*
X100934455Y-63680779D01*
X101716716Y-62898519D01*
X101778039Y-62865034D01*
X101804397Y-62862200D01*
X104253611Y-62862200D01*
X104253627Y-62862201D01*
X104261223Y-62862201D01*
X104419334Y-62862201D01*
X104419337Y-62862201D01*
X104572065Y-62821277D01*
X104629539Y-62788094D01*
X104708996Y-62742220D01*
X104820800Y-62630416D01*
X104820800Y-62630414D01*
X104831004Y-62620211D01*
X104831007Y-62620206D01*
X105180979Y-62270234D01*
X105242301Y-62236751D01*
X105311993Y-62241735D01*
X105324953Y-62247431D01*
X105342855Y-62256553D01*
X105507599Y-62310082D01*
X105678689Y-62337180D01*
X105678690Y-62337180D01*
X105851910Y-62337180D01*
X105851911Y-62337180D01*
X106023001Y-62310082D01*
X106187745Y-62256553D01*
X106342088Y-62177912D01*
X106482228Y-62076094D01*
X106604714Y-61953608D01*
X106706532Y-61813468D01*
X106785173Y-61659125D01*
X106838702Y-61494381D01*
X106865800Y-61323291D01*
X106865800Y-60350069D01*
X106838702Y-60178979D01*
X106785173Y-60014235D01*
X106706532Y-59859892D01*
X106604714Y-59719752D01*
X106482228Y-59597266D01*
X106342088Y-59495448D01*
X106278552Y-59463075D01*
X106187747Y-59416808D01*
X106187746Y-59416807D01*
X106187745Y-59416807D01*
X106023001Y-59363278D01*
X106022999Y-59363277D01*
X106022998Y-59363277D01*
X105878157Y-59340337D01*
X105851911Y-59336180D01*
X105678689Y-59336180D01*
X105652443Y-59340337D01*
X105507602Y-59363277D01*
X105507599Y-59363278D01*
X105355357Y-59412745D01*
X105342852Y-59416808D01*
X105188511Y-59495448D01*
X105127815Y-59539547D01*
X105048372Y-59597266D01*
X105048370Y-59597268D01*
X105048369Y-59597268D01*
X104925888Y-59719749D01*
X104925888Y-59719750D01*
X104925886Y-59719752D01*
X104892060Y-59766310D01*
X104824068Y-59859891D01*
X104745428Y-60014232D01*
X104691897Y-60178982D01*
X104664800Y-60350069D01*
X104664800Y-61036582D01*
X104645115Y-61103621D01*
X104628481Y-61124263D01*
X104537481Y-61215263D01*
X104476158Y-61248748D01*
X104406466Y-61243764D01*
X104350533Y-61201892D01*
X104326116Y-61136428D01*
X104325800Y-61127582D01*
X104325800Y-60350069D01*
X104314326Y-60277626D01*
X104298702Y-60178979D01*
X104245173Y-60014235D01*
X104166532Y-59859892D01*
X104064714Y-59719752D01*
X103942228Y-59597266D01*
X103802088Y-59495448D01*
X103738552Y-59463075D01*
X103647747Y-59416808D01*
X103647746Y-59416807D01*
X103647745Y-59416807D01*
X103483001Y-59363278D01*
X103482999Y-59363277D01*
X103482998Y-59363277D01*
X103338157Y-59340337D01*
X103311911Y-59336180D01*
X103138689Y-59336180D01*
X103112443Y-59340337D01*
X102967602Y-59363277D01*
X102967599Y-59363278D01*
X102815357Y-59412745D01*
X102802852Y-59416808D01*
X102648511Y-59495448D01*
X102587815Y-59539547D01*
X102508372Y-59597266D01*
X102508370Y-59597268D01*
X102508369Y-59597268D01*
X102385888Y-59719749D01*
X102385888Y-59719750D01*
X102385886Y-59719752D01*
X102352060Y-59766310D01*
X102284068Y-59859891D01*
X102205428Y-60014232D01*
X102151897Y-60178982D01*
X102124800Y-60350069D01*
X102124800Y-61323290D01*
X102151897Y-61494378D01*
X102151898Y-61494381D01*
X102153360Y-61498880D01*
X102155357Y-61568721D01*
X102119277Y-61628554D01*
X102056577Y-61659383D01*
X102035430Y-61661200D01*
X101875170Y-61661200D01*
X101808131Y-61641515D01*
X101762376Y-61588711D01*
X101752432Y-61519553D01*
X101757240Y-61498880D01*
X101758702Y-61494381D01*
X101785800Y-61323291D01*
X101785800Y-60350069D01*
X101758702Y-60178979D01*
X101705173Y-60014235D01*
X101626532Y-59859892D01*
X101524714Y-59719752D01*
X101402228Y-59597266D01*
X101262088Y-59495448D01*
X101198552Y-59463075D01*
X101107747Y-59416808D01*
X101107746Y-59416807D01*
X101107745Y-59416807D01*
X100943001Y-59363278D01*
X100942999Y-59363277D01*
X100942998Y-59363277D01*
X100798157Y-59340337D01*
X100771911Y-59336180D01*
X100598689Y-59336180D01*
X100572443Y-59340337D01*
X100427602Y-59363277D01*
X100427599Y-59363278D01*
X100275357Y-59412745D01*
X100262852Y-59416808D01*
X100108511Y-59495448D01*
X100047815Y-59539547D01*
X99968372Y-59597266D01*
X99968370Y-59597268D01*
X99968369Y-59597268D01*
X99845888Y-59719749D01*
X99845888Y-59719750D01*
X99845886Y-59719752D01*
X99812060Y-59766310D01*
X99744068Y-59859891D01*
X99665428Y-60014232D01*
X99611897Y-60178982D01*
X99584800Y-60350069D01*
X99584800Y-61323290D01*
X99611897Y-61494377D01*
X99611897Y-61494379D01*
X99611898Y-61494381D01*
X99665427Y-61659125D01*
X99744068Y-61813468D01*
X99845886Y-61953608D01*
X99968372Y-62076094D01*
X100108512Y-62177912D01*
X100262855Y-62256553D01*
X100370320Y-62291470D01*
X100427994Y-62330908D01*
X100455192Y-62395267D01*
X100443277Y-62464113D01*
X100419681Y-62497082D01*
X99065582Y-63851181D01*
X99004259Y-63884666D01*
X98977901Y-63887500D01*
X97727998Y-63887500D01*
X97727981Y-63887501D01*
X97625203Y-63898000D01*
X97625200Y-63898001D01*
X97458668Y-63953185D01*
X97458663Y-63953187D01*
X97309342Y-64045289D01*
X97185289Y-64169342D01*
X97093187Y-64318663D01*
X97093185Y-64318668D01*
X97078483Y-64363036D01*
X97038001Y-64485203D01*
X97038001Y-64485204D01*
X97038000Y-64485204D01*
X97027500Y-64587983D01*
X95646251Y-64587983D01*
X97233806Y-63000428D01*
X97233811Y-63000424D01*
X97244014Y-62990220D01*
X97244016Y-62990220D01*
X97355820Y-62878416D01*
X97407967Y-62788094D01*
X97407969Y-62788092D01*
X97434874Y-62741490D01*
X97434876Y-62741487D01*
X97434959Y-62741179D01*
X97475801Y-62588757D01*
X97475801Y-62430643D01*
X97475801Y-62423048D01*
X97475800Y-62423030D01*
X97475800Y-62333022D01*
X97495485Y-62265983D01*
X97548289Y-62220228D01*
X97617447Y-62210284D01*
X97656093Y-62222536D01*
X97722855Y-62256553D01*
X97887599Y-62310082D01*
X98058689Y-62337180D01*
X98058690Y-62337180D01*
X98231910Y-62337180D01*
X98231911Y-62337180D01*
X98403001Y-62310082D01*
X98567745Y-62256553D01*
X98722088Y-62177912D01*
X98862228Y-62076094D01*
X98984714Y-61953608D01*
X99086532Y-61813468D01*
X99165173Y-61659125D01*
X99218702Y-61494381D01*
X99245800Y-61323291D01*
X99245800Y-60350069D01*
X99218702Y-60178979D01*
X99165173Y-60014235D01*
X99086532Y-59859892D01*
X98984714Y-59719752D01*
X98862228Y-59597266D01*
X98722088Y-59495448D01*
X98658552Y-59463075D01*
X98567747Y-59416808D01*
X98567746Y-59416807D01*
X98567745Y-59416807D01*
X98403001Y-59363278D01*
X98402999Y-59363277D01*
X98402998Y-59363277D01*
X98258157Y-59340337D01*
X98231911Y-59336180D01*
X98058689Y-59336180D01*
X98032443Y-59340337D01*
X97887602Y-59363277D01*
X97887599Y-59363278D01*
X97735357Y-59412745D01*
X97722849Y-59416809D01*
X97656094Y-59450822D01*
X97587425Y-59463718D01*
X97522684Y-59437441D01*
X97482428Y-59380334D01*
X97475800Y-59340337D01*
X97475800Y-43511797D01*
X97495485Y-43444758D01*
X97512119Y-43424116D01*
X99261927Y-41674308D01*
X101165820Y-39770416D01*
X101244877Y-39633484D01*
X101285801Y-39480757D01*
X101285801Y-39363864D01*
X101305486Y-39296825D01*
X101336916Y-39263546D01*
X101346297Y-39256730D01*
X101402228Y-39216094D01*
X101524714Y-39093608D01*
X101626532Y-38953468D01*
X101705173Y-38799125D01*
X101758702Y-38634381D01*
X101785800Y-38463291D01*
X101785800Y-37490069D01*
X101758702Y-37318979D01*
X101705173Y-37154235D01*
X101678962Y-37102794D01*
X101666067Y-37034126D01*
X101692343Y-36969385D01*
X101749450Y-36929128D01*
X101789448Y-36922500D01*
X102121152Y-36922500D01*
X102188191Y-36942185D01*
X102233946Y-36994989D01*
X102243890Y-37064147D01*
X102231637Y-37102795D01*
X102205428Y-37154232D01*
X102151897Y-37318982D01*
X102124800Y-37490069D01*
X102124800Y-38463290D01*
X102151314Y-38630697D01*
X102151898Y-38634381D01*
X102205427Y-38799125D01*
X102284068Y-38953468D01*
X102385886Y-39093608D01*
X102508372Y-39216094D01*
X102648512Y-39317912D01*
X102802855Y-39396553D01*
X102967599Y-39450082D01*
X103138689Y-39477180D01*
X103138690Y-39477180D01*
X103311910Y-39477180D01*
X103311911Y-39477180D01*
X103483001Y-39450082D01*
X103647745Y-39396553D01*
X103802088Y-39317912D01*
X103942228Y-39216094D01*
X104064714Y-39093608D01*
X104166532Y-38953468D01*
X104245173Y-38799125D01*
X104298702Y-38634381D01*
X104325800Y-38463291D01*
X104325800Y-37490069D01*
X104298702Y-37318979D01*
X104245173Y-37154235D01*
X104218962Y-37102794D01*
X104206067Y-37034126D01*
X104232343Y-36969385D01*
X104289450Y-36929128D01*
X104329448Y-36922500D01*
X104661152Y-36922500D01*
X104728191Y-36942185D01*
X104773946Y-36994989D01*
X104783890Y-37064147D01*
X104771637Y-37102795D01*
X104745428Y-37154232D01*
X104691897Y-37318982D01*
X104664800Y-37490069D01*
X104664800Y-38463290D01*
X104691314Y-38630697D01*
X104691898Y-38634381D01*
X104745427Y-38799125D01*
X104824068Y-38953468D01*
X104925886Y-39093608D01*
X105048372Y-39216094D01*
X105188512Y-39317912D01*
X105342855Y-39396553D01*
X105507599Y-39450082D01*
X105678689Y-39477180D01*
X105678690Y-39477180D01*
X105851910Y-39477180D01*
X105851911Y-39477180D01*
X106023001Y-39450082D01*
X106187745Y-39396553D01*
X106342088Y-39317912D01*
X106482228Y-39216094D01*
X106604714Y-39093608D01*
X106706532Y-38953468D01*
X106785173Y-38799125D01*
X106838702Y-38634381D01*
X106865800Y-38463291D01*
X106865800Y-37490069D01*
X106838702Y-37318979D01*
X106785173Y-37154235D01*
X106758962Y-37102794D01*
X106746067Y-37034126D01*
X106772343Y-36969385D01*
X106829450Y-36929128D01*
X106869448Y-36922500D01*
X107201152Y-36922500D01*
X107268191Y-36942185D01*
X107313946Y-36994989D01*
X107323890Y-37064147D01*
X107311637Y-37102795D01*
X107285428Y-37154232D01*
X107231897Y-37318982D01*
X107204800Y-37490069D01*
X107204800Y-38463290D01*
X107231314Y-38630697D01*
X107231898Y-38634381D01*
X107285427Y-38799125D01*
X107364068Y-38953468D01*
X107465886Y-39093608D01*
X107588372Y-39216094D01*
X107728512Y-39317912D01*
X107882855Y-39396553D01*
X108047599Y-39450082D01*
X108218689Y-39477180D01*
X108218690Y-39477180D01*
X108391910Y-39477180D01*
X108391911Y-39477180D01*
X108563001Y-39450082D01*
X108727745Y-39396553D01*
X108882088Y-39317912D01*
X109022228Y-39216094D01*
X109144714Y-39093608D01*
X109246532Y-38953468D01*
X109325173Y-38799125D01*
X109378702Y-38634381D01*
X109405800Y-38463291D01*
X109405800Y-37809097D01*
X109425485Y-37742058D01*
X109478289Y-37696303D01*
X109547447Y-37686359D01*
X109611003Y-37715384D01*
X109617481Y-37721416D01*
X109708481Y-37812416D01*
X109741966Y-37873739D01*
X109744800Y-37900097D01*
X109744800Y-38463290D01*
X109771314Y-38630697D01*
X109771898Y-38634381D01*
X109825427Y-38799125D01*
X109904068Y-38953468D01*
X110005886Y-39093608D01*
X110128372Y-39216094D01*
X110268512Y-39317912D01*
X110422855Y-39396553D01*
X110587599Y-39450082D01*
X110758689Y-39477180D01*
X110758690Y-39477180D01*
X110931910Y-39477180D01*
X110931911Y-39477180D01*
X111103001Y-39450082D01*
X111267745Y-39396553D01*
X111422088Y-39317912D01*
X111562228Y-39216094D01*
X111684714Y-39093608D01*
X111786532Y-38953468D01*
X111865173Y-38799125D01*
X111918702Y-38634381D01*
X111945800Y-38463291D01*
X111945800Y-37490069D01*
X112284800Y-37490069D01*
X112284800Y-38463290D01*
X112311314Y-38630697D01*
X112311898Y-38634381D01*
X112365427Y-38799125D01*
X112444068Y-38953468D01*
X112545886Y-39093608D01*
X112668372Y-39216094D01*
X112808512Y-39317912D01*
X112962855Y-39396553D01*
X113127599Y-39450082D01*
X113298689Y-39477180D01*
X113298690Y-39477180D01*
X113471910Y-39477180D01*
X113471911Y-39477180D01*
X113643001Y-39450082D01*
X113807745Y-39396553D01*
X113962088Y-39317912D01*
X114102228Y-39216094D01*
X114224714Y-39093608D01*
X114326532Y-38953468D01*
X114405173Y-38799125D01*
X114458702Y-38634381D01*
X114485800Y-38463291D01*
X114485800Y-37490069D01*
X114824800Y-37490069D01*
X114824800Y-38463290D01*
X114851314Y-38630697D01*
X114851898Y-38634381D01*
X114905427Y-38799125D01*
X114984068Y-38953468D01*
X115085886Y-39093608D01*
X115208372Y-39216094D01*
X115348512Y-39317912D01*
X115502855Y-39396553D01*
X115667599Y-39450082D01*
X115838689Y-39477180D01*
X115838690Y-39477180D01*
X116011910Y-39477180D01*
X116011911Y-39477180D01*
X116183001Y-39450082D01*
X116347745Y-39396553D01*
X116502088Y-39317912D01*
X116642228Y-39216094D01*
X116764714Y-39093608D01*
X116866532Y-38953468D01*
X116945173Y-38799125D01*
X116998702Y-38634381D01*
X117025800Y-38463291D01*
X117025800Y-37490069D01*
X117364800Y-37490069D01*
X117364800Y-38463290D01*
X117391314Y-38630697D01*
X117391898Y-38634381D01*
X117445427Y-38799125D01*
X117524068Y-38953468D01*
X117625886Y-39093608D01*
X117748372Y-39216094D01*
X117888512Y-39317912D01*
X118042855Y-39396553D01*
X118207599Y-39450082D01*
X118378689Y-39477180D01*
X118378690Y-39477180D01*
X118551910Y-39477180D01*
X118551911Y-39477180D01*
X118723001Y-39450082D01*
X118887745Y-39396553D01*
X119042088Y-39317912D01*
X119182228Y-39216094D01*
X119304714Y-39093608D01*
X119406532Y-38953468D01*
X119485173Y-38799125D01*
X119538702Y-38634381D01*
X119565800Y-38463291D01*
X119565800Y-37490069D01*
X119538702Y-37318979D01*
X119485173Y-37154235D01*
X119406532Y-36999892D01*
X119304714Y-36859752D01*
X119182228Y-36737266D01*
X119042088Y-36635448D01*
X118887745Y-36556807D01*
X118723001Y-36503278D01*
X118722999Y-36503277D01*
X118722998Y-36503277D01*
X118591571Y-36482461D01*
X118551911Y-36476180D01*
X118378689Y-36476180D01*
X118339028Y-36482461D01*
X118207602Y-36503277D01*
X118042852Y-36556808D01*
X117888511Y-36635448D01*
X117810675Y-36692000D01*
X117748372Y-36737266D01*
X117748370Y-36737268D01*
X117748369Y-36737268D01*
X117625888Y-36859749D01*
X117625888Y-36859750D01*
X117625886Y-36859752D01*
X117619025Y-36869196D01*
X117524068Y-36999891D01*
X117445428Y-37154232D01*
X117391897Y-37318982D01*
X117364800Y-37490069D01*
X117025800Y-37490069D01*
X116998702Y-37318979D01*
X116945173Y-37154235D01*
X116866532Y-36999892D01*
X116764714Y-36859752D01*
X116642228Y-36737266D01*
X116502088Y-36635448D01*
X116347745Y-36556807D01*
X116183001Y-36503278D01*
X116182999Y-36503277D01*
X116182998Y-36503277D01*
X116051571Y-36482461D01*
X116011911Y-36476180D01*
X115838689Y-36476180D01*
X115799028Y-36482461D01*
X115667602Y-36503277D01*
X115502852Y-36556808D01*
X115348511Y-36635448D01*
X115270675Y-36692000D01*
X115208372Y-36737266D01*
X115208370Y-36737268D01*
X115208369Y-36737268D01*
X115085888Y-36859749D01*
X115085888Y-36859750D01*
X115085886Y-36859752D01*
X115079025Y-36869196D01*
X114984068Y-36999891D01*
X114905428Y-37154232D01*
X114851897Y-37318982D01*
X114824800Y-37490069D01*
X114485800Y-37490069D01*
X114458702Y-37318979D01*
X114405173Y-37154235D01*
X114326532Y-36999892D01*
X114224714Y-36859752D01*
X114102228Y-36737266D01*
X113962088Y-36635448D01*
X113807745Y-36556807D01*
X113643001Y-36503278D01*
X113642999Y-36503277D01*
X113642998Y-36503277D01*
X113511571Y-36482461D01*
X113471911Y-36476180D01*
X113298689Y-36476180D01*
X113259028Y-36482461D01*
X113127602Y-36503277D01*
X112962852Y-36556808D01*
X112808511Y-36635448D01*
X112730675Y-36692000D01*
X112668372Y-36737266D01*
X112668370Y-36737268D01*
X112668369Y-36737268D01*
X112545888Y-36859749D01*
X112545888Y-36859750D01*
X112545886Y-36859752D01*
X112539025Y-36869196D01*
X112444068Y-36999891D01*
X112365428Y-37154232D01*
X112311897Y-37318982D01*
X112284800Y-37490069D01*
X111945800Y-37490069D01*
X111918702Y-37318979D01*
X111865173Y-37154235D01*
X111786532Y-36999892D01*
X111684714Y-36859752D01*
X111562228Y-36737266D01*
X111422088Y-36635448D01*
X111267745Y-36556807D01*
X111103001Y-36503278D01*
X111102999Y-36503277D01*
X111102998Y-36503277D01*
X110971571Y-36482461D01*
X110931911Y-36476180D01*
X110758689Y-36476180D01*
X110719028Y-36482461D01*
X110587602Y-36503277D01*
X110422852Y-36556808D01*
X110368015Y-36584749D01*
X110323259Y-36607553D01*
X110254591Y-36620449D01*
X110189850Y-36594173D01*
X110179284Y-36584749D01*
X109554890Y-35960355D01*
X109554888Y-35960352D01*
X109436017Y-35841481D01*
X109436009Y-35841475D01*
X109317686Y-35773162D01*
X109317686Y-35773161D01*
X109317681Y-35773160D01*
X109311192Y-35769413D01*
X109299086Y-35762423D01*
X109260903Y-35752192D01*
X109146357Y-35721499D01*
X108988243Y-35721499D01*
X108980647Y-35721499D01*
X108980631Y-35721500D01*
X81581940Y-35721500D01*
X81541019Y-35732464D01*
X81541019Y-35732465D01*
X81505431Y-35742001D01*
X81429214Y-35762423D01*
X81429209Y-35762426D01*
X81292290Y-35841475D01*
X81292282Y-35841481D01*
X78640481Y-38493282D01*
X78640479Y-38493285D01*
X78590361Y-38580094D01*
X78590359Y-38580096D01*
X78561425Y-38630209D01*
X78561424Y-38630210D01*
X78545544Y-38689472D01*
X78520499Y-38782943D01*
X78520499Y-38782945D01*
X78520499Y-38951046D01*
X78520500Y-38951059D01*
X78520500Y-46626330D01*
X78520499Y-46626348D01*
X78520499Y-46792054D01*
X78520498Y-46792054D01*
X78561423Y-46944786D01*
X78574865Y-46968066D01*
X78574866Y-46968071D01*
X78574868Y-46968071D01*
X78621897Y-47049529D01*
X78640479Y-47081714D01*
X78640481Y-47081717D01*
X78759349Y-47200585D01*
X78759355Y-47200590D01*
X79489493Y-47930728D01*
X79522978Y-47992051D01*
X79523821Y-48034488D01*
X79524402Y-48034539D01*
X79504677Y-48259997D01*
X79504677Y-48260002D01*
X79523929Y-48480062D01*
X79523930Y-48480070D01*
X79581104Y-48693445D01*
X79581105Y-48693447D01*
X79581106Y-48693450D01*
X79638092Y-48815657D01*
X79674466Y-48893662D01*
X79674468Y-48893666D01*
X79801170Y-49074615D01*
X79801175Y-49074621D01*
X79957378Y-49230824D01*
X79957384Y-49230829D01*
X80138333Y-49357531D01*
X80138335Y-49357532D01*
X80138338Y-49357534D01*
X80257748Y-49413215D01*
X80267189Y-49417618D01*
X80319628Y-49463790D01*
X80338780Y-49530984D01*
X80318564Y-49597865D01*
X80267189Y-49642382D01*
X80138340Y-49702465D01*
X80138338Y-49702466D01*
X79957377Y-49829175D01*
X79801175Y-49985377D01*
X79674466Y-50166338D01*
X79674465Y-50166340D01*
X79581107Y-50366548D01*
X79581104Y-50366554D01*
X79523930Y-50579929D01*
X79523929Y-50579937D01*
X79504677Y-50799997D01*
X79504677Y-50800002D01*
X79523929Y-51020062D01*
X79523930Y-51020070D01*
X79581104Y-51233445D01*
X79581105Y-51233447D01*
X79581106Y-51233450D01*
X79623286Y-51323906D01*
X79674466Y-51433662D01*
X79674468Y-51433666D01*
X79801170Y-51614615D01*
X79801175Y-51614621D01*
X79957378Y-51770824D01*
X79957384Y-51770829D01*
X80138333Y-51897531D01*
X80138335Y-51897532D01*
X80138338Y-51897534D01*
X80257748Y-51953215D01*
X80267189Y-51957618D01*
X80319628Y-52003790D01*
X80338780Y-52070984D01*
X80318564Y-52137865D01*
X80267189Y-52182382D01*
X80138340Y-52242465D01*
X80138338Y-52242466D01*
X79957377Y-52369175D01*
X79801175Y-52525377D01*
X79674466Y-52706338D01*
X79674465Y-52706340D01*
X79581107Y-52906548D01*
X79581104Y-52906554D01*
X79523930Y-53119929D01*
X79523929Y-53119937D01*
X79504677Y-53339997D01*
X79504677Y-53340002D01*
X79523929Y-53560062D01*
X79523930Y-53560070D01*
X79581104Y-53773445D01*
X79581105Y-53773447D01*
X79581106Y-53773450D01*
X79636386Y-53891999D01*
X79674466Y-53973662D01*
X79674468Y-53973666D01*
X79801170Y-54154615D01*
X79801175Y-54154621D01*
X79957378Y-54310824D01*
X79957384Y-54310829D01*
X80138333Y-54437531D01*
X80138335Y-54437532D01*
X80138338Y-54437534D01*
X80267189Y-54497618D01*
X80267781Y-54497894D01*
X80320220Y-54544066D01*
X80339372Y-54611260D01*
X80319156Y-54678141D01*
X80267781Y-54722658D01*
X80138590Y-54782901D01*
X80073811Y-54828258D01*
X80744553Y-55499000D01*
X80721840Y-55499000D01*
X80624939Y-55524964D01*
X80538060Y-55575124D01*
X80467124Y-55646060D01*
X80416964Y-55732939D01*
X80391000Y-55829840D01*
X80391000Y-55852552D01*
X79720258Y-55181811D01*
X79674901Y-55246590D01*
X79581579Y-55446720D01*
X79581575Y-55446729D01*
X79524426Y-55660013D01*
X79524424Y-55660023D01*
X79505179Y-55879999D01*
X79505179Y-55880000D01*
X79524424Y-56099976D01*
X79524426Y-56099986D01*
X79581575Y-56313270D01*
X79581580Y-56313284D01*
X79674898Y-56513405D01*
X79674901Y-56513411D01*
X79720258Y-56578187D01*
X79720259Y-56578188D01*
X80391000Y-55907447D01*
X80391000Y-55930160D01*
X80416964Y-56027061D01*
X80467124Y-56113940D01*
X80538060Y-56184876D01*
X80624939Y-56235036D01*
X80721840Y-56261000D01*
X80744553Y-56261000D01*
X80073811Y-56931739D01*
X80074074Y-56931924D01*
X80117700Y-56986501D01*
X80124894Y-57055999D01*
X80093372Y-57118354D01*
X80033143Y-57153769D01*
X80002955Y-57157500D01*
X79962131Y-57157500D01*
X79962123Y-57157501D01*
X79902516Y-57163908D01*
X79767671Y-57214202D01*
X79767664Y-57214206D01*
X79652455Y-57300452D01*
X79652452Y-57300455D01*
X79566206Y-57415664D01*
X79566202Y-57415671D01*
X79515908Y-57550517D01*
X79510010Y-57605380D01*
X79509501Y-57610123D01*
X79509500Y-57610135D01*
X79509500Y-59229870D01*
X79509501Y-59229876D01*
X79515908Y-59289483D01*
X79566202Y-59424328D01*
X79566206Y-59424335D01*
X79652452Y-59539544D01*
X79652455Y-59539547D01*
X79767664Y-59625793D01*
X79767671Y-59625797D01*
X79902517Y-59676091D01*
X79902516Y-59676091D01*
X79909444Y-59676835D01*
X79962127Y-59682500D01*
X81581872Y-59682499D01*
X81641483Y-59676091D01*
X81776331Y-59625796D01*
X81891546Y-59539546D01*
X81977796Y-59424331D01*
X82028091Y-59289483D01*
X82034500Y-59229873D01*
X82034499Y-57610128D01*
X82028091Y-57550517D01*
X81977796Y-57415669D01*
X81977795Y-57415668D01*
X81977793Y-57415664D01*
X81891547Y-57300455D01*
X81891544Y-57300452D01*
X81776335Y-57214206D01*
X81776328Y-57214202D01*
X81641482Y-57163908D01*
X81641483Y-57163908D01*
X81581883Y-57157501D01*
X81581881Y-57157500D01*
X81581873Y-57157500D01*
X81581865Y-57157500D01*
X81541048Y-57157500D01*
X81474009Y-57137815D01*
X81428254Y-57085011D01*
X81418310Y-57015853D01*
X81447335Y-56952297D01*
X81469925Y-56931925D01*
X81470187Y-56931740D01*
X80799448Y-56261000D01*
X80822160Y-56261000D01*
X80919061Y-56235036D01*
X81005940Y-56184876D01*
X81076876Y-56113940D01*
X81127036Y-56027061D01*
X81153000Y-55930160D01*
X81153000Y-55907447D01*
X81823741Y-56578188D01*
X81869094Y-56513417D01*
X81869100Y-56513407D01*
X81962419Y-56313284D01*
X81962424Y-56313270D01*
X82019573Y-56099986D01*
X82019575Y-56099976D01*
X82038821Y-55880000D01*
X82038821Y-55879999D01*
X82019575Y-55660023D01*
X82019573Y-55660013D01*
X81962424Y-55446729D01*
X81962420Y-55446720D01*
X81869096Y-55246586D01*
X81823741Y-55181811D01*
X81823740Y-55181810D01*
X81153000Y-55852551D01*
X81153000Y-55829840D01*
X81127036Y-55732939D01*
X81076876Y-55646060D01*
X81005940Y-55575124D01*
X80919061Y-55524964D01*
X80822160Y-55499000D01*
X80799448Y-55499000D01*
X81470188Y-54828259D01*
X81470187Y-54828258D01*
X81405411Y-54782901D01*
X81405405Y-54782898D01*
X81276219Y-54722658D01*
X81223779Y-54676486D01*
X81204627Y-54609293D01*
X81224843Y-54542411D01*
X81276219Y-54497894D01*
X81276811Y-54497618D01*
X81405662Y-54437534D01*
X81586620Y-54310826D01*
X81742826Y-54154620D01*
X81869534Y-53973662D01*
X81962894Y-53773450D01*
X82020070Y-53560068D01*
X82039323Y-53340000D01*
X82020070Y-53119932D01*
X81962894Y-52906550D01*
X81869534Y-52706339D01*
X81758601Y-52547909D01*
X81742827Y-52525381D01*
X81742823Y-52525377D01*
X81586620Y-52369174D01*
X81586616Y-52369171D01*
X81586615Y-52369170D01*
X81405666Y-52242468D01*
X81405658Y-52242464D01*
X81276811Y-52182382D01*
X81224371Y-52136210D01*
X81205219Y-52069017D01*
X81225435Y-52002135D01*
X81276811Y-51957618D01*
X81282802Y-51954824D01*
X81405662Y-51897534D01*
X81586620Y-51770826D01*
X81742826Y-51614620D01*
X81869534Y-51433662D01*
X81962894Y-51233450D01*
X82020070Y-51020068D01*
X82039323Y-50800000D01*
X82038551Y-50791179D01*
X82031652Y-50712318D01*
X82020070Y-50579932D01*
X81962894Y-50366550D01*
X81869534Y-50166339D01*
X81773175Y-50028723D01*
X81742827Y-49985381D01*
X81742823Y-49985377D01*
X81586620Y-49829174D01*
X81586616Y-49829171D01*
X81586615Y-49829170D01*
X81405666Y-49702468D01*
X81405658Y-49702464D01*
X81276811Y-49642382D01*
X81224371Y-49596210D01*
X81205219Y-49529017D01*
X81225435Y-49462135D01*
X81276811Y-49417618D01*
X81282802Y-49414824D01*
X81405662Y-49357534D01*
X81586620Y-49230826D01*
X81742826Y-49074620D01*
X81869534Y-48893662D01*
X81962894Y-48693450D01*
X82020070Y-48480068D01*
X82039323Y-48260000D01*
X82020070Y-48039932D01*
X81962894Y-47826550D01*
X81869534Y-47626339D01*
X81742826Y-47445380D01*
X81586620Y-47289174D01*
X81586616Y-47289171D01*
X81586615Y-47289170D01*
X81405666Y-47162468D01*
X81405658Y-47162464D01*
X81276811Y-47102382D01*
X81224371Y-47056210D01*
X81205219Y-46989017D01*
X81225435Y-46922135D01*
X81276811Y-46877618D01*
X81282802Y-46874824D01*
X81405662Y-46817534D01*
X81586620Y-46690826D01*
X81742826Y-46534620D01*
X81869534Y-46353662D01*
X81962894Y-46153450D01*
X82020070Y-45940068D01*
X82039323Y-45720000D01*
X82020070Y-45499932D01*
X81962894Y-45286550D01*
X81869534Y-45086339D01*
X81742826Y-44905380D01*
X81586620Y-44749174D01*
X81586616Y-44749171D01*
X81586615Y-44749170D01*
X81405666Y-44622468D01*
X81405658Y-44622464D01*
X81276811Y-44562382D01*
X81224371Y-44516210D01*
X81205219Y-44449017D01*
X81225435Y-44382135D01*
X81276811Y-44337618D01*
X81282802Y-44334824D01*
X81405662Y-44277534D01*
X81586620Y-44150826D01*
X81742826Y-43994620D01*
X81869534Y-43813662D01*
X81962894Y-43613450D01*
X82020070Y-43400068D01*
X82024780Y-43346228D01*
X82050230Y-43281163D01*
X82106820Y-43240183D01*
X82176582Y-43236304D01*
X82235988Y-43269356D01*
X85928481Y-46961848D01*
X85961966Y-47023171D01*
X85964800Y-47049529D01*
X85964800Y-59278195D01*
X85945115Y-59345234D01*
X85892311Y-59390989D01*
X85823153Y-59400933D01*
X85802483Y-59396126D01*
X85702898Y-59363769D01*
X85702881Y-59363765D01*
X85695300Y-59362564D01*
X85695300Y-60520994D01*
X85690906Y-60516600D01*
X85599694Y-60463939D01*
X85497961Y-60436680D01*
X85392639Y-60436680D01*
X85290906Y-60463939D01*
X85199694Y-60516600D01*
X85195300Y-60520994D01*
X85195300Y-59362564D01*
X85195299Y-59362564D01*
X85187718Y-59363765D01*
X85187710Y-59363767D01*
X85023042Y-59417271D01*
X84868775Y-59495875D01*
X84728697Y-59597647D01*
X84606267Y-59720077D01*
X84504495Y-59860155D01*
X84425891Y-60014422D01*
X84372385Y-60179095D01*
X84345300Y-60350108D01*
X84345300Y-60586680D01*
X85129614Y-60586680D01*
X85125220Y-60591074D01*
X85072559Y-60682286D01*
X85045300Y-60784019D01*
X85045300Y-60889341D01*
X85072559Y-60991074D01*
X85125220Y-61082286D01*
X85129614Y-61086680D01*
X84345300Y-61086680D01*
X84345300Y-61323251D01*
X84372385Y-61494264D01*
X84425891Y-61658937D01*
X84504495Y-61813204D01*
X84606267Y-61953282D01*
X84728697Y-62075712D01*
X84868775Y-62177484D01*
X85023044Y-62256088D01*
X85187715Y-62309594D01*
X85187714Y-62309594D01*
X85195299Y-62310795D01*
X85195300Y-62310794D01*
X85195300Y-61152366D01*
X85199694Y-61156760D01*
X85290906Y-61209421D01*
X85392639Y-61236680D01*
X85497961Y-61236680D01*
X85599694Y-61209421D01*
X85690906Y-61156760D01*
X85695300Y-61152366D01*
X85695300Y-62310795D01*
X85702885Y-62309594D01*
X85707621Y-62308457D01*
X85707980Y-62309955D01*
X85771011Y-62308149D01*
X85830847Y-62344223D01*
X85861682Y-62406921D01*
X85863500Y-62428078D01*
X85863500Y-62927726D01*
X85843815Y-62994765D01*
X85810625Y-63029299D01*
X85799389Y-63037166D01*
X85799382Y-63037172D01*
X85643172Y-63193381D01*
X85516467Y-63374337D01*
X85456105Y-63503782D01*
X85409932Y-63556221D01*
X85342738Y-63575372D01*
X85275857Y-63555156D01*
X85231341Y-63503780D01*
X85171098Y-63374589D01*
X85171097Y-63374587D01*
X85125741Y-63309811D01*
X85125740Y-63309810D01*
X84455000Y-63980551D01*
X84455000Y-63957840D01*
X84429036Y-63860939D01*
X84378876Y-63774060D01*
X84307940Y-63703124D01*
X84221061Y-63652964D01*
X84124160Y-63627000D01*
X84101448Y-63627000D01*
X84772188Y-62956259D01*
X84772187Y-62956258D01*
X84707411Y-62910901D01*
X84707405Y-62910898D01*
X84507284Y-62817580D01*
X84507270Y-62817575D01*
X84293986Y-62760426D01*
X84293976Y-62760424D01*
X84074001Y-62741179D01*
X84073999Y-62741179D01*
X83854023Y-62760424D01*
X83854013Y-62760426D01*
X83640729Y-62817575D01*
X83640720Y-62817579D01*
X83440590Y-62910901D01*
X83375811Y-62956258D01*
X84046553Y-63627000D01*
X84023840Y-63627000D01*
X83926939Y-63652964D01*
X83840060Y-63703124D01*
X83769124Y-63774060D01*
X83718964Y-63860939D01*
X83693000Y-63957840D01*
X83693000Y-63980553D01*
X83022258Y-63309811D01*
X82976901Y-63374590D01*
X82916658Y-63503781D01*
X82870485Y-63556220D01*
X82803292Y-63575372D01*
X82736411Y-63555156D01*
X82691894Y-63503781D01*
X82663618Y-63443143D01*
X82631534Y-63374339D01*
X82536483Y-63238591D01*
X82504827Y-63193381D01*
X82431758Y-63120312D01*
X82348620Y-63037174D01*
X82348616Y-63037171D01*
X82348615Y-63037170D01*
X82167666Y-62910468D01*
X82167662Y-62910466D01*
X82167660Y-62910465D01*
X81967450Y-62817106D01*
X81967447Y-62817105D01*
X81967445Y-62817104D01*
X81754070Y-62759930D01*
X81754062Y-62759929D01*
X81534002Y-62740677D01*
X81533998Y-62740677D01*
X81313937Y-62759929D01*
X81313929Y-62759930D01*
X81100554Y-62817104D01*
X81100550Y-62817106D01*
X81091605Y-62821277D01*
X80900340Y-62910465D01*
X80900338Y-62910466D01*
X80719377Y-63037175D01*
X80563175Y-63193377D01*
X80436466Y-63374338D01*
X80436465Y-63374340D01*
X80376382Y-63503189D01*
X80330209Y-63555628D01*
X80263016Y-63574780D01*
X80196135Y-63554564D01*
X80151618Y-63503189D01*
X80123618Y-63443143D01*
X80091534Y-63374339D01*
X79996483Y-63238591D01*
X79964827Y-63193381D01*
X79891758Y-63120312D01*
X79808620Y-63037174D01*
X79808616Y-63037171D01*
X79808615Y-63037170D01*
X79627666Y-62910468D01*
X79627662Y-62910466D01*
X79627660Y-62910465D01*
X79427450Y-62817106D01*
X79427447Y-62817105D01*
X79427445Y-62817104D01*
X79214070Y-62759930D01*
X79214062Y-62759929D01*
X78994002Y-62740677D01*
X78993998Y-62740677D01*
X78773937Y-62759929D01*
X78773929Y-62759930D01*
X78560554Y-62817104D01*
X78560550Y-62817106D01*
X78551605Y-62821277D01*
X78360340Y-62910465D01*
X78360338Y-62910466D01*
X78179377Y-63037175D01*
X78023175Y-63193377D01*
X77896466Y-63374338D01*
X77896465Y-63374340D01*
X77803107Y-63574548D01*
X77803104Y-63574554D01*
X77745930Y-63787929D01*
X77745929Y-63787937D01*
X77726677Y-64007997D01*
X77726677Y-64008002D01*
X77745929Y-64228062D01*
X77745930Y-64228070D01*
X77803104Y-64441445D01*
X77803105Y-64441447D01*
X77803106Y-64441450D01*
X77871435Y-64587983D01*
X77896466Y-64641662D01*
X77896468Y-64641666D01*
X78023170Y-64822615D01*
X78023175Y-64822621D01*
X78179378Y-64978824D01*
X78179384Y-64978829D01*
X78360333Y-65105531D01*
X78360335Y-65105532D01*
X78360338Y-65105534D01*
X78560550Y-65198894D01*
X78773932Y-65256070D01*
X78920743Y-65268914D01*
X78993998Y-65275323D01*
X78994000Y-65275323D01*
X78994002Y-65275323D01*
X79049017Y-65270509D01*
X79214068Y-65256070D01*
X79427450Y-65198894D01*
X79627662Y-65105534D01*
X79808620Y-64978826D01*
X79964826Y-64822620D01*
X80091534Y-64641662D01*
X80151618Y-64512811D01*
X80197790Y-64460371D01*
X80264983Y-64441219D01*
X80331865Y-64461435D01*
X80376382Y-64512811D01*
X80436464Y-64641658D01*
X80436468Y-64641666D01*
X80563170Y-64822615D01*
X80563175Y-64822621D01*
X80719378Y-64978824D01*
X80719384Y-64978829D01*
X80900333Y-65105531D01*
X80900335Y-65105532D01*
X80900338Y-65105534D01*
X81100550Y-65198894D01*
X81313932Y-65256070D01*
X81460743Y-65268914D01*
X81533998Y-65275323D01*
X81534000Y-65275323D01*
X81534002Y-65275323D01*
X81589017Y-65270509D01*
X81754068Y-65256070D01*
X81967450Y-65198894D01*
X82167662Y-65105534D01*
X82348620Y-64978826D01*
X82504826Y-64822620D01*
X82631534Y-64641662D01*
X82691894Y-64512218D01*
X82738066Y-64459779D01*
X82805259Y-64440627D01*
X82872141Y-64460843D01*
X82916658Y-64512219D01*
X82976898Y-64641405D01*
X82976901Y-64641411D01*
X83022258Y-64706187D01*
X83022259Y-64706188D01*
X83693000Y-64035447D01*
X83693000Y-64058160D01*
X83718964Y-64155061D01*
X83769124Y-64241940D01*
X83840060Y-64312876D01*
X83926939Y-64363036D01*
X84023840Y-64389000D01*
X84046553Y-64389000D01*
X83375810Y-65059740D01*
X83440590Y-65105099D01*
X83440592Y-65105100D01*
X83640715Y-65198419D01*
X83640729Y-65198424D01*
X83854013Y-65255573D01*
X83854023Y-65255575D01*
X84073999Y-65274821D01*
X84074001Y-65274821D01*
X84293976Y-65255575D01*
X84293986Y-65255573D01*
X84507270Y-65198424D01*
X84507284Y-65198419D01*
X84707407Y-65105100D01*
X84707417Y-65105094D01*
X84772188Y-65059741D01*
X84101448Y-64389000D01*
X84124160Y-64389000D01*
X84221061Y-64363036D01*
X84307940Y-64312876D01*
X84378876Y-64241940D01*
X84429036Y-64155061D01*
X84455000Y-64058160D01*
X84455000Y-64035447D01*
X85125741Y-64706188D01*
X85171094Y-64641417D01*
X85171095Y-64641416D01*
X85231340Y-64512219D01*
X85277512Y-64459780D01*
X85344706Y-64440627D01*
X85411587Y-64460842D01*
X85456105Y-64512218D01*
X85516466Y-64641662D01*
X85516468Y-64641666D01*
X85643170Y-64822615D01*
X85643175Y-64822621D01*
X85799378Y-64978824D01*
X85799384Y-64978829D01*
X85980333Y-65105531D01*
X85980335Y-65105532D01*
X85980338Y-65105534D01*
X86180550Y-65198894D01*
X86393932Y-65256070D01*
X86540743Y-65268914D01*
X86613998Y-65275323D01*
X86614000Y-65275323D01*
X86614002Y-65275323D01*
X86669017Y-65270509D01*
X86834068Y-65256070D01*
X86919407Y-65233203D01*
X86989255Y-65234864D01*
X87047118Y-65274026D01*
X87074623Y-65338254D01*
X87075500Y-65352977D01*
X87075500Y-72593769D01*
X87055815Y-72660808D01*
X87039181Y-72681450D01*
X86844272Y-72876358D01*
X86782949Y-72909843D01*
X86745785Y-72912205D01*
X86614003Y-72900677D01*
X86613998Y-72900677D01*
X86393937Y-72919929D01*
X86393929Y-72919930D01*
X86180554Y-72977104D01*
X86180548Y-72977107D01*
X85980340Y-73070465D01*
X85980338Y-73070466D01*
X85799377Y-73197175D01*
X85643175Y-73353377D01*
X85516467Y-73534337D01*
X85456105Y-73663782D01*
X85409932Y-73716221D01*
X85342738Y-73735372D01*
X85275857Y-73715156D01*
X85231341Y-73663780D01*
X85171098Y-73534589D01*
X85171097Y-73534587D01*
X85125741Y-73469811D01*
X85125740Y-73469810D01*
X84455000Y-74140550D01*
X84455000Y-74117840D01*
X84429036Y-74020939D01*
X84378876Y-73934060D01*
X84307940Y-73863124D01*
X84221061Y-73812964D01*
X84124160Y-73787000D01*
X84101448Y-73787000D01*
X84772188Y-73116259D01*
X84772187Y-73116258D01*
X84707411Y-73070901D01*
X84707405Y-73070898D01*
X84507284Y-72977580D01*
X84507270Y-72977575D01*
X84293986Y-72920426D01*
X84293976Y-72920424D01*
X84074001Y-72901179D01*
X84073999Y-72901179D01*
X83854023Y-72920424D01*
X83854013Y-72920426D01*
X83640729Y-72977575D01*
X83640720Y-72977579D01*
X83440590Y-73070901D01*
X83375811Y-73116258D01*
X84046553Y-73787000D01*
X84023840Y-73787000D01*
X83926939Y-73812964D01*
X83840060Y-73863124D01*
X83769124Y-73934060D01*
X83718964Y-74020939D01*
X83693000Y-74117840D01*
X83693000Y-74140553D01*
X83022258Y-73469811D01*
X82976901Y-73534590D01*
X82916658Y-73663781D01*
X82870485Y-73716220D01*
X82803292Y-73735372D01*
X82736411Y-73715156D01*
X82691894Y-73663781D01*
X82654579Y-73583759D01*
X82631534Y-73534339D01*
X82547489Y-73414309D01*
X82504827Y-73353381D01*
X82427329Y-73275883D01*
X82348620Y-73197174D01*
X82348616Y-73197171D01*
X82348615Y-73197170D01*
X82167666Y-73070468D01*
X82167662Y-73070466D01*
X82096127Y-73037109D01*
X81967450Y-72977106D01*
X81967447Y-72977105D01*
X81967445Y-72977104D01*
X81754070Y-72919930D01*
X81754062Y-72919929D01*
X81534002Y-72900677D01*
X81533998Y-72900677D01*
X81313937Y-72919929D01*
X81313929Y-72919930D01*
X81100554Y-72977104D01*
X81100548Y-72977107D01*
X80900340Y-73070465D01*
X80900338Y-73070466D01*
X80719377Y-73197175D01*
X80563175Y-73353377D01*
X80436466Y-73534338D01*
X80436465Y-73534340D01*
X80376382Y-73663189D01*
X80330209Y-73715628D01*
X80263016Y-73734780D01*
X80196135Y-73714564D01*
X80151618Y-73663189D01*
X80091651Y-73534590D01*
X80091534Y-73534339D01*
X80007489Y-73414309D01*
X79964827Y-73353381D01*
X79887329Y-73275883D01*
X79808620Y-73197174D01*
X79808616Y-73197171D01*
X79808615Y-73197170D01*
X79627666Y-73070468D01*
X79627662Y-73070466D01*
X79556127Y-73037109D01*
X79427450Y-72977106D01*
X79427447Y-72977105D01*
X79427445Y-72977104D01*
X79214070Y-72919930D01*
X79214062Y-72919929D01*
X78994002Y-72900677D01*
X78993998Y-72900677D01*
X78773937Y-72919929D01*
X78773929Y-72919930D01*
X78560554Y-72977104D01*
X78560548Y-72977107D01*
X78360340Y-73070465D01*
X78360338Y-73070466D01*
X78179377Y-73197175D01*
X78023175Y-73353377D01*
X77896466Y-73534338D01*
X77896465Y-73534340D01*
X77803107Y-73734548D01*
X77803104Y-73734554D01*
X77745930Y-73947929D01*
X77745929Y-73947937D01*
X77726677Y-74167997D01*
X77726677Y-74168002D01*
X77745929Y-74388062D01*
X77745930Y-74388070D01*
X77803104Y-74601445D01*
X77803105Y-74601447D01*
X77803106Y-74601450D01*
X77896466Y-74801662D01*
X78003398Y-74954377D01*
X78025725Y-75020583D01*
X78008715Y-75088350D01*
X77957767Y-75136163D01*
X77901823Y-75149500D01*
X53461500Y-75149500D01*
X53394461Y-75129815D01*
X53348706Y-75077011D01*
X53337500Y-75025500D01*
X53337500Y-73512684D01*
X53357185Y-73445645D01*
X53409989Y-73399890D01*
X53479147Y-73389946D01*
X53536987Y-73414309D01*
X53548989Y-73423519D01*
X53759006Y-73544772D01*
X53759021Y-73544779D01*
X53983060Y-73637578D01*
X54217312Y-73700346D01*
X54457735Y-73731998D01*
X54457752Y-73732000D01*
X54829000Y-73732000D01*
X54829000Y-72749904D01*
X54990358Y-72782000D01*
X55167642Y-72782000D01*
X55329000Y-72749904D01*
X55329000Y-73732000D01*
X55700248Y-73732000D01*
X55700264Y-73731998D01*
X55940687Y-73700346D01*
X56174939Y-73637578D01*
X56398978Y-73544779D01*
X56398993Y-73544772D01*
X56609009Y-73423519D01*
X56801405Y-73275889D01*
X56801412Y-73275883D01*
X56972883Y-73104412D01*
X56972889Y-73104405D01*
X57120519Y-72912009D01*
X57241772Y-72701993D01*
X57241779Y-72701978D01*
X57334578Y-72477939D01*
X57397346Y-72243687D01*
X57412050Y-72132000D01*
X55946904Y-72132000D01*
X55979000Y-71970642D01*
X55979000Y-71793358D01*
X55946904Y-71632000D01*
X57412049Y-71632000D01*
X57397346Y-71520312D01*
X57334578Y-71286060D01*
X57241779Y-71062021D01*
X57241772Y-71062006D01*
X57120519Y-70851990D01*
X56972889Y-70659594D01*
X56972883Y-70659587D01*
X56801412Y-70488116D01*
X56801405Y-70488110D01*
X56609009Y-70340480D01*
X56398993Y-70219227D01*
X56398978Y-70219220D01*
X56174939Y-70126421D01*
X55940687Y-70063653D01*
X55700264Y-70032001D01*
X55700248Y-70032000D01*
X55329000Y-70032000D01*
X55329000Y-71014095D01*
X55167642Y-70982000D01*
X54990358Y-70982000D01*
X54829000Y-71014095D01*
X54829000Y-70032000D01*
X54457752Y-70032000D01*
X54457735Y-70032001D01*
X54217312Y-70063653D01*
X53983060Y-70126421D01*
X53759021Y-70219220D01*
X53759006Y-70219227D01*
X53548988Y-70340481D01*
X53536983Y-70349693D01*
X53471813Y-70374885D01*
X53403369Y-70360845D01*
X53353381Y-70312029D01*
X53337500Y-70251315D01*
X53337500Y-69312684D01*
X53357185Y-69245645D01*
X53409989Y-69199890D01*
X53479147Y-69189946D01*
X53536987Y-69214309D01*
X53548989Y-69223519D01*
X53759006Y-69344772D01*
X53759021Y-69344779D01*
X53983060Y-69437578D01*
X54217312Y-69500346D01*
X54457735Y-69531998D01*
X54457752Y-69532000D01*
X54829000Y-69532000D01*
X54829000Y-68549904D01*
X54990358Y-68582000D01*
X55167642Y-68582000D01*
X55329000Y-68549904D01*
X55329000Y-69532000D01*
X55700248Y-69532000D01*
X55700264Y-69531998D01*
X55940687Y-69500346D01*
X56174939Y-69437578D01*
X56398978Y-69344779D01*
X56398993Y-69344772D01*
X56609009Y-69223519D01*
X56801405Y-69075889D01*
X56801412Y-69075883D01*
X56972883Y-68904412D01*
X56972889Y-68904405D01*
X57120519Y-68712009D01*
X57241772Y-68501993D01*
X57241779Y-68501978D01*
X57334578Y-68277939D01*
X57397346Y-68043687D01*
X57401913Y-68009000D01*
X58980709Y-68009000D01*
X58999851Y-68288862D01*
X58999852Y-68288864D01*
X59056921Y-68563499D01*
X59056926Y-68563516D01*
X59150863Y-68827828D01*
X59150864Y-68827830D01*
X59279919Y-69076896D01*
X59441688Y-69306069D01*
X59441692Y-69306073D01*
X59441692Y-69306074D01*
X59477840Y-69344779D01*
X59633155Y-69511081D01*
X59850754Y-69688111D01*
X59850756Y-69688112D01*
X59850757Y-69688113D01*
X60090433Y-69833863D01*
X60285581Y-69918627D01*
X60347725Y-69945620D01*
X60617839Y-70021303D01*
X60862159Y-70054884D01*
X60895741Y-70059500D01*
X60895742Y-70059500D01*
X61176259Y-70059500D01*
X61206219Y-70055381D01*
X61454161Y-70021303D01*
X61724275Y-69945620D01*
X61981568Y-69833862D01*
X62221246Y-69688111D01*
X62438845Y-69511081D01*
X62630312Y-69306069D01*
X62792081Y-69076896D01*
X62921136Y-68827830D01*
X63015075Y-68563511D01*
X63015076Y-68563504D01*
X63015078Y-68563499D01*
X63046845Y-68410626D01*
X63072148Y-68288862D01*
X63091291Y-68009000D01*
X63072148Y-67729138D01*
X63046845Y-67607374D01*
X63015078Y-67454500D01*
X63015073Y-67454483D01*
X62964731Y-67312834D01*
X62921136Y-67190170D01*
X62792081Y-66941104D01*
X62630312Y-66711931D01*
X62630307Y-66711925D01*
X62438845Y-66506919D01*
X62229372Y-66336500D01*
X62221246Y-66329889D01*
X62221244Y-66329888D01*
X62221242Y-66329886D01*
X61981566Y-66184136D01*
X61724276Y-66072380D01*
X61454166Y-65996698D01*
X61454162Y-65996697D01*
X61454161Y-65996697D01*
X61315209Y-65977598D01*
X61176259Y-65958500D01*
X61176258Y-65958500D01*
X60895742Y-65958500D01*
X60895741Y-65958500D01*
X60617839Y-65996697D01*
X60617833Y-65996698D01*
X60347723Y-66072380D01*
X60090433Y-66184136D01*
X59850757Y-66329886D01*
X59633154Y-66506919D01*
X59441692Y-66711925D01*
X59441692Y-66711926D01*
X59441689Y-66711928D01*
X59441688Y-66711931D01*
X59392228Y-66782000D01*
X59279919Y-66941103D01*
X59150863Y-67190171D01*
X59056926Y-67454483D01*
X59056921Y-67454500D01*
X58999852Y-67729135D01*
X58999851Y-67729137D01*
X58980709Y-68009000D01*
X57401913Y-68009000D01*
X57412050Y-67932000D01*
X55946904Y-67932000D01*
X55979000Y-67770642D01*
X55979000Y-67593358D01*
X55946904Y-67432000D01*
X57412049Y-67432000D01*
X57397346Y-67320312D01*
X57334578Y-67086060D01*
X57241779Y-66862021D01*
X57241772Y-66862006D01*
X57120519Y-66651990D01*
X56972889Y-66459594D01*
X56972883Y-66459587D01*
X56801412Y-66288116D01*
X56801405Y-66288110D01*
X56609009Y-66140480D01*
X56398993Y-66019227D01*
X56398978Y-66019220D01*
X56174939Y-65926421D01*
X55940687Y-65863653D01*
X55700264Y-65832001D01*
X55700248Y-65832000D01*
X55329000Y-65832000D01*
X55329000Y-66814095D01*
X55167642Y-66782000D01*
X54990358Y-66782000D01*
X54829000Y-66814095D01*
X54829000Y-65832000D01*
X54457752Y-65832000D01*
X54457735Y-65832001D01*
X54217312Y-65863653D01*
X53983060Y-65926421D01*
X53759021Y-66019220D01*
X53759006Y-66019227D01*
X53548988Y-66140481D01*
X53536983Y-66149693D01*
X53471813Y-66174885D01*
X53403369Y-66160845D01*
X53353381Y-66112029D01*
X53337500Y-66051315D01*
X53337500Y-65112684D01*
X53357185Y-65045645D01*
X53409989Y-64999890D01*
X53479147Y-64989946D01*
X53536987Y-65014309D01*
X53548989Y-65023519D01*
X53759006Y-65144772D01*
X53759021Y-65144779D01*
X53983060Y-65237578D01*
X54217312Y-65300346D01*
X54457735Y-65331998D01*
X54457752Y-65332000D01*
X54829000Y-65332000D01*
X54829000Y-64349904D01*
X54990358Y-64382000D01*
X55167642Y-64382000D01*
X55329000Y-64349904D01*
X55329000Y-65332000D01*
X55700248Y-65332000D01*
X55700264Y-65331998D01*
X55940687Y-65300346D01*
X56174939Y-65237578D01*
X56398978Y-65144779D01*
X56398993Y-65144772D01*
X56609009Y-65023519D01*
X56801405Y-64875889D01*
X56801412Y-64875883D01*
X56972883Y-64704412D01*
X56972889Y-64704405D01*
X57120519Y-64512009D01*
X57241772Y-64301993D01*
X57241779Y-64301978D01*
X57334578Y-64077939D01*
X57397346Y-63843687D01*
X57412050Y-63732000D01*
X55946904Y-63732000D01*
X55979000Y-63570642D01*
X55979000Y-63393358D01*
X55946904Y-63232000D01*
X57412049Y-63232000D01*
X57397346Y-63120312D01*
X57334578Y-62886060D01*
X57241779Y-62662021D01*
X57241772Y-62662006D01*
X57120519Y-62451990D01*
X56972889Y-62259594D01*
X56972883Y-62259587D01*
X56801412Y-62088116D01*
X56801405Y-62088110D01*
X56609009Y-61940480D01*
X56398993Y-61819227D01*
X56398978Y-61819220D01*
X56174939Y-61726421D01*
X55940687Y-61663653D01*
X55700264Y-61632001D01*
X55700248Y-61632000D01*
X55329000Y-61632000D01*
X55329000Y-62614095D01*
X55167642Y-62582000D01*
X54990358Y-62582000D01*
X54829000Y-62614095D01*
X54829000Y-61632000D01*
X54457752Y-61632000D01*
X54457735Y-61632001D01*
X54217312Y-61663653D01*
X53983060Y-61726421D01*
X53759021Y-61819220D01*
X53759011Y-61819225D01*
X53703298Y-61851391D01*
X53635398Y-61867862D01*
X53569371Y-61845010D01*
X53526181Y-61790088D01*
X53519540Y-61720535D01*
X53530386Y-61688557D01*
X54795042Y-59159247D01*
X54834886Y-59049322D01*
X54847977Y-58993868D01*
X54861500Y-58877727D01*
X54861500Y-51392713D01*
X55496500Y-51392713D01*
X55496500Y-51605287D01*
X55500004Y-51627408D01*
X55522718Y-51770824D01*
X55529754Y-51815243D01*
X55590479Y-52002135D01*
X55595444Y-52017414D01*
X55691951Y-52206820D01*
X55816890Y-52378786D01*
X55967209Y-52529105D01*
X55967214Y-52529109D01*
X56131793Y-52648682D01*
X56174459Y-52704011D01*
X56180438Y-52773625D01*
X56147833Y-52835420D01*
X56131793Y-52849318D01*
X55967214Y-52968890D01*
X55967209Y-52968894D01*
X55816890Y-53119213D01*
X55691951Y-53291179D01*
X55595444Y-53480585D01*
X55529753Y-53682760D01*
X55515389Y-53773451D01*
X55496500Y-53892713D01*
X55496500Y-54105287D01*
X55529754Y-54315243D01*
X55593574Y-54511661D01*
X55595444Y-54517414D01*
X55691951Y-54706820D01*
X55816890Y-54878786D01*
X55955705Y-55017601D01*
X55989190Y-55078924D01*
X55984206Y-55148616D01*
X55942334Y-55204549D01*
X55933121Y-55210821D01*
X55778342Y-55306289D01*
X55654289Y-55430342D01*
X55562187Y-55579663D01*
X55562185Y-55579668D01*
X55540403Y-55645403D01*
X55507001Y-55746203D01*
X55507001Y-55746204D01*
X55507000Y-55746204D01*
X55496500Y-55848983D01*
X55496500Y-57149001D01*
X55496502Y-57149017D01*
X55507000Y-57251796D01*
X55507001Y-57251799D01*
X55562185Y-57418331D01*
X55562187Y-57418336D01*
X55566575Y-57425450D01*
X55654288Y-57567656D01*
X55778344Y-57691712D01*
X55927666Y-57783814D01*
X56094203Y-57838999D01*
X56196991Y-57849500D01*
X57747008Y-57849499D01*
X57849797Y-57838999D01*
X58016334Y-57783814D01*
X58165656Y-57691712D01*
X58289712Y-57567656D01*
X58381814Y-57418334D01*
X58436999Y-57251797D01*
X58447500Y-57149009D01*
X58447499Y-55848992D01*
X58440636Y-55781812D01*
X58436999Y-55746203D01*
X58436998Y-55746200D01*
X58420246Y-55695645D01*
X58381814Y-55579666D01*
X58289712Y-55430344D01*
X58165656Y-55306288D01*
X58016334Y-55214186D01*
X58016333Y-55214185D01*
X58010878Y-55210821D01*
X57964154Y-55158873D01*
X57952931Y-55089910D01*
X57980775Y-55025828D01*
X57988272Y-55017623D01*
X58127104Y-54878792D01*
X58252051Y-54706816D01*
X58348557Y-54517412D01*
X58414246Y-54315243D01*
X58447500Y-54105287D01*
X58447500Y-53892713D01*
X58414246Y-53682757D01*
X58348557Y-53480588D01*
X58252051Y-53291184D01*
X58252049Y-53291181D01*
X58252048Y-53291179D01*
X58127109Y-53119213D01*
X58046890Y-53038994D01*
X63229556Y-53038994D01*
X63229556Y-53039005D01*
X63249310Y-53353004D01*
X63249311Y-53353011D01*
X63249312Y-53353015D01*
X63304987Y-53644876D01*
X63308270Y-53662083D01*
X63405497Y-53961316D01*
X63405499Y-53961321D01*
X63539461Y-54246003D01*
X63539464Y-54246009D01*
X63708051Y-54511661D01*
X63708054Y-54511665D01*
X63908606Y-54754090D01*
X63908608Y-54754092D01*
X63908610Y-54754094D01*
X64041400Y-54878792D01*
X64137968Y-54969476D01*
X64137978Y-54969484D01*
X64392504Y-55154408D01*
X64392509Y-55154410D01*
X64392516Y-55154416D01*
X64668234Y-55305994D01*
X64668239Y-55305996D01*
X64668241Y-55305997D01*
X64668242Y-55305998D01*
X64904927Y-55399708D01*
X64960013Y-55442689D01*
X64983116Y-55508628D01*
X64966903Y-55576591D01*
X64916519Y-55624998D01*
X64859280Y-55639000D01*
X63787155Y-55639000D01*
X63727627Y-55645401D01*
X63727620Y-55645403D01*
X63592913Y-55695645D01*
X63592906Y-55695649D01*
X63477812Y-55781809D01*
X63477809Y-55781812D01*
X63391649Y-55896906D01*
X63391645Y-55896913D01*
X63341403Y-56031620D01*
X63341401Y-56031627D01*
X63335000Y-56091155D01*
X63335000Y-57789000D01*
X64407769Y-57789000D01*
X64385000Y-57932753D01*
X64385000Y-58145247D01*
X64407769Y-58289000D01*
X63335000Y-58289000D01*
X63335000Y-59986844D01*
X63341401Y-60046372D01*
X63341403Y-60046379D01*
X63391645Y-60181086D01*
X63391649Y-60181093D01*
X63477809Y-60296187D01*
X63477812Y-60296190D01*
X63592906Y-60382350D01*
X63592913Y-60382354D01*
X63727620Y-60432596D01*
X63727627Y-60432598D01*
X63787155Y-60438999D01*
X63787172Y-60439000D01*
X65485000Y-60439000D01*
X65485000Y-59366231D01*
X65628753Y-59389000D01*
X65841247Y-59389000D01*
X65985000Y-59366231D01*
X65985000Y-60439000D01*
X67682828Y-60439000D01*
X67682844Y-60438999D01*
X67742372Y-60432598D01*
X67742379Y-60432596D01*
X67877086Y-60382354D01*
X67877093Y-60382350D01*
X67920162Y-60350108D01*
X81805300Y-60350108D01*
X81805300Y-60586680D01*
X82589614Y-60586680D01*
X82585220Y-60591074D01*
X82532559Y-60682286D01*
X82505300Y-60784019D01*
X82505300Y-60889341D01*
X82532559Y-60991074D01*
X82585220Y-61082286D01*
X82589614Y-61086680D01*
X81805300Y-61086680D01*
X81805300Y-61323251D01*
X81832385Y-61494264D01*
X81885891Y-61658937D01*
X81964495Y-61813204D01*
X82066267Y-61953282D01*
X82188697Y-62075712D01*
X82328775Y-62177484D01*
X82483044Y-62256088D01*
X82647715Y-62309594D01*
X82647714Y-62309594D01*
X82655299Y-62310795D01*
X82655300Y-62310794D01*
X82655300Y-61152366D01*
X82659694Y-61156760D01*
X82750906Y-61209421D01*
X82852639Y-61236680D01*
X82957961Y-61236680D01*
X83059694Y-61209421D01*
X83150906Y-61156760D01*
X83155300Y-61152366D01*
X83155300Y-62310795D01*
X83162884Y-62309594D01*
X83327555Y-62256088D01*
X83481824Y-62177484D01*
X83621902Y-62075712D01*
X83744332Y-61953282D01*
X83846104Y-61813204D01*
X83924708Y-61658937D01*
X83978214Y-61494264D01*
X84005300Y-61323251D01*
X84005300Y-61086680D01*
X83220986Y-61086680D01*
X83225380Y-61082286D01*
X83278041Y-60991074D01*
X83305300Y-60889341D01*
X83305300Y-60784019D01*
X83278041Y-60682286D01*
X83225380Y-60591074D01*
X83220986Y-60586680D01*
X84005300Y-60586680D01*
X84005300Y-60350108D01*
X83978214Y-60179095D01*
X83924708Y-60014422D01*
X83846104Y-59860155D01*
X83744332Y-59720077D01*
X83621902Y-59597647D01*
X83481824Y-59495875D01*
X83327557Y-59417271D01*
X83162889Y-59363767D01*
X83162881Y-59363765D01*
X83155300Y-59362564D01*
X83155300Y-60520994D01*
X83150906Y-60516600D01*
X83059694Y-60463939D01*
X82957961Y-60436680D01*
X82852639Y-60436680D01*
X82750906Y-60463939D01*
X82659694Y-60516600D01*
X82655300Y-60520994D01*
X82655300Y-59362564D01*
X82655299Y-59362564D01*
X82647718Y-59363765D01*
X82647710Y-59363767D01*
X82483042Y-59417271D01*
X82328775Y-59495875D01*
X82188697Y-59597647D01*
X82066267Y-59720077D01*
X81964495Y-59860155D01*
X81885891Y-60014422D01*
X81832385Y-60179095D01*
X81805300Y-60350108D01*
X67920162Y-60350108D01*
X67992187Y-60296190D01*
X67992190Y-60296187D01*
X68078350Y-60181093D01*
X68078354Y-60181086D01*
X68128596Y-60046379D01*
X68128598Y-60046372D01*
X68134999Y-59986844D01*
X68135000Y-59986827D01*
X68135000Y-58289000D01*
X67062231Y-58289000D01*
X67085000Y-58145247D01*
X67085000Y-57932753D01*
X67062231Y-57789000D01*
X68135000Y-57789000D01*
X68135000Y-56091172D01*
X68134999Y-56091155D01*
X68128598Y-56031627D01*
X68128596Y-56031620D01*
X68078354Y-55896913D01*
X68078350Y-55896906D01*
X67992190Y-55781812D01*
X67992187Y-55781809D01*
X67877093Y-55695649D01*
X67877086Y-55695645D01*
X67742379Y-55645403D01*
X67742372Y-55645401D01*
X67682844Y-55639000D01*
X66610720Y-55639000D01*
X66543681Y-55619315D01*
X66497926Y-55566511D01*
X66487982Y-55497353D01*
X66517007Y-55433797D01*
X66565073Y-55399708D01*
X66801757Y-55305998D01*
X66801758Y-55305997D01*
X66801756Y-55305997D01*
X66801766Y-55305994D01*
X67077484Y-55154416D01*
X67332030Y-54969478D01*
X67561390Y-54754094D01*
X67761947Y-54511663D01*
X67930537Y-54246007D01*
X68064503Y-53961315D01*
X68161731Y-53662079D01*
X68220688Y-53353015D01*
X68220689Y-53353004D01*
X68240444Y-53039005D01*
X68240444Y-53038994D01*
X68220689Y-52724995D01*
X68220688Y-52724988D01*
X68220688Y-52724985D01*
X68161731Y-52415921D01*
X68064503Y-52116685D01*
X68043794Y-52072677D01*
X67930538Y-51831996D01*
X67930537Y-51831993D01*
X67792589Y-51614621D01*
X67761948Y-51566338D01*
X67761945Y-51566334D01*
X67561393Y-51323909D01*
X67561391Y-51323907D01*
X67332031Y-51108523D01*
X67332021Y-51108515D01*
X67077495Y-50923591D01*
X67077488Y-50923586D01*
X67077484Y-50923584D01*
X66801766Y-50772006D01*
X66801763Y-50772004D01*
X66801758Y-50772002D01*
X66801757Y-50772001D01*
X66509228Y-50656181D01*
X66509225Y-50656180D01*
X66204476Y-50577934D01*
X66204463Y-50577932D01*
X65892329Y-50538500D01*
X65892318Y-50538500D01*
X65577682Y-50538500D01*
X65577670Y-50538500D01*
X65265536Y-50577932D01*
X65265523Y-50577934D01*
X64960774Y-50656180D01*
X64960771Y-50656181D01*
X64668242Y-50772001D01*
X64668241Y-50772002D01*
X64392516Y-50923584D01*
X64392504Y-50923591D01*
X64137978Y-51108515D01*
X64137968Y-51108523D01*
X63908608Y-51323907D01*
X63908606Y-51323909D01*
X63708054Y-51566334D01*
X63708051Y-51566338D01*
X63539464Y-51831990D01*
X63539461Y-51831996D01*
X63405499Y-52116678D01*
X63405497Y-52116683D01*
X63308270Y-52415916D01*
X63249311Y-52724988D01*
X63249310Y-52724995D01*
X63229556Y-53038994D01*
X58046890Y-53038994D01*
X57976792Y-52968896D01*
X57929473Y-52934517D01*
X57812204Y-52849316D01*
X57769540Y-52793989D01*
X57763561Y-52724376D01*
X57796166Y-52662580D01*
X57812199Y-52648686D01*
X57976792Y-52529104D01*
X58127104Y-52378792D01*
X58127106Y-52378788D01*
X58127109Y-52378786D01*
X58252048Y-52206820D01*
X58252047Y-52206820D01*
X58252051Y-52206816D01*
X58348557Y-52017412D01*
X58414246Y-51815243D01*
X58447500Y-51605287D01*
X58447500Y-51392713D01*
X58414246Y-51182757D01*
X58348557Y-50980588D01*
X58252051Y-50791184D01*
X58252049Y-50791181D01*
X58252048Y-50791179D01*
X58127109Y-50619213D01*
X57976790Y-50468894D01*
X57976785Y-50468890D01*
X57811781Y-50349008D01*
X57769115Y-50293678D01*
X57763136Y-50224065D01*
X57795741Y-50162270D01*
X57811781Y-50148371D01*
X57976466Y-50028721D01*
X58126723Y-49878464D01*
X58126727Y-49878459D01*
X58251620Y-49706557D01*
X58348095Y-49517217D01*
X58413757Y-49315129D01*
X58413757Y-49315126D01*
X58424231Y-49249000D01*
X57376146Y-49249000D01*
X57414630Y-49182343D01*
X57447000Y-49061535D01*
X57447000Y-48936465D01*
X57414630Y-48815657D01*
X57376146Y-48749000D01*
X58424231Y-48749000D01*
X58413757Y-48682873D01*
X58413757Y-48682870D01*
X58348095Y-48480782D01*
X58251620Y-48291442D01*
X58126727Y-48119540D01*
X58126723Y-48119535D01*
X57976464Y-47969276D01*
X57976459Y-47969272D01*
X57804557Y-47844379D01*
X57615217Y-47747904D01*
X57413128Y-47682242D01*
X57222000Y-47651969D01*
X57222000Y-48594854D01*
X57155343Y-48556370D01*
X57034535Y-48524000D01*
X56909465Y-48524000D01*
X56788657Y-48556370D01*
X56722000Y-48594854D01*
X56722000Y-47651969D01*
X56530872Y-47682242D01*
X56530869Y-47682242D01*
X56328782Y-47747904D01*
X56139442Y-47844379D01*
X55967540Y-47969272D01*
X55967535Y-47969276D01*
X55817276Y-48119535D01*
X55817272Y-48119540D01*
X55692379Y-48291442D01*
X55595904Y-48480782D01*
X55530242Y-48682870D01*
X55530242Y-48682873D01*
X55519769Y-48749000D01*
X56567854Y-48749000D01*
X56529370Y-48815657D01*
X56497000Y-48936465D01*
X56497000Y-49061535D01*
X56529370Y-49182343D01*
X56567854Y-49249000D01*
X55519769Y-49249000D01*
X55530242Y-49315126D01*
X55530242Y-49315129D01*
X55595904Y-49517217D01*
X55692379Y-49706557D01*
X55817272Y-49878459D01*
X55817276Y-49878464D01*
X55967535Y-50028723D01*
X55967540Y-50028727D01*
X56132218Y-50148372D01*
X56174884Y-50203701D01*
X56180863Y-50273315D01*
X56148258Y-50335110D01*
X56132218Y-50349008D01*
X55967214Y-50468890D01*
X55967209Y-50468894D01*
X55816890Y-50619213D01*
X55691951Y-50791179D01*
X55595444Y-50980585D01*
X55529753Y-51182760D01*
X55496613Y-51391999D01*
X55496500Y-51392713D01*
X54861500Y-51392713D01*
X54861500Y-46744272D01*
X54847977Y-46628131D01*
X54834886Y-46572677D01*
X54795042Y-46462752D01*
X53350591Y-43573850D01*
X53337500Y-43518396D01*
X53337500Y-43325234D01*
X53357185Y-43258195D01*
X53409989Y-43212440D01*
X53479147Y-43202496D01*
X53536986Y-43226858D01*
X53675990Y-43333519D01*
X53886006Y-43454772D01*
X53886021Y-43454779D01*
X54110060Y-43547578D01*
X54344312Y-43610346D01*
X54584735Y-43641998D01*
X54584752Y-43642000D01*
X54956000Y-43642000D01*
X54956000Y-42659904D01*
X55117358Y-42692000D01*
X55294642Y-42692000D01*
X55456000Y-42659904D01*
X55456000Y-43642000D01*
X55827248Y-43642000D01*
X55827264Y-43641998D01*
X56067687Y-43610346D01*
X56301939Y-43547578D01*
X56525978Y-43454779D01*
X56525993Y-43454772D01*
X56736009Y-43333519D01*
X56928405Y-43185889D01*
X56928412Y-43185883D01*
X57099883Y-43014412D01*
X57099889Y-43014405D01*
X57247519Y-42822009D01*
X57368772Y-42611993D01*
X57368779Y-42611978D01*
X57461578Y-42387939D01*
X57524346Y-42153687D01*
X57539050Y-42042000D01*
X56073904Y-42042000D01*
X56106000Y-41880642D01*
X56106000Y-41703358D01*
X56073904Y-41542000D01*
X57539049Y-41542000D01*
X57524346Y-41430312D01*
X57461578Y-41196060D01*
X57368779Y-40972021D01*
X57368772Y-40972006D01*
X57247519Y-40761990D01*
X57099889Y-40569594D01*
X57099883Y-40569587D01*
X56928412Y-40398116D01*
X56928405Y-40398110D01*
X56736009Y-40250480D01*
X56525993Y-40129227D01*
X56525978Y-40129220D01*
X56301939Y-40036421D01*
X56067687Y-39973653D01*
X55827264Y-39942001D01*
X55827248Y-39942000D01*
X55456000Y-39942000D01*
X55456000Y-40924095D01*
X55294642Y-40892000D01*
X55117358Y-40892000D01*
X54956000Y-40924095D01*
X54956000Y-39942000D01*
X54584752Y-39942000D01*
X54584735Y-39942001D01*
X54344312Y-39973653D01*
X54110060Y-40036421D01*
X53886021Y-40129220D01*
X53886006Y-40129227D01*
X53675990Y-40250480D01*
X53536986Y-40357141D01*
X53471817Y-40382335D01*
X53403372Y-40368296D01*
X53353382Y-40319482D01*
X53337500Y-40258765D01*
X53337500Y-39125234D01*
X53357185Y-39058195D01*
X53409989Y-39012440D01*
X53479147Y-39002496D01*
X53536986Y-39026858D01*
X53675990Y-39133519D01*
X53886006Y-39254772D01*
X53886021Y-39254779D01*
X54110060Y-39347578D01*
X54344312Y-39410346D01*
X54584735Y-39441998D01*
X54584752Y-39442000D01*
X54956000Y-39442000D01*
X54956000Y-38459904D01*
X55117358Y-38492000D01*
X55294642Y-38492000D01*
X55456000Y-38459904D01*
X55456000Y-39442000D01*
X55827248Y-39442000D01*
X55827264Y-39441998D01*
X56067687Y-39410346D01*
X56301939Y-39347578D01*
X56525978Y-39254779D01*
X56525993Y-39254772D01*
X56736009Y-39133519D01*
X56928405Y-38985889D01*
X56928412Y-38985883D01*
X57099883Y-38814412D01*
X57099889Y-38814405D01*
X57247519Y-38622009D01*
X57368772Y-38411993D01*
X57368779Y-38411978D01*
X57461578Y-38187939D01*
X57502022Y-38037000D01*
X58980709Y-38037000D01*
X58999851Y-38316862D01*
X58999852Y-38316864D01*
X59056921Y-38591499D01*
X59056926Y-38591516D01*
X59136144Y-38814412D01*
X59150864Y-38855830D01*
X59279919Y-39104896D01*
X59441688Y-39334069D01*
X59441692Y-39334073D01*
X59441692Y-39334074D01*
X59578684Y-39480757D01*
X59633155Y-39539081D01*
X59850754Y-39716111D01*
X59850756Y-39716112D01*
X59850757Y-39716113D01*
X60090433Y-39861863D01*
X60268406Y-39939167D01*
X60347725Y-39973620D01*
X60617839Y-40049303D01*
X60862159Y-40082884D01*
X60895741Y-40087500D01*
X60895742Y-40087500D01*
X61176259Y-40087500D01*
X61206219Y-40083381D01*
X61454161Y-40049303D01*
X61724275Y-39973620D01*
X61981568Y-39861862D01*
X62221246Y-39716111D01*
X62438845Y-39539081D01*
X62630312Y-39334069D01*
X62792081Y-39104896D01*
X62921136Y-38855830D01*
X63015075Y-38591511D01*
X63015076Y-38591504D01*
X63015078Y-38591499D01*
X63052379Y-38411993D01*
X63072148Y-38316862D01*
X63091291Y-38037000D01*
X63072148Y-37757138D01*
X63037845Y-37592064D01*
X63015078Y-37482500D01*
X63015073Y-37482483D01*
X62973998Y-37366909D01*
X62921136Y-37218170D01*
X62792081Y-36969104D01*
X62630312Y-36739931D01*
X62630307Y-36739925D01*
X62438845Y-36534919D01*
X62374523Y-36482589D01*
X62221246Y-36357889D01*
X62221244Y-36357888D01*
X62221242Y-36357886D01*
X61981566Y-36212136D01*
X61724276Y-36100380D01*
X61454166Y-36024698D01*
X61454162Y-36024697D01*
X61454161Y-36024697D01*
X61315209Y-36005598D01*
X61176259Y-35986500D01*
X61176258Y-35986500D01*
X60895742Y-35986500D01*
X60895741Y-35986500D01*
X60617839Y-36024697D01*
X60617833Y-36024698D01*
X60347723Y-36100380D01*
X60090433Y-36212136D01*
X59850757Y-36357886D01*
X59633154Y-36534919D01*
X59441692Y-36739925D01*
X59441692Y-36739926D01*
X59441689Y-36739928D01*
X59441688Y-36739931D01*
X59403218Y-36794430D01*
X59279919Y-36969103D01*
X59150863Y-37218171D01*
X59056926Y-37482483D01*
X59056921Y-37482500D01*
X58999852Y-37757135D01*
X58999851Y-37757137D01*
X58980709Y-38037000D01*
X57502022Y-38037000D01*
X57524346Y-37953687D01*
X57539050Y-37842000D01*
X56073904Y-37842000D01*
X56106000Y-37680642D01*
X56106000Y-37503358D01*
X56073904Y-37342000D01*
X57539049Y-37342000D01*
X57524346Y-37230312D01*
X57461578Y-36996060D01*
X57368779Y-36772021D01*
X57368772Y-36772006D01*
X57247519Y-36561990D01*
X57099889Y-36369594D01*
X57099883Y-36369587D01*
X56928412Y-36198116D01*
X56928405Y-36198110D01*
X56736009Y-36050480D01*
X56525993Y-35929227D01*
X56525978Y-35929220D01*
X56301939Y-35836421D01*
X56067687Y-35773653D01*
X55827264Y-35742001D01*
X55827248Y-35742000D01*
X55456000Y-35742000D01*
X55456000Y-36724095D01*
X55294642Y-36692000D01*
X55117358Y-36692000D01*
X54956000Y-36724095D01*
X54956000Y-35742000D01*
X54584752Y-35742000D01*
X54584735Y-35742001D01*
X54344312Y-35773653D01*
X54110060Y-35836421D01*
X53886021Y-35929220D01*
X53886006Y-35929227D01*
X53675990Y-36050480D01*
X53536986Y-36157141D01*
X53471817Y-36182335D01*
X53403372Y-36168296D01*
X53353382Y-36119482D01*
X53337500Y-36058765D01*
X53337500Y-34925234D01*
X53357185Y-34858195D01*
X53409989Y-34812440D01*
X53479147Y-34802496D01*
X53536986Y-34826858D01*
X53675990Y-34933519D01*
X53886006Y-35054772D01*
X53886021Y-35054779D01*
X54110060Y-35147578D01*
X54344312Y-35210346D01*
X54584735Y-35241998D01*
X54584752Y-35242000D01*
X54956000Y-35242000D01*
X54956000Y-34259904D01*
X55117358Y-34292000D01*
X55294642Y-34292000D01*
X55456000Y-34259904D01*
X55456000Y-35242000D01*
X55827248Y-35242000D01*
X55827264Y-35241998D01*
X56067687Y-35210346D01*
X56301939Y-35147578D01*
X56525978Y-35054779D01*
X56525993Y-35054772D01*
X56736009Y-34933519D01*
X56928405Y-34785889D01*
X56928412Y-34785883D01*
X57099883Y-34614412D01*
X57099889Y-34614405D01*
X57247519Y-34422009D01*
X57368772Y-34211993D01*
X57368779Y-34211978D01*
X57461578Y-33987939D01*
X57524346Y-33753687D01*
X57539050Y-33642000D01*
X56073904Y-33642000D01*
X56106000Y-33480642D01*
X56106000Y-33303358D01*
X56074452Y-33144753D01*
X105330000Y-33144753D01*
X105330000Y-33151000D01*
X106246988Y-33151000D01*
X106214075Y-33208007D01*
X106180000Y-33335174D01*
X106180000Y-33466826D01*
X106214075Y-33593993D01*
X106246988Y-33651000D01*
X105330000Y-33651000D01*
X105330000Y-33657246D01*
X105363242Y-33867127D01*
X105363242Y-33867130D01*
X105428904Y-34069217D01*
X105525379Y-34258557D01*
X105650272Y-34430459D01*
X105650276Y-34430464D01*
X105800535Y-34580723D01*
X105800540Y-34580727D01*
X105972442Y-34705620D01*
X106161782Y-34802095D01*
X106363871Y-34867757D01*
X106430000Y-34878231D01*
X106430000Y-33834012D01*
X106487007Y-33866925D01*
X106614174Y-33901000D01*
X106745826Y-33901000D01*
X106872993Y-33866925D01*
X106930000Y-33834012D01*
X106930000Y-34878230D01*
X106996126Y-34867757D01*
X106996129Y-34867757D01*
X107198217Y-34802095D01*
X107387557Y-34705620D01*
X107559458Y-34580728D01*
X107698330Y-34441856D01*
X107759653Y-34408371D01*
X107829345Y-34413355D01*
X107885279Y-34455226D01*
X107891551Y-34464440D01*
X107895185Y-34470331D01*
X107895186Y-34470334D01*
X107987288Y-34619656D01*
X108111344Y-34743712D01*
X108260666Y-34835814D01*
X108427203Y-34890999D01*
X108529991Y-34901500D01*
X109779902Y-34901499D01*
X109846941Y-34921184D01*
X109867583Y-34937818D01*
X110727139Y-35797374D01*
X110727149Y-35797385D01*
X110731479Y-35801715D01*
X110731480Y-35801716D01*
X110843284Y-35913520D01*
X110912158Y-35953284D01*
X110980215Y-35992577D01*
X111132943Y-36033501D01*
X111132946Y-36033501D01*
X111298653Y-36033501D01*
X111298669Y-36033500D01*
X120701523Y-36033500D01*
X120768562Y-36053185D01*
X120789204Y-36069819D01*
X120985624Y-36266239D01*
X121019109Y-36327562D01*
X121014125Y-36397254D01*
X120972253Y-36453187D01*
X120917341Y-36476393D01*
X120747602Y-36503277D01*
X120582852Y-36556808D01*
X120428511Y-36635448D01*
X120350675Y-36692000D01*
X120288372Y-36737266D01*
X120288370Y-36737268D01*
X120288369Y-36737268D01*
X120165888Y-36859749D01*
X120165888Y-36859750D01*
X120165886Y-36859752D01*
X120159025Y-36869196D01*
X120064068Y-36999891D01*
X119985428Y-37154232D01*
X119931897Y-37318982D01*
X119904800Y-37490069D01*
X119904800Y-38463290D01*
X119931314Y-38630697D01*
X119931898Y-38634381D01*
X119985427Y-38799125D01*
X120064068Y-38953468D01*
X120165886Y-39093608D01*
X120288372Y-39216094D01*
X120428512Y-39317912D01*
X120582855Y-39396553D01*
X120747599Y-39450082D01*
X120918689Y-39477180D01*
X120918690Y-39477180D01*
X121091910Y-39477180D01*
X121091911Y-39477180D01*
X121263001Y-39450082D01*
X121427745Y-39396553D01*
X121582088Y-39317912D01*
X121722228Y-39216094D01*
X121844714Y-39093608D01*
X121946532Y-38953468D01*
X122025173Y-38799125D01*
X122078702Y-38634381D01*
X122105800Y-38463291D01*
X122105800Y-37685777D01*
X122125485Y-37618738D01*
X122178289Y-37572983D01*
X122247447Y-37563039D01*
X122311003Y-37592064D01*
X122317481Y-37598096D01*
X122408481Y-37689096D01*
X122441966Y-37750419D01*
X122444800Y-37776777D01*
X122444800Y-38463290D01*
X122471314Y-38630697D01*
X122471898Y-38634381D01*
X122525427Y-38799125D01*
X122604068Y-38953468D01*
X122705886Y-39093608D01*
X122828372Y-39216094D01*
X122968512Y-39317912D01*
X123122855Y-39396553D01*
X123287599Y-39450082D01*
X123458689Y-39477180D01*
X123458690Y-39477180D01*
X123631910Y-39477180D01*
X123631911Y-39477180D01*
X123803001Y-39450082D01*
X123967745Y-39396553D01*
X124122088Y-39317912D01*
X124262228Y-39216094D01*
X124384714Y-39093608D01*
X124486532Y-38953468D01*
X124565173Y-38799125D01*
X124618702Y-38634381D01*
X124645800Y-38463291D01*
X124645800Y-37685777D01*
X124665485Y-37618738D01*
X124718289Y-37572983D01*
X124787447Y-37563039D01*
X124851003Y-37592064D01*
X124857481Y-37598096D01*
X124948481Y-37689096D01*
X124981966Y-37750419D01*
X124984800Y-37776777D01*
X124984800Y-38463290D01*
X125011314Y-38630697D01*
X125011898Y-38634381D01*
X125065427Y-38799125D01*
X125144068Y-38953468D01*
X125245886Y-39093608D01*
X125368372Y-39216094D01*
X125508512Y-39317912D01*
X125662855Y-39396553D01*
X125827599Y-39450082D01*
X125998689Y-39477180D01*
X125998690Y-39477180D01*
X126171910Y-39477180D01*
X126171911Y-39477180D01*
X126343001Y-39450082D01*
X126507745Y-39396553D01*
X126662088Y-39317912D01*
X126802228Y-39216094D01*
X126924714Y-39093608D01*
X127026532Y-38953468D01*
X127105173Y-38799125D01*
X127158702Y-38634381D01*
X127185800Y-38463291D01*
X127185800Y-37490069D01*
X127524800Y-37490069D01*
X127524800Y-38463290D01*
X127551314Y-38630697D01*
X127551898Y-38634381D01*
X127605427Y-38799125D01*
X127684068Y-38953468D01*
X127785886Y-39093608D01*
X127908372Y-39216094D01*
X128048512Y-39317912D01*
X128202855Y-39396553D01*
X128367599Y-39450082D01*
X128538689Y-39477180D01*
X128538690Y-39477180D01*
X128711910Y-39477180D01*
X128711911Y-39477180D01*
X128883001Y-39450082D01*
X129047745Y-39396553D01*
X129202088Y-39317912D01*
X129342228Y-39216094D01*
X129464714Y-39093608D01*
X129566532Y-38953468D01*
X129645173Y-38799125D01*
X129698702Y-38634381D01*
X129725800Y-38463291D01*
X129725800Y-37490069D01*
X130064800Y-37490069D01*
X130064800Y-38463290D01*
X130091314Y-38630697D01*
X130091898Y-38634381D01*
X130145427Y-38799125D01*
X130224068Y-38953468D01*
X130325886Y-39093608D01*
X130448372Y-39216094D01*
X130588512Y-39317912D01*
X130742855Y-39396553D01*
X130907599Y-39450082D01*
X131078689Y-39477180D01*
X131078690Y-39477180D01*
X131251910Y-39477180D01*
X131251911Y-39477180D01*
X131423001Y-39450082D01*
X131587745Y-39396553D01*
X131742088Y-39317912D01*
X131882228Y-39216094D01*
X132004714Y-39093608D01*
X132106532Y-38953468D01*
X132185173Y-38799125D01*
X132238702Y-38634381D01*
X132265800Y-38463291D01*
X132265800Y-37490069D01*
X132238702Y-37318979D01*
X132185173Y-37154235D01*
X132106532Y-36999892D01*
X132004714Y-36859752D01*
X131882228Y-36737266D01*
X131742088Y-36635448D01*
X131587745Y-36556807D01*
X131423001Y-36503278D01*
X131422999Y-36503277D01*
X131422998Y-36503277D01*
X131291571Y-36482461D01*
X131251911Y-36476180D01*
X131078689Y-36476180D01*
X131039028Y-36482461D01*
X130907602Y-36503277D01*
X130742852Y-36556808D01*
X130588511Y-36635448D01*
X130510675Y-36692000D01*
X130448372Y-36737266D01*
X130448370Y-36737268D01*
X130448369Y-36737268D01*
X130325888Y-36859749D01*
X130325888Y-36859750D01*
X130325886Y-36859752D01*
X130319025Y-36869196D01*
X130224068Y-36999891D01*
X130145428Y-37154232D01*
X130091897Y-37318982D01*
X130064800Y-37490069D01*
X129725800Y-37490069D01*
X129698702Y-37318979D01*
X129645173Y-37154235D01*
X129566532Y-36999892D01*
X129464714Y-36859752D01*
X129342228Y-36737266D01*
X129202088Y-36635448D01*
X129047745Y-36556807D01*
X128883001Y-36503278D01*
X128882999Y-36503277D01*
X128882998Y-36503277D01*
X128751571Y-36482461D01*
X128711911Y-36476180D01*
X128538689Y-36476180D01*
X128499028Y-36482461D01*
X128367602Y-36503277D01*
X128202852Y-36556808D01*
X128048511Y-36635448D01*
X127970675Y-36692000D01*
X127908372Y-36737266D01*
X127908370Y-36737268D01*
X127908369Y-36737268D01*
X127785888Y-36859749D01*
X127785888Y-36859750D01*
X127785886Y-36859752D01*
X127779025Y-36869196D01*
X127684068Y-36999891D01*
X127605428Y-37154232D01*
X127551897Y-37318982D01*
X127524800Y-37490069D01*
X127185800Y-37490069D01*
X127158702Y-37318979D01*
X127105173Y-37154235D01*
X127026532Y-36999892D01*
X126924714Y-36859752D01*
X126802228Y-36737266D01*
X126662088Y-36635448D01*
X126507745Y-36556807D01*
X126343001Y-36503278D01*
X126342999Y-36503277D01*
X126342998Y-36503277D01*
X126211571Y-36482461D01*
X126171911Y-36476180D01*
X125998689Y-36476180D01*
X125959028Y-36482461D01*
X125827602Y-36503277D01*
X125662857Y-36556806D01*
X125662850Y-36556809D01*
X125644951Y-36565929D01*
X125576282Y-36578823D01*
X125511542Y-36552544D01*
X125500979Y-36543123D01*
X121997210Y-33039355D01*
X121997208Y-33039352D01*
X121878337Y-32920481D01*
X121878336Y-32920480D01*
X121791524Y-32870360D01*
X121791524Y-32870359D01*
X121791520Y-32870358D01*
X121741405Y-32841423D01*
X121588677Y-32800499D01*
X121430563Y-32800499D01*
X121422967Y-32800499D01*
X121422951Y-32800500D01*
X120941499Y-32800500D01*
X120874460Y-32780815D01*
X120828705Y-32728011D01*
X120817499Y-32676500D01*
X120817499Y-32600998D01*
X120817498Y-32600981D01*
X120806999Y-32498203D01*
X120806998Y-32498200D01*
X120751814Y-32331666D01*
X120659712Y-32182344D01*
X120535656Y-32058288D01*
X120389238Y-31967977D01*
X120386336Y-31966187D01*
X120386331Y-31966185D01*
X120365375Y-31959241D01*
X120219797Y-31911001D01*
X120219795Y-31911000D01*
X120117010Y-31900500D01*
X118816998Y-31900500D01*
X118816981Y-31900501D01*
X118714203Y-31911000D01*
X118714200Y-31911001D01*
X118547668Y-31966185D01*
X118547663Y-31966187D01*
X118398342Y-32058289D01*
X118274289Y-32182342D01*
X118178551Y-32337559D01*
X118126603Y-32384283D01*
X118057640Y-32395506D01*
X117993558Y-32367662D01*
X117985331Y-32360143D01*
X117846464Y-32221276D01*
X117846459Y-32221272D01*
X117674557Y-32096379D01*
X117485215Y-31999903D01*
X117283124Y-31934241D01*
X117217000Y-31923768D01*
X117217000Y-32967988D01*
X117159993Y-32935075D01*
X117032826Y-32901000D01*
X116901174Y-32901000D01*
X116774007Y-32935075D01*
X116717000Y-32967988D01*
X116717000Y-31923768D01*
X116716999Y-31923768D01*
X116650875Y-31934241D01*
X116448784Y-31999903D01*
X116259442Y-32096379D01*
X116087540Y-32221272D01*
X116087535Y-32221276D01*
X115937276Y-32371535D01*
X115937272Y-32371540D01*
X115812379Y-32543442D01*
X115715904Y-32732782D01*
X115650242Y-32934869D01*
X115650242Y-32934872D01*
X115617000Y-33144753D01*
X115617000Y-33151000D01*
X116533988Y-33151000D01*
X116501075Y-33208007D01*
X116467000Y-33335174D01*
X116467000Y-33466826D01*
X116501075Y-33593993D01*
X116533988Y-33651000D01*
X115617000Y-33651000D01*
X115617000Y-33657246D01*
X115650242Y-33867127D01*
X115650242Y-33867130D01*
X115715904Y-34069217D01*
X115812379Y-34258557D01*
X115937272Y-34430459D01*
X115937276Y-34430464D01*
X116087535Y-34580723D01*
X116087540Y-34580727D01*
X116125328Y-34608182D01*
X116167994Y-34663512D01*
X116173973Y-34733125D01*
X116141367Y-34794920D01*
X116080529Y-34829277D01*
X116052443Y-34832500D01*
X111512097Y-34832500D01*
X111445058Y-34812815D01*
X111424416Y-34796181D01*
X110566818Y-33938583D01*
X110533333Y-33877260D01*
X110530499Y-33850902D01*
X110530499Y-32600998D01*
X110530498Y-32600981D01*
X110519999Y-32498203D01*
X110519998Y-32498200D01*
X110464814Y-32331666D01*
X110372712Y-32182344D01*
X110248656Y-32058288D01*
X110102238Y-31967977D01*
X110099336Y-31966187D01*
X110099331Y-31966185D01*
X110078375Y-31959241D01*
X109932797Y-31911001D01*
X109932795Y-31911000D01*
X109830010Y-31900500D01*
X108529998Y-31900500D01*
X108529981Y-31900501D01*
X108427203Y-31911000D01*
X108427200Y-31911001D01*
X108260668Y-31966185D01*
X108260663Y-31966187D01*
X108111342Y-32058289D01*
X107987289Y-32182342D01*
X107891551Y-32337559D01*
X107839603Y-32384283D01*
X107770640Y-32395506D01*
X107706558Y-32367662D01*
X107698331Y-32360143D01*
X107559464Y-32221276D01*
X107559459Y-32221272D01*
X107387557Y-32096379D01*
X107198215Y-31999903D01*
X106996124Y-31934241D01*
X106930000Y-31923768D01*
X106930000Y-32967988D01*
X106872993Y-32935075D01*
X106745826Y-32901000D01*
X106614174Y-32901000D01*
X106487007Y-32935075D01*
X106430000Y-32967988D01*
X106430000Y-31923768D01*
X106429999Y-31923768D01*
X106363875Y-31934241D01*
X106161784Y-31999903D01*
X105972442Y-32096379D01*
X105800540Y-32221272D01*
X105800535Y-32221276D01*
X105650276Y-32371535D01*
X105650272Y-32371540D01*
X105525379Y-32543442D01*
X105428904Y-32732782D01*
X105363242Y-32934869D01*
X105363242Y-32934872D01*
X105330000Y-33144753D01*
X56074452Y-33144753D01*
X56073904Y-33142000D01*
X57539049Y-33142000D01*
X57524346Y-33030312D01*
X57461578Y-32796060D01*
X57368779Y-32572021D01*
X57368772Y-32572006D01*
X57247519Y-32361990D01*
X57099889Y-32169594D01*
X57099883Y-32169587D01*
X56928412Y-31998116D01*
X56928405Y-31998110D01*
X56736009Y-31850480D01*
X56525993Y-31729227D01*
X56525978Y-31729220D01*
X56301939Y-31636421D01*
X56067687Y-31573653D01*
X55827264Y-31542001D01*
X55827248Y-31542000D01*
X55456000Y-31542000D01*
X55456000Y-32524095D01*
X55294642Y-32492000D01*
X55117358Y-32492000D01*
X54956000Y-32524095D01*
X54956000Y-31542000D01*
X54584752Y-31542000D01*
X54584735Y-31542001D01*
X54344312Y-31573653D01*
X54110060Y-31636421D01*
X53886021Y-31729220D01*
X53886006Y-31729227D01*
X53675990Y-31850480D01*
X53536986Y-31957141D01*
X53471817Y-31982335D01*
X53403372Y-31968296D01*
X53353382Y-31919482D01*
X53337500Y-31858765D01*
X53337500Y-30952135D01*
X67075500Y-30952135D01*
X67075500Y-32547870D01*
X67075501Y-32547876D01*
X67081908Y-32607483D01*
X67132202Y-32742328D01*
X67132206Y-32742335D01*
X67218452Y-32857544D01*
X67218455Y-32857547D01*
X67333664Y-32943793D01*
X67333671Y-32943797D01*
X67468517Y-32994091D01*
X67468516Y-32994091D01*
X67475444Y-32994835D01*
X67528127Y-33000500D01*
X69123872Y-33000499D01*
X69183483Y-32994091D01*
X69318331Y-32943796D01*
X69433546Y-32857546D01*
X69519796Y-32742331D01*
X69570091Y-32607483D01*
X69576500Y-32547873D01*
X69576499Y-32480988D01*
X69596183Y-32413952D01*
X69648986Y-32368196D01*
X69718144Y-32358252D01*
X69781700Y-32387276D01*
X69802073Y-32409866D01*
X69822873Y-32439571D01*
X69822874Y-32439571D01*
X70383037Y-31879408D01*
X70400075Y-31942993D01*
X70465901Y-32057007D01*
X70558993Y-32150099D01*
X70673007Y-32215925D01*
X70736590Y-32232962D01*
X70176427Y-32793124D01*
X70238612Y-32836666D01*
X70436840Y-32929101D01*
X70436849Y-32929105D01*
X70648105Y-32985710D01*
X70648115Y-32985712D01*
X70865999Y-33004775D01*
X70866001Y-33004775D01*
X71083884Y-32985712D01*
X71083894Y-32985710D01*
X71295150Y-32929105D01*
X71295164Y-32929100D01*
X71493383Y-32836669D01*
X71493385Y-32836668D01*
X71555571Y-32793124D01*
X70995410Y-32232962D01*
X71058993Y-32215925D01*
X71173007Y-32150099D01*
X71266099Y-32057007D01*
X71331925Y-31942993D01*
X71348962Y-31879409D01*
X71909124Y-32439570D01*
X71952666Y-32377388D01*
X72023340Y-32225825D01*
X72069512Y-32173386D01*
X72136706Y-32154233D01*
X72203587Y-32174448D01*
X72248105Y-32225824D01*
X72318897Y-32377638D01*
X72331900Y-32396208D01*
X72444402Y-32556877D01*
X72599123Y-32711598D01*
X72778361Y-32837102D01*
X72976670Y-32929575D01*
X72976676Y-32929576D01*
X72976677Y-32929577D01*
X72997196Y-32935075D01*
X73188023Y-32986207D01*
X73370926Y-33002208D01*
X73405998Y-33005277D01*
X73406000Y-33005277D01*
X73406002Y-33005277D01*
X73434254Y-33002805D01*
X73623977Y-32986207D01*
X73835330Y-32929575D01*
X74033639Y-32837102D01*
X74212877Y-32711598D01*
X74367598Y-32556877D01*
X74493102Y-32377639D01*
X74585575Y-32179330D01*
X74642207Y-31967977D01*
X74661277Y-31750000D01*
X74642207Y-31532023D01*
X74605879Y-31396446D01*
X74585577Y-31320677D01*
X74585576Y-31320676D01*
X74585575Y-31320670D01*
X74493102Y-31122362D01*
X74493099Y-31122358D01*
X74493099Y-31122357D01*
X74367599Y-30943124D01*
X74316991Y-30892516D01*
X74212877Y-30788402D01*
X74074978Y-30691844D01*
X74033638Y-30662897D01*
X73934484Y-30616661D01*
X73835330Y-30570425D01*
X73835326Y-30570424D01*
X73835322Y-30570422D01*
X73623977Y-30513793D01*
X73406002Y-30494723D01*
X73405998Y-30494723D01*
X73278151Y-30505908D01*
X73188023Y-30513793D01*
X73188020Y-30513793D01*
X72976677Y-30570422D01*
X72976668Y-30570426D01*
X72778361Y-30662898D01*
X72778357Y-30662900D01*
X72599121Y-30788402D01*
X72444402Y-30943121D01*
X72318900Y-31122357D01*
X72318900Y-31122358D01*
X72318898Y-31122361D01*
X72318898Y-31122362D01*
X72310229Y-31140953D01*
X72248105Y-31274176D01*
X72201932Y-31326615D01*
X72134738Y-31345766D01*
X72067857Y-31325550D01*
X72023341Y-31274175D01*
X71952667Y-31122614D01*
X71952666Y-31122612D01*
X71909124Y-31060428D01*
X71909124Y-31060427D01*
X71348962Y-31620589D01*
X71331925Y-31557007D01*
X71266099Y-31442993D01*
X71173007Y-31349901D01*
X71058993Y-31284075D01*
X70995409Y-31267037D01*
X71555571Y-30706874D01*
X71493387Y-30663333D01*
X71295159Y-30570898D01*
X71295150Y-30570894D01*
X71083894Y-30514289D01*
X71083884Y-30514287D01*
X70866001Y-30495225D01*
X70865999Y-30495225D01*
X70648115Y-30514287D01*
X70648105Y-30514289D01*
X70436849Y-30570894D01*
X70436840Y-30570898D01*
X70238613Y-30663333D01*
X70176428Y-30706874D01*
X70736591Y-31267037D01*
X70673007Y-31284075D01*
X70558993Y-31349901D01*
X70465901Y-31442993D01*
X70400075Y-31557007D01*
X70383037Y-31620591D01*
X69822874Y-31060428D01*
X69802075Y-31090133D01*
X69747499Y-31133759D01*
X69678000Y-31140953D01*
X69615645Y-31109431D01*
X69580231Y-31049202D01*
X69576499Y-31019011D01*
X69576499Y-30952129D01*
X69576498Y-30952123D01*
X69576497Y-30952116D01*
X69570091Y-30892517D01*
X69519796Y-30757669D01*
X69519795Y-30757668D01*
X69519793Y-30757664D01*
X69433547Y-30642455D01*
X69433544Y-30642452D01*
X69318335Y-30556206D01*
X69318328Y-30556202D01*
X69183482Y-30505908D01*
X69183483Y-30505908D01*
X69123883Y-30499501D01*
X69123881Y-30499500D01*
X69123873Y-30499500D01*
X69123864Y-30499500D01*
X67528129Y-30499500D01*
X67528123Y-30499501D01*
X67468516Y-30505908D01*
X67333671Y-30556202D01*
X67333664Y-30556206D01*
X67218455Y-30642452D01*
X67218452Y-30642455D01*
X67132206Y-30757664D01*
X67132202Y-30757671D01*
X67081908Y-30892517D01*
X67076468Y-30943121D01*
X67075501Y-30952123D01*
X67075500Y-30952135D01*
X53337500Y-30952135D01*
X53337500Y-30274500D01*
X53357185Y-30207461D01*
X53409989Y-30161706D01*
X53461500Y-30150500D01*
X139135500Y-30150500D01*
X139202539Y-30170185D01*
G37*
%TD.AperFunction*%
%TA.AperFunction,Conductor*%
G36*
X128589920Y-73710894D02*
G01*
X128537259Y-73802106D01*
X128510000Y-73903839D01*
X128510000Y-74009161D01*
X128537259Y-74110894D01*
X128589920Y-74202106D01*
X128594314Y-74206500D01*
X126685686Y-74206500D01*
X126690080Y-74202106D01*
X126742741Y-74110894D01*
X126770000Y-74009161D01*
X126770000Y-73903839D01*
X126742741Y-73802106D01*
X126690080Y-73710894D01*
X126685686Y-73706500D01*
X128594314Y-73706500D01*
X128589920Y-73710894D01*
G37*
%TD.AperFunction*%
%TA.AperFunction,Conductor*%
G36*
X84409036Y-36942185D02*
G01*
X84454791Y-36994989D01*
X84464735Y-37064147D01*
X84452482Y-37102795D01*
X84428148Y-37150552D01*
X84428147Y-37150554D01*
X84428147Y-37150555D01*
X84419040Y-37178583D01*
X84374617Y-37315302D01*
X84347520Y-37486389D01*
X84347520Y-38459610D01*
X84368411Y-38591516D01*
X84374618Y-38630701D01*
X84428147Y-38795445D01*
X84506788Y-38949788D01*
X84608606Y-39089928D01*
X84608608Y-39089930D01*
X84661181Y-39142503D01*
X84694666Y-39203826D01*
X84697500Y-39230184D01*
X84697500Y-39471918D01*
X84697500Y-39471920D01*
X84697499Y-39471920D01*
X84726340Y-39616907D01*
X84726343Y-39616917D01*
X84782914Y-39753492D01*
X84815812Y-39802727D01*
X84815813Y-39802730D01*
X84865046Y-39876414D01*
X84865052Y-39876421D01*
X88592281Y-43603649D01*
X88625766Y-43664972D01*
X88628600Y-43691330D01*
X88628600Y-59326988D01*
X88608915Y-59394027D01*
X88556111Y-59439782D01*
X88486953Y-59449726D01*
X88448306Y-59437473D01*
X88407750Y-59416809D01*
X88407747Y-59416808D01*
X88407745Y-59416807D01*
X88243001Y-59363278D01*
X88242999Y-59363277D01*
X88242998Y-59363277D01*
X88098157Y-59340337D01*
X88071911Y-59336180D01*
X87898689Y-59336180D01*
X87872443Y-59340337D01*
X87727601Y-59363277D01*
X87727597Y-59363278D01*
X87628117Y-59395601D01*
X87558276Y-59397596D01*
X87498444Y-59361515D01*
X87467616Y-59298814D01*
X87465800Y-59277670D01*
X87465800Y-46613380D01*
X87450133Y-46534622D01*
X87450133Y-46534617D01*
X87436960Y-46468395D01*
X87436959Y-46468388D01*
X87382708Y-46337417D01*
X87381064Y-46332822D01*
X87298254Y-46208888D01*
X87298253Y-46208887D01*
X87298251Y-46208884D01*
X87193716Y-46104349D01*
X84636945Y-43547578D01*
X82055126Y-40965758D01*
X82021641Y-40904435D01*
X82020871Y-40865573D01*
X82019598Y-40865462D01*
X82039323Y-40640002D01*
X82039323Y-40639997D01*
X82020070Y-40419937D01*
X82020070Y-40419932D01*
X81962894Y-40206550D01*
X81869534Y-40006339D01*
X81778560Y-39876414D01*
X81742827Y-39825381D01*
X81670938Y-39753492D01*
X81586620Y-39669174D01*
X81586616Y-39669171D01*
X81586615Y-39669170D01*
X81405666Y-39542468D01*
X81405662Y-39542466D01*
X81398401Y-39539080D01*
X81205450Y-39449106D01*
X81205447Y-39449105D01*
X81205445Y-39449104D01*
X80992070Y-39391930D01*
X80992062Y-39391929D01*
X80772002Y-39372677D01*
X80771998Y-39372677D01*
X80551937Y-39391929D01*
X80551929Y-39391930D01*
X80338554Y-39449104D01*
X80338548Y-39449107D01*
X80138340Y-39542465D01*
X80138338Y-39542466D01*
X79957377Y-39669175D01*
X79933181Y-39693372D01*
X79871858Y-39726857D01*
X79802166Y-39721873D01*
X79746233Y-39680001D01*
X79721816Y-39614537D01*
X79721500Y-39605691D01*
X79721500Y-39162097D01*
X79741185Y-39095058D01*
X79757819Y-39074416D01*
X80666518Y-38165717D01*
X81625152Y-37207082D01*
X81686473Y-37173599D01*
X81756165Y-37178583D01*
X81812098Y-37220455D01*
X81836515Y-37285919D01*
X81835304Y-37314163D01*
X81808020Y-37486428D01*
X81808020Y-37723000D01*
X82592334Y-37723000D01*
X82587940Y-37727394D01*
X82535279Y-37818606D01*
X82508020Y-37920339D01*
X82508020Y-38025661D01*
X82535279Y-38127394D01*
X82587940Y-38218606D01*
X82592334Y-38223000D01*
X81808020Y-38223000D01*
X81808020Y-38459571D01*
X81835105Y-38630584D01*
X81888611Y-38795257D01*
X81967215Y-38949524D01*
X82068987Y-39089602D01*
X82191417Y-39212032D01*
X82331495Y-39313804D01*
X82485764Y-39392408D01*
X82650435Y-39445914D01*
X82650434Y-39445914D01*
X82658019Y-39447115D01*
X82658020Y-39447114D01*
X82658020Y-38288686D01*
X82662414Y-38293080D01*
X82753626Y-38345741D01*
X82855359Y-38373000D01*
X82960681Y-38373000D01*
X83062414Y-38345741D01*
X83153626Y-38293080D01*
X83158020Y-38288686D01*
X83158020Y-39447115D01*
X83165604Y-39445914D01*
X83330275Y-39392408D01*
X83484544Y-39313804D01*
X83624622Y-39212032D01*
X83747052Y-39089602D01*
X83848824Y-38949524D01*
X83927428Y-38795257D01*
X83980934Y-38630584D01*
X84008020Y-38459571D01*
X84008020Y-38223000D01*
X83223706Y-38223000D01*
X83228100Y-38218606D01*
X83280761Y-38127394D01*
X83308020Y-38025661D01*
X83308020Y-37920339D01*
X83280761Y-37818606D01*
X83228100Y-37727394D01*
X83223706Y-37723000D01*
X84008020Y-37723000D01*
X84008020Y-37486428D01*
X83980934Y-37315415D01*
X83927426Y-37150737D01*
X83902998Y-37102795D01*
X83890101Y-37034126D01*
X83916377Y-36969386D01*
X83973483Y-36929128D01*
X84013482Y-36922500D01*
X84341997Y-36922500D01*
X84409036Y-36942185D01*
G37*
%TD.AperFunction*%
%TA.AperFunction,Conductor*%
G36*
X136283741Y-56578188D02*
G01*
X136329094Y-56513417D01*
X136329095Y-56513416D01*
X136389340Y-56384219D01*
X136435512Y-56331780D01*
X136502706Y-56312627D01*
X136569587Y-56332842D01*
X136614105Y-56384218D01*
X136674466Y-56513662D01*
X136674468Y-56513666D01*
X136801170Y-56694615D01*
X136801175Y-56694621D01*
X136957378Y-56850824D01*
X136957384Y-56850829D01*
X137138333Y-56977531D01*
X137138335Y-56977532D01*
X137138338Y-56977534D01*
X137206414Y-57009278D01*
X137267189Y-57037618D01*
X137319628Y-57083790D01*
X137338780Y-57150984D01*
X137318564Y-57217865D01*
X137267189Y-57262382D01*
X137138340Y-57322465D01*
X137138338Y-57322466D01*
X136957377Y-57449175D01*
X136801175Y-57605377D01*
X136718904Y-57722874D01*
X136674466Y-57786339D01*
X136673225Y-57789000D01*
X136614105Y-57915782D01*
X136567932Y-57968221D01*
X136500738Y-57987372D01*
X136433857Y-57967156D01*
X136389341Y-57915780D01*
X136329098Y-57786589D01*
X136329097Y-57786587D01*
X136283741Y-57721811D01*
X136283740Y-57721810D01*
X135613000Y-58392550D01*
X135613000Y-58369840D01*
X135587036Y-58272939D01*
X135536876Y-58186060D01*
X135465940Y-58115124D01*
X135379061Y-58064964D01*
X135282160Y-58039000D01*
X135259448Y-58039000D01*
X135930188Y-57368259D01*
X135930187Y-57368258D01*
X135865411Y-57322901D01*
X135865405Y-57322898D01*
X135735627Y-57262382D01*
X135683187Y-57216210D01*
X135664035Y-57149017D01*
X135684251Y-57082135D01*
X135735627Y-57037618D01*
X135865407Y-56977100D01*
X135865417Y-56977094D01*
X135930188Y-56931741D01*
X135259448Y-56261000D01*
X135282160Y-56261000D01*
X135379061Y-56235036D01*
X135465940Y-56184876D01*
X135536876Y-56113940D01*
X135587036Y-56027061D01*
X135613000Y-55930160D01*
X135613000Y-55907447D01*
X136283741Y-56578188D01*
G37*
%TD.AperFunction*%
%TA.AperFunction,Conductor*%
G36*
X131550370Y-33217657D02*
G01*
X131518000Y-33338465D01*
X131518000Y-33463535D01*
X131550370Y-33584343D01*
X131588854Y-33651000D01*
X129897146Y-33651000D01*
X129935630Y-33584343D01*
X129968000Y-33463535D01*
X129968000Y-33338465D01*
X129935630Y-33217657D01*
X129897146Y-33151000D01*
X131588854Y-33151000D01*
X131550370Y-33217657D01*
G37*
%TD.AperFunction*%
%TD*%
%TA.AperFunction,Conductor*%
%TO.N,+36V*%
G36*
X52775039Y-30170185D02*
G01*
X52820794Y-30222989D01*
X52832000Y-30274500D01*
X52832000Y-43667000D01*
X54342909Y-46688818D01*
X54356000Y-46744272D01*
X54356000Y-58877727D01*
X54342909Y-58933181D01*
X52832000Y-61954999D01*
X52832000Y-62839376D01*
X52823560Y-62881817D01*
X52824252Y-62882052D01*
X52822949Y-62885890D01*
X52822946Y-62885897D01*
X52822946Y-62885900D01*
X52797196Y-62981999D01*
X52760161Y-63120214D01*
X52728500Y-63360711D01*
X52728500Y-63603288D01*
X52760161Y-63843785D01*
X52822947Y-64078104D01*
X52824250Y-64081941D01*
X52823554Y-64082177D01*
X52832000Y-64124622D01*
X52832000Y-67039376D01*
X52823560Y-67081817D01*
X52824252Y-67082052D01*
X52822949Y-67085890D01*
X52822946Y-67085897D01*
X52822946Y-67085900D01*
X52797196Y-67181999D01*
X52760161Y-67320214D01*
X52728500Y-67560711D01*
X52728500Y-67803288D01*
X52760161Y-68043785D01*
X52822947Y-68278104D01*
X52824250Y-68281941D01*
X52823554Y-68282177D01*
X52832000Y-68324622D01*
X52832000Y-71239376D01*
X52823560Y-71281817D01*
X52824252Y-71282052D01*
X52822949Y-71285890D01*
X52822946Y-71285897D01*
X52822946Y-71285900D01*
X52797196Y-71382000D01*
X52760161Y-71520214D01*
X52728500Y-71760711D01*
X52728500Y-72003288D01*
X52760161Y-72243785D01*
X52822947Y-72478104D01*
X52824250Y-72481941D01*
X52823554Y-72482177D01*
X52832000Y-72524622D01*
X52832000Y-75025500D01*
X52812315Y-75092539D01*
X52759511Y-75138294D01*
X52708000Y-75149500D01*
X40384500Y-75149500D01*
X40317461Y-75129815D01*
X40271706Y-75077011D01*
X40260500Y-75025500D01*
X40260500Y-71767258D01*
X40528500Y-71767258D01*
X40528500Y-71996741D01*
X40547957Y-72144520D01*
X40558452Y-72224238D01*
X40558453Y-72224240D01*
X40617842Y-72445887D01*
X40705650Y-72657876D01*
X40705657Y-72657890D01*
X40820392Y-72856617D01*
X40960081Y-73038661D01*
X40960089Y-73038670D01*
X41122330Y-73200911D01*
X41122338Y-73200918D01*
X41304382Y-73340607D01*
X41304385Y-73340608D01*
X41304388Y-73340611D01*
X41503112Y-73455344D01*
X41503117Y-73455346D01*
X41503123Y-73455349D01*
X41594480Y-73493190D01*
X41715113Y-73543158D01*
X41936762Y-73602548D01*
X42164266Y-73632500D01*
X42164273Y-73632500D01*
X42393727Y-73632500D01*
X42393734Y-73632500D01*
X42621238Y-73602548D01*
X42842887Y-73543158D01*
X43054888Y-73455344D01*
X43253612Y-73340611D01*
X43435661Y-73200919D01*
X43435665Y-73200914D01*
X43435670Y-73200911D01*
X43597911Y-73038670D01*
X43597914Y-73038665D01*
X43597919Y-73038661D01*
X43737611Y-72856612D01*
X43852344Y-72657888D01*
X43940158Y-72445887D01*
X43999548Y-72224238D01*
X44029500Y-71996734D01*
X44029500Y-71767266D01*
X43999548Y-71539762D01*
X43940158Y-71318113D01*
X43852344Y-71106112D01*
X43737611Y-70907388D01*
X43737608Y-70907385D01*
X43737607Y-70907382D01*
X43603041Y-70732014D01*
X47229000Y-70732014D01*
X47229000Y-71382000D01*
X48830668Y-71382000D01*
X48781430Y-71455690D01*
X48713586Y-71619480D01*
X48679000Y-71793358D01*
X48679000Y-71970642D01*
X48713586Y-72144520D01*
X48781430Y-72308310D01*
X48830668Y-72382000D01*
X47229000Y-72382000D01*
X47229000Y-73031985D01*
X47239493Y-73134689D01*
X47239494Y-73134696D01*
X47294641Y-73301118D01*
X47294643Y-73301123D01*
X47386684Y-73450344D01*
X47510655Y-73574315D01*
X47659876Y-73666356D01*
X47659881Y-73666358D01*
X47826303Y-73721505D01*
X47826310Y-73721506D01*
X47929014Y-73731999D01*
X47929027Y-73732000D01*
X49079000Y-73732000D01*
X49079000Y-72630332D01*
X49152690Y-72679570D01*
X49316480Y-72747414D01*
X49490358Y-72782000D01*
X49667642Y-72782000D01*
X49841520Y-72747414D01*
X50005310Y-72679570D01*
X50079000Y-72630332D01*
X50079000Y-73732000D01*
X51228973Y-73732000D01*
X51228985Y-73731999D01*
X51331689Y-73721506D01*
X51331696Y-73721505D01*
X51498118Y-73666358D01*
X51498123Y-73666356D01*
X51647344Y-73574315D01*
X51771315Y-73450344D01*
X51863356Y-73301123D01*
X51863358Y-73301118D01*
X51918505Y-73134696D01*
X51918506Y-73134689D01*
X51928999Y-73031985D01*
X51929000Y-73031972D01*
X51929000Y-72382000D01*
X50327332Y-72382000D01*
X50376570Y-72308310D01*
X50444414Y-72144520D01*
X50479000Y-71970642D01*
X50479000Y-71793358D01*
X50444414Y-71619480D01*
X50376570Y-71455690D01*
X50327332Y-71382000D01*
X51929000Y-71382000D01*
X51929000Y-70732027D01*
X51928999Y-70732014D01*
X51918506Y-70629310D01*
X51918505Y-70629303D01*
X51863358Y-70462881D01*
X51863356Y-70462876D01*
X51771315Y-70313655D01*
X51647344Y-70189684D01*
X51498123Y-70097643D01*
X51498118Y-70097641D01*
X51331696Y-70042494D01*
X51331689Y-70042493D01*
X51228985Y-70032000D01*
X50079000Y-70032000D01*
X50079000Y-71133667D01*
X50005310Y-71084430D01*
X49841520Y-71016586D01*
X49667642Y-70982000D01*
X49490358Y-70982000D01*
X49316480Y-71016586D01*
X49152690Y-71084430D01*
X49079000Y-71133667D01*
X49079000Y-70032000D01*
X47929014Y-70032000D01*
X47826310Y-70042493D01*
X47826303Y-70042494D01*
X47659881Y-70097641D01*
X47659876Y-70097643D01*
X47510655Y-70189684D01*
X47386684Y-70313655D01*
X47294643Y-70462876D01*
X47294641Y-70462881D01*
X47239494Y-70629303D01*
X47239493Y-70629310D01*
X47229000Y-70732014D01*
X43603041Y-70732014D01*
X43597918Y-70725338D01*
X43597911Y-70725330D01*
X43435670Y-70563089D01*
X43435661Y-70563081D01*
X43253617Y-70423392D01*
X43054890Y-70308657D01*
X43054876Y-70308650D01*
X42842887Y-70220842D01*
X42726602Y-70189684D01*
X42621238Y-70161452D01*
X42583215Y-70156446D01*
X42393741Y-70131500D01*
X42393734Y-70131500D01*
X42164266Y-70131500D01*
X42164258Y-70131500D01*
X41947715Y-70160009D01*
X41936762Y-70161452D01*
X41843076Y-70186554D01*
X41715112Y-70220842D01*
X41503123Y-70308650D01*
X41503109Y-70308657D01*
X41304382Y-70423392D01*
X41122338Y-70563081D01*
X40960081Y-70725338D01*
X40820392Y-70907382D01*
X40705657Y-71106109D01*
X40705650Y-71106123D01*
X40617842Y-71318112D01*
X40558453Y-71539759D01*
X40558451Y-71539770D01*
X40528500Y-71767258D01*
X40260500Y-71767258D01*
X40260500Y-67181999D01*
X47297714Y-67181999D01*
X47297714Y-67182000D01*
X48830668Y-67182000D01*
X48781430Y-67255690D01*
X48713586Y-67419480D01*
X48679000Y-67593358D01*
X48679000Y-67770642D01*
X48713586Y-67944520D01*
X48781430Y-68108310D01*
X48830668Y-68182000D01*
X47297714Y-68182000D01*
X47323421Y-68277939D01*
X47416220Y-68501978D01*
X47416227Y-68501993D01*
X47537480Y-68712009D01*
X47685110Y-68904405D01*
X47685116Y-68904412D01*
X47856587Y-69075883D01*
X47856594Y-69075889D01*
X48048990Y-69223519D01*
X48259006Y-69344772D01*
X48259021Y-69344779D01*
X48483060Y-69437578D01*
X48717312Y-69500346D01*
X48957735Y-69531998D01*
X48957752Y-69532000D01*
X49079000Y-69532000D01*
X49079000Y-68430332D01*
X49152690Y-68479570D01*
X49316480Y-68547414D01*
X49490358Y-68582000D01*
X49667642Y-68582000D01*
X49841520Y-68547414D01*
X50005310Y-68479570D01*
X50079000Y-68430332D01*
X50079000Y-69532000D01*
X50200248Y-69532000D01*
X50200264Y-69531998D01*
X50440687Y-69500346D01*
X50674939Y-69437578D01*
X50898978Y-69344779D01*
X50898993Y-69344772D01*
X51109009Y-69223519D01*
X51301405Y-69075889D01*
X51301412Y-69075883D01*
X51472883Y-68904412D01*
X51472889Y-68904405D01*
X51620519Y-68712009D01*
X51741772Y-68501993D01*
X51741779Y-68501978D01*
X51834578Y-68277939D01*
X51860286Y-68182000D01*
X50327332Y-68182000D01*
X50376570Y-68108310D01*
X50444414Y-67944520D01*
X50479000Y-67770642D01*
X50479000Y-67593358D01*
X50444414Y-67419480D01*
X50376570Y-67255690D01*
X50327332Y-67182000D01*
X51860286Y-67182000D01*
X51860285Y-67181999D01*
X51834578Y-67086060D01*
X51741779Y-66862021D01*
X51741772Y-66862006D01*
X51620519Y-66651990D01*
X51472889Y-66459594D01*
X51472883Y-66459587D01*
X51301412Y-66288116D01*
X51301405Y-66288110D01*
X51109009Y-66140480D01*
X50898993Y-66019227D01*
X50898978Y-66019220D01*
X50674939Y-65926421D01*
X50440687Y-65863653D01*
X50200264Y-65832001D01*
X50200248Y-65832000D01*
X50079000Y-65832000D01*
X50079000Y-66933667D01*
X50005310Y-66884430D01*
X49841520Y-66816586D01*
X49667642Y-66782000D01*
X49490358Y-66782000D01*
X49316480Y-66816586D01*
X49152690Y-66884430D01*
X49079000Y-66933667D01*
X49079000Y-65832000D01*
X48957752Y-65832000D01*
X48957735Y-65832001D01*
X48717312Y-65863653D01*
X48483060Y-65926421D01*
X48259021Y-66019220D01*
X48259006Y-66019227D01*
X48048990Y-66140480D01*
X47856594Y-66288110D01*
X47856587Y-66288116D01*
X47685116Y-66459587D01*
X47685110Y-66459594D01*
X47537480Y-66651990D01*
X47416227Y-66862006D01*
X47416220Y-66862021D01*
X47323421Y-67086060D01*
X47297714Y-67181999D01*
X40260500Y-67181999D01*
X40260500Y-63367258D01*
X40528500Y-63367258D01*
X40528500Y-63596741D01*
X40547957Y-63744520D01*
X40558452Y-63824238D01*
X40558453Y-63824240D01*
X40617842Y-64045887D01*
X40705650Y-64257876D01*
X40705657Y-64257890D01*
X40820392Y-64456617D01*
X40960081Y-64638661D01*
X40960089Y-64638670D01*
X41122330Y-64800911D01*
X41122338Y-64800918D01*
X41304382Y-64940607D01*
X41304385Y-64940608D01*
X41304388Y-64940611D01*
X41503112Y-65055344D01*
X41503117Y-65055346D01*
X41503123Y-65055349D01*
X41594480Y-65093190D01*
X41715113Y-65143158D01*
X41936762Y-65202548D01*
X42164266Y-65232500D01*
X42164273Y-65232500D01*
X42393727Y-65232500D01*
X42393734Y-65232500D01*
X42621238Y-65202548D01*
X42842887Y-65143158D01*
X43054888Y-65055344D01*
X43253612Y-64940611D01*
X43435661Y-64800919D01*
X43435665Y-64800914D01*
X43435670Y-64800911D01*
X43597911Y-64638670D01*
X43597914Y-64638665D01*
X43597919Y-64638661D01*
X43737611Y-64456612D01*
X43852344Y-64257888D01*
X43940158Y-64045887D01*
X43999548Y-63824238D01*
X44029500Y-63596734D01*
X44029500Y-63367266D01*
X43999548Y-63139762D01*
X43957276Y-62981999D01*
X47297714Y-62981999D01*
X47297714Y-62982000D01*
X48830668Y-62982000D01*
X48781430Y-63055690D01*
X48713586Y-63219480D01*
X48679000Y-63393358D01*
X48679000Y-63570642D01*
X48713586Y-63744520D01*
X48781430Y-63908310D01*
X48830668Y-63982000D01*
X47297714Y-63982000D01*
X47323421Y-64077939D01*
X47416220Y-64301978D01*
X47416227Y-64301993D01*
X47537480Y-64512009D01*
X47685110Y-64704405D01*
X47685116Y-64704412D01*
X47856587Y-64875883D01*
X47856594Y-64875889D01*
X48048990Y-65023519D01*
X48259006Y-65144772D01*
X48259021Y-65144779D01*
X48483060Y-65237578D01*
X48717312Y-65300346D01*
X48957735Y-65331998D01*
X48957752Y-65332000D01*
X49079000Y-65332000D01*
X49079000Y-64230332D01*
X49152690Y-64279570D01*
X49316480Y-64347414D01*
X49490358Y-64382000D01*
X49667642Y-64382000D01*
X49841520Y-64347414D01*
X50005310Y-64279570D01*
X50079000Y-64230332D01*
X50079000Y-65332000D01*
X50200248Y-65332000D01*
X50200264Y-65331998D01*
X50440687Y-65300346D01*
X50674939Y-65237578D01*
X50898978Y-65144779D01*
X50898993Y-65144772D01*
X51109009Y-65023519D01*
X51301405Y-64875889D01*
X51301412Y-64875883D01*
X51472883Y-64704412D01*
X51472889Y-64704405D01*
X51620519Y-64512009D01*
X51741772Y-64301993D01*
X51741779Y-64301978D01*
X51834578Y-64077939D01*
X51860286Y-63982000D01*
X50327332Y-63982000D01*
X50376570Y-63908310D01*
X50444414Y-63744520D01*
X50479000Y-63570642D01*
X50479000Y-63393358D01*
X50444414Y-63219480D01*
X50376570Y-63055690D01*
X50327332Y-62982000D01*
X51860286Y-62982000D01*
X51860285Y-62981999D01*
X51834578Y-62886060D01*
X51741779Y-62662021D01*
X51741772Y-62662006D01*
X51620519Y-62451990D01*
X51472889Y-62259594D01*
X51472883Y-62259587D01*
X51301412Y-62088116D01*
X51301405Y-62088110D01*
X51109009Y-61940480D01*
X50898993Y-61819227D01*
X50898978Y-61819220D01*
X50674939Y-61726421D01*
X50440687Y-61663653D01*
X50200264Y-61632001D01*
X50200248Y-61632000D01*
X50079000Y-61632000D01*
X50079000Y-62733667D01*
X50005310Y-62684430D01*
X49841520Y-62616586D01*
X49667642Y-62582000D01*
X49490358Y-62582000D01*
X49316480Y-62616586D01*
X49152690Y-62684430D01*
X49079000Y-62733667D01*
X49079000Y-61632000D01*
X48957752Y-61632000D01*
X48957735Y-61632001D01*
X48717312Y-61663653D01*
X48483060Y-61726421D01*
X48259021Y-61819220D01*
X48259006Y-61819227D01*
X48048990Y-61940480D01*
X47856594Y-62088110D01*
X47856587Y-62088116D01*
X47685116Y-62259587D01*
X47685110Y-62259594D01*
X47537480Y-62451990D01*
X47416227Y-62662006D01*
X47416220Y-62662021D01*
X47323421Y-62886060D01*
X47297714Y-62981999D01*
X43957276Y-62981999D01*
X43940158Y-62918113D01*
X43852344Y-62706112D01*
X43737611Y-62507388D01*
X43737608Y-62507385D01*
X43737607Y-62507382D01*
X43597918Y-62325338D01*
X43597911Y-62325330D01*
X43435670Y-62163089D01*
X43435661Y-62163081D01*
X43253617Y-62023392D01*
X43054890Y-61908657D01*
X43054876Y-61908650D01*
X42842887Y-61820842D01*
X42836860Y-61819227D01*
X42621238Y-61761452D01*
X42583215Y-61756446D01*
X42393741Y-61731500D01*
X42393734Y-61731500D01*
X42164266Y-61731500D01*
X42164258Y-61731500D01*
X41947715Y-61760009D01*
X41936762Y-61761452D01*
X41843076Y-61786554D01*
X41715112Y-61820842D01*
X41503123Y-61908650D01*
X41503109Y-61908657D01*
X41304382Y-62023392D01*
X41122338Y-62163081D01*
X40960081Y-62325338D01*
X40820392Y-62507382D01*
X40705657Y-62706109D01*
X40705650Y-62706123D01*
X40617842Y-62918112D01*
X40558453Y-63139759D01*
X40558451Y-63139770D01*
X40528500Y-63367258D01*
X40260500Y-63367258D01*
X40260500Y-58661992D01*
X43757171Y-58661992D01*
X43757171Y-58662007D01*
X43776464Y-58956363D01*
X43776465Y-58956373D01*
X43776466Y-58956380D01*
X43776468Y-58956390D01*
X43834018Y-59245716D01*
X43834021Y-59245730D01*
X43928849Y-59525080D01*
X44059325Y-59789660D01*
X44059329Y-59789667D01*
X44223225Y-60034955D01*
X44417741Y-60256758D01*
X44639544Y-60451274D01*
X44656821Y-60462818D01*
X44884835Y-60615172D01*
X45149423Y-60745652D01*
X45428778Y-60840481D01*
X45718120Y-60898034D01*
X45746388Y-60899886D01*
X46012493Y-60917329D01*
X46012500Y-60917329D01*
X46012507Y-60917329D01*
X46248175Y-60901881D01*
X46306880Y-60898034D01*
X46596222Y-60840481D01*
X46875577Y-60745652D01*
X47140165Y-60615172D01*
X47385457Y-60451273D01*
X47607258Y-60256758D01*
X47801773Y-60034957D01*
X47965672Y-59789665D01*
X48096152Y-59525077D01*
X48190981Y-59245722D01*
X48248534Y-58956380D01*
X48267829Y-58662000D01*
X48267829Y-58661992D01*
X48248535Y-58367636D01*
X48248534Y-58367620D01*
X48190981Y-58078278D01*
X48096152Y-57798923D01*
X47965672Y-57534336D01*
X47801773Y-57289043D01*
X47759155Y-57240447D01*
X47607258Y-57067241D01*
X47385455Y-56872725D01*
X47140167Y-56708829D01*
X47140160Y-56708825D01*
X46875580Y-56578349D01*
X46596230Y-56483521D01*
X46596224Y-56483519D01*
X46596222Y-56483519D01*
X46306880Y-56425966D01*
X46306873Y-56425965D01*
X46306863Y-56425964D01*
X46012507Y-56406671D01*
X46012493Y-56406671D01*
X45718136Y-56425964D01*
X45718124Y-56425965D01*
X45718120Y-56425966D01*
X45718112Y-56425967D01*
X45718109Y-56425968D01*
X45428783Y-56483518D01*
X45428769Y-56483521D01*
X45149419Y-56578349D01*
X44884834Y-56708828D01*
X44639541Y-56872728D01*
X44417741Y-57067241D01*
X44223228Y-57289041D01*
X44059328Y-57534334D01*
X43928849Y-57798919D01*
X43834021Y-58078269D01*
X43834018Y-58078283D01*
X43776468Y-58367609D01*
X43776464Y-58367636D01*
X43757171Y-58661992D01*
X40260500Y-58661992D01*
X40260500Y-51391999D01*
X47366841Y-51391999D01*
X47366841Y-51392000D01*
X47387436Y-51627403D01*
X47387438Y-51627413D01*
X47448594Y-51855655D01*
X47448596Y-51855659D01*
X47448597Y-51855663D01*
X47548465Y-52069830D01*
X47548467Y-52069834D01*
X47684001Y-52263395D01*
X47684006Y-52263402D01*
X47851097Y-52430493D01*
X47851103Y-52430498D01*
X48008095Y-52540425D01*
X48051720Y-52595002D01*
X48058914Y-52664500D01*
X48027391Y-52726855D01*
X48008095Y-52743575D01*
X47851097Y-52853505D01*
X47684005Y-53020597D01*
X47548465Y-53214169D01*
X47548464Y-53214171D01*
X47448598Y-53428335D01*
X47448594Y-53428344D01*
X47387438Y-53656586D01*
X47387436Y-53656596D01*
X47366841Y-53891999D01*
X47366841Y-53892000D01*
X47387436Y-54127403D01*
X47387438Y-54127413D01*
X47448594Y-54355655D01*
X47448596Y-54355659D01*
X47448597Y-54355663D01*
X47548465Y-54569830D01*
X47548467Y-54569834D01*
X47656781Y-54724521D01*
X47684005Y-54763401D01*
X47851099Y-54930495D01*
X47947884Y-54998265D01*
X48044665Y-55066032D01*
X48044667Y-55066033D01*
X48044670Y-55066035D01*
X48258837Y-55165903D01*
X48487092Y-55227063D01*
X48663534Y-55242500D01*
X48722499Y-55247659D01*
X48722500Y-55247659D01*
X48722501Y-55247659D01*
X48781466Y-55242500D01*
X48957908Y-55227063D01*
X49186163Y-55165903D01*
X49376957Y-55076933D01*
X49446033Y-55066442D01*
X49509817Y-55094962D01*
X49514044Y-55098865D01*
X49630164Y-55185793D01*
X49630171Y-55185797D01*
X49765017Y-55236091D01*
X49765016Y-55236091D01*
X49771944Y-55236835D01*
X49824627Y-55242500D01*
X51620372Y-55242499D01*
X51679983Y-55236091D01*
X51814831Y-55185796D01*
X51930046Y-55099546D01*
X52016296Y-54984331D01*
X52066591Y-54849483D01*
X52073000Y-54789873D01*
X52072999Y-52994128D01*
X52066591Y-52934517D01*
X52016296Y-52799669D01*
X52016295Y-52799668D01*
X52016293Y-52799664D01*
X51930047Y-52684455D01*
X51930044Y-52684452D01*
X51814835Y-52598206D01*
X51814828Y-52598202D01*
X51712551Y-52560056D01*
X51656617Y-52518185D01*
X51632200Y-52452721D01*
X51647051Y-52384448D01*
X51668203Y-52356193D01*
X51760995Y-52263401D01*
X51896535Y-52069830D01*
X51996403Y-51855663D01*
X52057563Y-51627408D01*
X52078159Y-51392000D01*
X52057563Y-51156592D01*
X51996403Y-50928337D01*
X51896535Y-50714171D01*
X51760995Y-50520599D01*
X51760994Y-50520597D01*
X51593902Y-50353506D01*
X51593895Y-50353501D01*
X51400334Y-50217967D01*
X51400330Y-50217965D01*
X51400328Y-50217964D01*
X51186163Y-50118097D01*
X51186159Y-50118096D01*
X51186155Y-50118094D01*
X50957913Y-50056938D01*
X50957903Y-50056936D01*
X50722501Y-50036341D01*
X50722499Y-50036341D01*
X50487096Y-50056936D01*
X50487086Y-50056938D01*
X50258844Y-50118094D01*
X50258835Y-50118098D01*
X50044671Y-50217964D01*
X50044669Y-50217965D01*
X49851096Y-50353506D01*
X49810179Y-50394423D01*
X49748856Y-50427908D01*
X49679164Y-50422922D01*
X49634818Y-50394422D01*
X49593902Y-50353506D01*
X49593895Y-50353501D01*
X49400334Y-50217967D01*
X49400330Y-50217965D01*
X49400328Y-50217964D01*
X49186163Y-50118097D01*
X49186159Y-50118096D01*
X49186155Y-50118094D01*
X48957913Y-50056938D01*
X48957903Y-50056936D01*
X48722501Y-50036341D01*
X48722499Y-50036341D01*
X48487096Y-50056936D01*
X48487086Y-50056938D01*
X48258844Y-50118094D01*
X48258835Y-50118098D01*
X48044671Y-50217964D01*
X48044669Y-50217965D01*
X47851097Y-50353505D01*
X47684005Y-50520597D01*
X47548465Y-50714169D01*
X47548464Y-50714171D01*
X47448598Y-50928335D01*
X47448594Y-50928344D01*
X47387438Y-51156586D01*
X47387436Y-51156596D01*
X47366841Y-51391999D01*
X40260500Y-51391999D01*
X40260500Y-46621992D01*
X43757171Y-46621992D01*
X43757171Y-46622007D01*
X43776464Y-46916363D01*
X43776465Y-46916373D01*
X43776466Y-46916380D01*
X43776468Y-46916390D01*
X43834018Y-47205716D01*
X43834021Y-47205730D01*
X43928849Y-47485080D01*
X44059325Y-47749660D01*
X44059329Y-47749667D01*
X44223225Y-47994955D01*
X44417741Y-48216758D01*
X44639543Y-48411273D01*
X44884835Y-48575172D01*
X45149423Y-48705652D01*
X45428778Y-48800481D01*
X45718120Y-48858034D01*
X45746388Y-48859886D01*
X46012493Y-48877329D01*
X46012500Y-48877329D01*
X46012507Y-48877329D01*
X46248175Y-48861881D01*
X46306880Y-48858034D01*
X46596222Y-48800481D01*
X46875577Y-48705652D01*
X47140165Y-48575172D01*
X47385457Y-48411273D01*
X47607258Y-48216758D01*
X47801773Y-47994957D01*
X47965672Y-47749665D01*
X48096152Y-47485077D01*
X48190981Y-47205722D01*
X48248534Y-46916380D01*
X48259815Y-46744272D01*
X48267829Y-46622007D01*
X48267829Y-46621992D01*
X48248535Y-46327636D01*
X48248534Y-46327620D01*
X48190981Y-46038278D01*
X48096152Y-45758923D01*
X47965672Y-45494336D01*
X47801773Y-45249043D01*
X47700384Y-45133431D01*
X47607258Y-45027241D01*
X47385455Y-44832725D01*
X47140167Y-44668829D01*
X47140160Y-44668825D01*
X46875580Y-44538349D01*
X46596230Y-44443521D01*
X46596224Y-44443519D01*
X46596222Y-44443519D01*
X46306880Y-44385966D01*
X46306873Y-44385965D01*
X46306863Y-44385964D01*
X46012507Y-44366671D01*
X46012493Y-44366671D01*
X45718136Y-44385964D01*
X45718124Y-44385965D01*
X45718120Y-44385966D01*
X45718112Y-44385967D01*
X45718109Y-44385968D01*
X45428783Y-44443518D01*
X45428769Y-44443521D01*
X45149419Y-44538349D01*
X44884834Y-44668828D01*
X44639541Y-44832728D01*
X44417741Y-45027241D01*
X44223228Y-45249041D01*
X44059328Y-45494334D01*
X43928849Y-45758919D01*
X43834021Y-46038269D01*
X43834018Y-46038283D01*
X43776468Y-46327609D01*
X43776464Y-46327636D01*
X43757171Y-46621992D01*
X40260500Y-46621992D01*
X40260500Y-41677258D01*
X40655500Y-41677258D01*
X40655500Y-41906741D01*
X40674957Y-42054520D01*
X40685452Y-42134238D01*
X40685453Y-42134240D01*
X40744842Y-42355887D01*
X40832650Y-42567876D01*
X40832657Y-42567890D01*
X40947392Y-42766617D01*
X41087081Y-42948661D01*
X41087089Y-42948670D01*
X41249330Y-43110911D01*
X41249338Y-43110918D01*
X41431382Y-43250607D01*
X41431385Y-43250608D01*
X41431388Y-43250611D01*
X41630112Y-43365344D01*
X41630117Y-43365346D01*
X41630123Y-43365349D01*
X41721480Y-43403190D01*
X41842113Y-43453158D01*
X42063762Y-43512548D01*
X42291266Y-43542500D01*
X42291273Y-43542500D01*
X42520727Y-43542500D01*
X42520734Y-43542500D01*
X42748238Y-43512548D01*
X42969887Y-43453158D01*
X43181888Y-43365344D01*
X43380612Y-43250611D01*
X43562661Y-43110919D01*
X43562665Y-43110914D01*
X43562670Y-43110911D01*
X43724911Y-42948670D01*
X43724914Y-42948665D01*
X43724919Y-42948661D01*
X43864611Y-42766612D01*
X43979344Y-42567888D01*
X44067158Y-42355887D01*
X44126548Y-42134238D01*
X44156500Y-41906734D01*
X44156500Y-41677266D01*
X44126548Y-41449762D01*
X44067158Y-41228113D01*
X43979344Y-41016112D01*
X43864611Y-40817388D01*
X43864608Y-40817385D01*
X43864607Y-40817382D01*
X43730041Y-40642014D01*
X47356000Y-40642014D01*
X47356000Y-41292000D01*
X48957668Y-41292000D01*
X48908430Y-41365690D01*
X48840586Y-41529480D01*
X48806000Y-41703358D01*
X48806000Y-41880642D01*
X48840586Y-42054520D01*
X48908430Y-42218310D01*
X48957668Y-42292000D01*
X47356000Y-42292000D01*
X47356000Y-42941985D01*
X47366493Y-43044689D01*
X47366494Y-43044696D01*
X47421641Y-43211118D01*
X47421643Y-43211123D01*
X47513684Y-43360344D01*
X47637655Y-43484315D01*
X47786876Y-43576356D01*
X47786881Y-43576358D01*
X47953303Y-43631505D01*
X47953310Y-43631506D01*
X48056014Y-43641999D01*
X48056027Y-43642000D01*
X49206000Y-43642000D01*
X49206000Y-42540332D01*
X49279690Y-42589570D01*
X49443480Y-42657414D01*
X49617358Y-42692000D01*
X49794642Y-42692000D01*
X49968520Y-42657414D01*
X50132310Y-42589570D01*
X50206000Y-42540332D01*
X50206000Y-43642000D01*
X51355973Y-43642000D01*
X51355985Y-43641999D01*
X51458689Y-43631506D01*
X51458696Y-43631505D01*
X51625118Y-43576358D01*
X51625123Y-43576356D01*
X51774344Y-43484315D01*
X51898315Y-43360344D01*
X51990356Y-43211123D01*
X51990358Y-43211118D01*
X52045505Y-43044696D01*
X52045506Y-43044689D01*
X52055999Y-42941985D01*
X52056000Y-42941972D01*
X52056000Y-42292000D01*
X50454332Y-42292000D01*
X50503570Y-42218310D01*
X50571414Y-42054520D01*
X50606000Y-41880642D01*
X50606000Y-41703358D01*
X50571414Y-41529480D01*
X50503570Y-41365690D01*
X50454332Y-41292000D01*
X52056000Y-41292000D01*
X52056000Y-40642027D01*
X52055999Y-40642014D01*
X52045506Y-40539310D01*
X52045505Y-40539303D01*
X51990358Y-40372881D01*
X51990356Y-40372876D01*
X51898315Y-40223655D01*
X51774344Y-40099684D01*
X51625123Y-40007643D01*
X51625118Y-40007641D01*
X51458696Y-39952494D01*
X51458689Y-39952493D01*
X51355985Y-39942000D01*
X50206000Y-39942000D01*
X50206000Y-41043667D01*
X50132310Y-40994430D01*
X49968520Y-40926586D01*
X49794642Y-40892000D01*
X49617358Y-40892000D01*
X49443480Y-40926586D01*
X49279690Y-40994430D01*
X49206000Y-41043667D01*
X49206000Y-39942000D01*
X48056014Y-39942000D01*
X47953310Y-39952493D01*
X47953303Y-39952494D01*
X47786881Y-40007641D01*
X47786876Y-40007643D01*
X47637655Y-40099684D01*
X47513684Y-40223655D01*
X47421643Y-40372876D01*
X47421641Y-40372881D01*
X47366494Y-40539303D01*
X47366493Y-40539310D01*
X47356000Y-40642014D01*
X43730041Y-40642014D01*
X43724918Y-40635338D01*
X43724911Y-40635330D01*
X43562670Y-40473089D01*
X43562661Y-40473081D01*
X43380617Y-40333392D01*
X43181890Y-40218657D01*
X43181876Y-40218650D01*
X42969887Y-40130842D01*
X42853602Y-40099684D01*
X42748238Y-40071452D01*
X42710215Y-40066446D01*
X42520741Y-40041500D01*
X42520734Y-40041500D01*
X42291266Y-40041500D01*
X42291258Y-40041500D01*
X42074715Y-40070009D01*
X42063762Y-40071452D01*
X41970076Y-40096554D01*
X41842112Y-40130842D01*
X41630123Y-40218650D01*
X41630109Y-40218657D01*
X41431382Y-40333392D01*
X41249338Y-40473081D01*
X41087081Y-40635338D01*
X40947392Y-40817382D01*
X40832657Y-41016109D01*
X40832650Y-41016123D01*
X40744842Y-41228112D01*
X40685453Y-41449759D01*
X40685451Y-41449770D01*
X40655500Y-41677258D01*
X40260500Y-41677258D01*
X40260500Y-37091999D01*
X47424714Y-37091999D01*
X47424714Y-37092000D01*
X48957668Y-37092000D01*
X48908430Y-37165690D01*
X48840586Y-37329480D01*
X48806000Y-37503358D01*
X48806000Y-37680642D01*
X48840586Y-37854520D01*
X48908430Y-38018310D01*
X48957668Y-38092000D01*
X47424714Y-38092000D01*
X47450421Y-38187939D01*
X47543220Y-38411978D01*
X47543227Y-38411993D01*
X47664480Y-38622009D01*
X47812110Y-38814405D01*
X47812116Y-38814412D01*
X47983587Y-38985883D01*
X47983594Y-38985889D01*
X48175990Y-39133519D01*
X48386006Y-39254772D01*
X48386021Y-39254779D01*
X48610060Y-39347578D01*
X48844312Y-39410346D01*
X49084735Y-39441998D01*
X49084752Y-39442000D01*
X49206000Y-39442000D01*
X49206000Y-38340332D01*
X49279690Y-38389570D01*
X49443480Y-38457414D01*
X49617358Y-38492000D01*
X49794642Y-38492000D01*
X49968520Y-38457414D01*
X50132310Y-38389570D01*
X50206000Y-38340332D01*
X50206000Y-39442000D01*
X50327248Y-39442000D01*
X50327264Y-39441998D01*
X50567687Y-39410346D01*
X50801939Y-39347578D01*
X51025978Y-39254779D01*
X51025993Y-39254772D01*
X51236009Y-39133519D01*
X51428405Y-38985889D01*
X51428412Y-38985883D01*
X51599883Y-38814412D01*
X51599889Y-38814405D01*
X51747519Y-38622009D01*
X51868772Y-38411993D01*
X51868779Y-38411978D01*
X51961578Y-38187939D01*
X51987286Y-38092000D01*
X50454332Y-38092000D01*
X50503570Y-38018310D01*
X50571414Y-37854520D01*
X50606000Y-37680642D01*
X50606000Y-37503358D01*
X50571414Y-37329480D01*
X50503570Y-37165690D01*
X50454332Y-37092000D01*
X51987286Y-37092000D01*
X51987285Y-37091999D01*
X51961578Y-36996060D01*
X51868779Y-36772021D01*
X51868772Y-36772006D01*
X51747519Y-36561990D01*
X51599889Y-36369594D01*
X51599883Y-36369587D01*
X51428412Y-36198116D01*
X51428405Y-36198110D01*
X51236009Y-36050480D01*
X51025993Y-35929227D01*
X51025978Y-35929220D01*
X50801939Y-35836421D01*
X50567687Y-35773653D01*
X50327264Y-35742001D01*
X50327248Y-35742000D01*
X50206000Y-35742000D01*
X50206000Y-36843667D01*
X50132310Y-36794430D01*
X49968520Y-36726586D01*
X49794642Y-36692000D01*
X49617358Y-36692000D01*
X49443480Y-36726586D01*
X49279690Y-36794430D01*
X49206000Y-36843667D01*
X49206000Y-35742000D01*
X49084752Y-35742000D01*
X49084735Y-35742001D01*
X48844312Y-35773653D01*
X48610060Y-35836421D01*
X48386021Y-35929220D01*
X48386006Y-35929227D01*
X48175990Y-36050480D01*
X47983594Y-36198110D01*
X47983587Y-36198116D01*
X47812116Y-36369587D01*
X47812110Y-36369594D01*
X47664480Y-36561990D01*
X47543227Y-36772006D01*
X47543220Y-36772021D01*
X47450421Y-36996060D01*
X47424714Y-37091999D01*
X40260500Y-37091999D01*
X40260500Y-33277258D01*
X40655500Y-33277258D01*
X40655500Y-33506741D01*
X40674957Y-33654520D01*
X40685452Y-33734238D01*
X40685453Y-33734240D01*
X40744842Y-33955887D01*
X40832650Y-34167876D01*
X40832657Y-34167890D01*
X40947392Y-34366617D01*
X41087081Y-34548661D01*
X41087089Y-34548670D01*
X41249330Y-34710911D01*
X41249338Y-34710918D01*
X41431382Y-34850607D01*
X41431385Y-34850608D01*
X41431388Y-34850611D01*
X41630112Y-34965344D01*
X41630117Y-34965346D01*
X41630123Y-34965349D01*
X41721480Y-35003190D01*
X41842113Y-35053158D01*
X42063762Y-35112548D01*
X42291266Y-35142500D01*
X42291273Y-35142500D01*
X42520727Y-35142500D01*
X42520734Y-35142500D01*
X42748238Y-35112548D01*
X42969887Y-35053158D01*
X43181888Y-34965344D01*
X43380612Y-34850611D01*
X43562661Y-34710919D01*
X43562665Y-34710914D01*
X43562670Y-34710911D01*
X43724911Y-34548670D01*
X43724914Y-34548665D01*
X43724919Y-34548661D01*
X43864611Y-34366612D01*
X43979344Y-34167888D01*
X44067158Y-33955887D01*
X44126548Y-33734238D01*
X44156500Y-33506734D01*
X44156500Y-33277266D01*
X44126548Y-33049762D01*
X44084276Y-32891999D01*
X47424714Y-32891999D01*
X47424714Y-32892000D01*
X48957668Y-32892000D01*
X48908430Y-32965690D01*
X48840586Y-33129480D01*
X48806000Y-33303358D01*
X48806000Y-33480642D01*
X48840586Y-33654520D01*
X48908430Y-33818310D01*
X48957668Y-33892000D01*
X47424714Y-33892000D01*
X47450421Y-33987939D01*
X47543220Y-34211978D01*
X47543227Y-34211993D01*
X47664480Y-34422009D01*
X47812110Y-34614405D01*
X47812116Y-34614412D01*
X47983587Y-34785883D01*
X47983594Y-34785889D01*
X48175990Y-34933519D01*
X48386006Y-35054772D01*
X48386021Y-35054779D01*
X48610060Y-35147578D01*
X48844312Y-35210346D01*
X49084735Y-35241998D01*
X49084752Y-35242000D01*
X49206000Y-35242000D01*
X49206000Y-34140332D01*
X49279690Y-34189570D01*
X49443480Y-34257414D01*
X49617358Y-34292000D01*
X49794642Y-34292000D01*
X49968520Y-34257414D01*
X50132310Y-34189570D01*
X50206000Y-34140332D01*
X50206000Y-35242000D01*
X50327248Y-35242000D01*
X50327264Y-35241998D01*
X50567687Y-35210346D01*
X50801939Y-35147578D01*
X51025978Y-35054779D01*
X51025993Y-35054772D01*
X51236009Y-34933519D01*
X51428405Y-34785889D01*
X51428412Y-34785883D01*
X51599883Y-34614412D01*
X51599889Y-34614405D01*
X51747519Y-34422009D01*
X51868772Y-34211993D01*
X51868779Y-34211978D01*
X51961578Y-33987939D01*
X51987286Y-33892000D01*
X50454332Y-33892000D01*
X50503570Y-33818310D01*
X50571414Y-33654520D01*
X50606000Y-33480642D01*
X50606000Y-33303358D01*
X50571414Y-33129480D01*
X50503570Y-32965690D01*
X50454332Y-32892000D01*
X51987286Y-32892000D01*
X51987285Y-32891999D01*
X51961578Y-32796060D01*
X51868779Y-32572021D01*
X51868772Y-32572006D01*
X51747519Y-32361990D01*
X51599889Y-32169594D01*
X51599883Y-32169587D01*
X51428412Y-31998116D01*
X51428405Y-31998110D01*
X51236009Y-31850480D01*
X51025993Y-31729227D01*
X51025978Y-31729220D01*
X50801939Y-31636421D01*
X50567687Y-31573653D01*
X50327264Y-31542001D01*
X50327248Y-31542000D01*
X50206000Y-31542000D01*
X50206000Y-32643667D01*
X50132310Y-32594430D01*
X49968520Y-32526586D01*
X49794642Y-32492000D01*
X49617358Y-32492000D01*
X49443480Y-32526586D01*
X49279690Y-32594430D01*
X49206000Y-32643667D01*
X49206000Y-31542000D01*
X49084752Y-31542000D01*
X49084735Y-31542001D01*
X48844312Y-31573653D01*
X48610060Y-31636421D01*
X48386021Y-31729220D01*
X48386006Y-31729227D01*
X48175990Y-31850480D01*
X47983594Y-31998110D01*
X47983587Y-31998116D01*
X47812116Y-32169587D01*
X47812110Y-32169594D01*
X47664480Y-32361990D01*
X47543227Y-32572006D01*
X47543220Y-32572021D01*
X47450421Y-32796060D01*
X47424714Y-32891999D01*
X44084276Y-32891999D01*
X44067158Y-32828113D01*
X43979344Y-32616112D01*
X43864611Y-32417388D01*
X43864608Y-32417385D01*
X43864607Y-32417382D01*
X43724918Y-32235338D01*
X43724911Y-32235330D01*
X43562670Y-32073089D01*
X43562661Y-32073081D01*
X43380617Y-31933392D01*
X43181890Y-31818657D01*
X43181876Y-31818650D01*
X42969887Y-31730842D01*
X42963860Y-31729227D01*
X42748238Y-31671452D01*
X42710215Y-31666446D01*
X42520741Y-31641500D01*
X42520734Y-31641500D01*
X42291266Y-31641500D01*
X42291258Y-31641500D01*
X42074715Y-31670009D01*
X42063762Y-31671452D01*
X41970076Y-31696554D01*
X41842112Y-31730842D01*
X41630123Y-31818650D01*
X41630109Y-31818657D01*
X41431382Y-31933392D01*
X41249338Y-32073081D01*
X41087081Y-32235338D01*
X40947392Y-32417382D01*
X40832657Y-32616109D01*
X40832650Y-32616123D01*
X40744842Y-32828112D01*
X40685453Y-33049759D01*
X40685451Y-33049770D01*
X40655500Y-33277258D01*
X40260500Y-33277258D01*
X40260500Y-30274500D01*
X40280185Y-30207461D01*
X40332989Y-30161706D01*
X40384500Y-30150500D01*
X52708000Y-30150500D01*
X52775039Y-30170185D01*
G37*
%TD.AperFunction*%
%TD*%
M02*
