%TF.GenerationSoftware,KiCad,Pcbnew,8.0.4*%
%TF.CreationDate,2024-12-04T14:23:44+01:00*%
%TF.ProjectId,ActivePedal,41637469-7665-4506-9564-616c2e6b6963,rev?*%
%TF.SameCoordinates,Original*%
%TF.FileFunction,Soldermask,Bot*%
%TF.FilePolarity,Negative*%
%FSLAX46Y46*%
G04 Gerber Fmt 4.6, Leading zero omitted, Abs format (unit mm)*
G04 Created by KiCad (PCBNEW 8.0.4) date 2024-12-04 14:23:44*
%MOMM*%
%LPD*%
G01*
G04 APERTURE LIST*
G04 Aperture macros list*
%AMRoundRect*
0 Rectangle with rounded corners*
0 $1 Rounding radius*
0 $2 $3 $4 $5 $6 $7 $8 $9 X,Y pos of 4 corners*
0 Add a 4 corners polygon primitive as box body*
4,1,4,$2,$3,$4,$5,$6,$7,$8,$9,$2,$3,0*
0 Add four circle primitives for the rounded corners*
1,1,$1+$1,$2,$3*
1,1,$1+$1,$4,$5*
1,1,$1+$1,$6,$7*
1,1,$1+$1,$8,$9*
0 Add four rect primitives between the rounded corners*
20,1,$1+$1,$2,$3,$4,$5,0*
20,1,$1+$1,$4,$5,$6,$7,0*
20,1,$1+$1,$6,$7,$8,$9,0*
20,1,$1+$1,$8,$9,$2,$3,0*%
G04 Aperture macros list end*
%ADD10RoundRect,0.250000X-0.600000X-0.725000X0.600000X-0.725000X0.600000X0.725000X-0.600000X0.725000X0*%
%ADD11O,1.700000X1.950000*%
%ADD12RoundRect,0.250000X-0.600000X-0.750000X0.600000X-0.750000X0.600000X0.750000X-0.600000X0.750000X0*%
%ADD13O,1.700000X2.000000*%
%ADD14R,1.200000X2.000000*%
%ADD15O,1.200000X2.000000*%
%ADD16R,3.800000X3.800000*%
%ADD17C,4.000000*%
%ADD18RoundRect,0.250000X0.600000X0.725000X-0.600000X0.725000X-0.600000X-0.725000X0.600000X-0.725000X0*%
%ADD19C,3.000000*%
%ADD20RoundRect,0.250001X1.599999X-1.099999X1.599999X1.099999X-1.599999X1.099999X-1.599999X-1.099999X0*%
%ADD21O,3.700000X2.700000*%
%ADD22R,1.524000X1.524000*%
%ADD23C,1.524000*%
%ADD24R,1.600000X1.600000*%
%ADD25O,1.600000X1.600000*%
%ADD26RoundRect,0.250000X0.600000X0.750000X-0.600000X0.750000X-0.600000X-0.750000X0.600000X-0.750000X0*%
%ADD27RoundRect,0.250000X0.725000X-0.600000X0.725000X0.600000X-0.725000X0.600000X-0.725000X-0.600000X0*%
%ADD28O,1.950000X1.700000*%
%ADD29R,1.700000X1.700000*%
%ADD30C,1.700000*%
%ADD31C,3.500000*%
%ADD32R,1.500000X1.500000*%
%ADD33C,1.500000*%
G04 APERTURE END LIST*
D10*
%TO.C,J2*%
X98378000Y-72009000D03*
D11*
X100878000Y-72009000D03*
X103378000Y-72009000D03*
%TD*%
D12*
%TO.C,J9*%
X98378000Y-65388000D03*
D13*
X100878000Y-65388000D03*
%TD*%
D14*
%TO.C,U1*%
X136245300Y-37976680D03*
D15*
X133705300Y-37976680D03*
X131165300Y-37976680D03*
X128625300Y-37976680D03*
X126085300Y-37976680D03*
X123545300Y-37976680D03*
X121005300Y-37976680D03*
X118465300Y-37976680D03*
X115925300Y-37976680D03*
X113385300Y-37976680D03*
X110845300Y-37976680D03*
X108305300Y-37976680D03*
X105765300Y-37976680D03*
X103225300Y-37976680D03*
X100685300Y-37976680D03*
X98145300Y-37976680D03*
X95605300Y-37976680D03*
X93065300Y-37976680D03*
X90525300Y-37976680D03*
X87988020Y-37973000D03*
X85448020Y-37973000D03*
X82908020Y-37973000D03*
X82905300Y-60836680D03*
X85445300Y-60836680D03*
X87985300Y-60836680D03*
X90525300Y-60836680D03*
X93065300Y-60836680D03*
X95605300Y-60836680D03*
X98145300Y-60836680D03*
X100685300Y-60836680D03*
X103225300Y-60836680D03*
X105765300Y-60836680D03*
X108305300Y-60836680D03*
X110845300Y-60836680D03*
X113385300Y-60836680D03*
X115925300Y-60836680D03*
X118465300Y-60836680D03*
X121005300Y-60836680D03*
X123545300Y-60836680D03*
X126085300Y-60836680D03*
X128625300Y-60836680D03*
X131165300Y-60836680D03*
X133705300Y-60836680D03*
X136245300Y-60836680D03*
%TD*%
D16*
%TO.C,J10*%
X65735000Y-58039000D03*
D17*
X65735000Y-53039000D03*
%TD*%
D18*
%TO.C,J3*%
X136993000Y-33401000D03*
D11*
X134493000Y-33401000D03*
X131993000Y-33401000D03*
X129493000Y-33401000D03*
X126993000Y-33401000D03*
%TD*%
D19*
%TO.C,J7*%
X42279000Y-71882000D03*
X42279000Y-63482000D03*
D20*
X49579000Y-71882000D03*
D21*
X49579000Y-67682000D03*
X49579000Y-63482000D03*
X55079000Y-71882000D03*
X55079000Y-67682000D03*
X55079000Y-63482000D03*
%TD*%
D22*
%TO.C,U3*%
X91694000Y-64008000D03*
D23*
X89154000Y-64008000D03*
X86614000Y-64008000D03*
X84074000Y-64008000D03*
X81534000Y-64008000D03*
X78994000Y-64008000D03*
X78994000Y-74168000D03*
X81534000Y-74168000D03*
X84074000Y-74168000D03*
X86614000Y-74168000D03*
X89154000Y-74168000D03*
X91694000Y-74168000D03*
%TD*%
D24*
%TO.C,SW1*%
X128910000Y-66336500D03*
D25*
X126370000Y-66336500D03*
X126370000Y-73956500D03*
X128910000Y-73956500D03*
%TD*%
D10*
%TO.C,J1*%
X111252000Y-71882000D03*
D11*
X113752000Y-71882000D03*
X116252000Y-71882000D03*
X118752000Y-71882000D03*
%TD*%
D26*
%TO.C,J4*%
X119467000Y-33401000D03*
D13*
X116967000Y-33401000D03*
%TD*%
D27*
%TO.C,J5*%
X56972000Y-56499000D03*
D28*
X56972000Y-53999000D03*
X56972000Y-51499000D03*
X56972000Y-48999000D03*
%TD*%
D19*
%TO.C,J8*%
X42406000Y-41792000D03*
X42406000Y-33392000D03*
D20*
X49706000Y-41792000D03*
D21*
X49706000Y-37592000D03*
X49706000Y-33392000D03*
X55206000Y-41792000D03*
X55206000Y-37592000D03*
X55206000Y-33392000D03*
%TD*%
D29*
%TO.C,J6*%
X50722500Y-53892000D03*
D30*
X50722500Y-51392000D03*
X48722500Y-51392000D03*
X48722500Y-53892000D03*
D31*
X46012500Y-58662000D03*
X46012500Y-46622000D03*
%TD*%
D26*
%TO.C,J11*%
X109180000Y-33401000D03*
D13*
X106680000Y-33401000D03*
%TD*%
D32*
%TO.C,PS1*%
X68326000Y-31750000D03*
D33*
X70866000Y-31750000D03*
X73406000Y-31750000D03*
%TD*%
D22*
%TO.C,U2*%
X80772000Y-58420000D03*
D23*
X80772000Y-55880000D03*
X80772000Y-53340000D03*
X80772000Y-50800000D03*
X80772000Y-48260000D03*
X80772000Y-45720000D03*
X80772000Y-43180000D03*
X80772000Y-40640000D03*
X135232000Y-58420000D03*
X135232000Y-55880000D03*
X135232000Y-53340000D03*
X135232000Y-50800000D03*
X135232000Y-48260000D03*
X135232000Y-45720000D03*
X135232000Y-43180000D03*
X135232000Y-40640000D03*
X137772000Y-58420000D03*
X137772000Y-55880000D03*
X137772000Y-53340000D03*
X137772000Y-50800000D03*
X137772000Y-48260000D03*
X137772000Y-45720000D03*
X137772000Y-43180000D03*
X137772000Y-40640000D03*
%TD*%
M02*
