%TF.GenerationSoftware,KiCad,Pcbnew,8.0.4*%
%TF.CreationDate,2024-12-04T14:23:44+01:00*%
%TF.ProjectId,ActivePedal,41637469-7665-4506-9564-616c2e6b6963,rev?*%
%TF.SameCoordinates,Original*%
%TF.FileFunction,Legend,Bot*%
%TF.FilePolarity,Positive*%
%FSLAX46Y46*%
G04 Gerber Fmt 4.6, Leading zero omitted, Abs format (unit mm)*
G04 Created by KiCad (PCBNEW 8.0.4) date 2024-12-04 14:23:44*
%MOMM*%
%LPD*%
G01*
G04 APERTURE LIST*
%ADD10C,0.150000*%
%ADD11C,0.100000*%
%ADD12C,0.200000*%
G04 APERTURE END LIST*
D10*
X105572160Y-49691895D02*
X106048350Y-49691895D01*
X105476922Y-49406180D02*
X105810255Y-50406180D01*
X105810255Y-50406180D02*
X106143588Y-49406180D01*
X106476922Y-49406180D02*
X106476922Y-50406180D01*
X106476922Y-50406180D02*
X106715017Y-50406180D01*
X106715017Y-50406180D02*
X106857874Y-50358561D01*
X106857874Y-50358561D02*
X106953112Y-50263323D01*
X106953112Y-50263323D02*
X107000731Y-50168085D01*
X107000731Y-50168085D02*
X107048350Y-49977609D01*
X107048350Y-49977609D02*
X107048350Y-49834752D01*
X107048350Y-49834752D02*
X107000731Y-49644276D01*
X107000731Y-49644276D02*
X106953112Y-49549038D01*
X106953112Y-49549038D02*
X106857874Y-49453800D01*
X106857874Y-49453800D02*
X106715017Y-49406180D01*
X106715017Y-49406180D02*
X106476922Y-49406180D01*
X107429303Y-49453800D02*
X107572160Y-49406180D01*
X107572160Y-49406180D02*
X107810255Y-49406180D01*
X107810255Y-49406180D02*
X107905493Y-49453800D01*
X107905493Y-49453800D02*
X107953112Y-49501419D01*
X107953112Y-49501419D02*
X108000731Y-49596657D01*
X108000731Y-49596657D02*
X108000731Y-49691895D01*
X108000731Y-49691895D02*
X107953112Y-49787133D01*
X107953112Y-49787133D02*
X107905493Y-49834752D01*
X107905493Y-49834752D02*
X107810255Y-49882371D01*
X107810255Y-49882371D02*
X107619779Y-49929990D01*
X107619779Y-49929990D02*
X107524541Y-49977609D01*
X107524541Y-49977609D02*
X107476922Y-50025228D01*
X107476922Y-50025228D02*
X107429303Y-50120466D01*
X107429303Y-50120466D02*
X107429303Y-50215704D01*
X107429303Y-50215704D02*
X107476922Y-50310942D01*
X107476922Y-50310942D02*
X107524541Y-50358561D01*
X107524541Y-50358561D02*
X107619779Y-50406180D01*
X107619779Y-50406180D02*
X107857874Y-50406180D01*
X107857874Y-50406180D02*
X108000731Y-50358561D01*
X108953112Y-49406180D02*
X108381684Y-49406180D01*
X108667398Y-49406180D02*
X108667398Y-50406180D01*
X108667398Y-50406180D02*
X108572160Y-50263323D01*
X108572160Y-50263323D02*
X108476922Y-50168085D01*
X108476922Y-50168085D02*
X108381684Y-50120466D01*
X109334065Y-50310942D02*
X109381684Y-50358561D01*
X109381684Y-50358561D02*
X109476922Y-50406180D01*
X109476922Y-50406180D02*
X109715017Y-50406180D01*
X109715017Y-50406180D02*
X109810255Y-50358561D01*
X109810255Y-50358561D02*
X109857874Y-50310942D01*
X109857874Y-50310942D02*
X109905493Y-50215704D01*
X109905493Y-50215704D02*
X109905493Y-50120466D01*
X109905493Y-50120466D02*
X109857874Y-49977609D01*
X109857874Y-49977609D02*
X109286446Y-49406180D01*
X109286446Y-49406180D02*
X109905493Y-49406180D01*
X110810255Y-50406180D02*
X110334065Y-50406180D01*
X110334065Y-50406180D02*
X110286446Y-49929990D01*
X110286446Y-49929990D02*
X110334065Y-49977609D01*
X110334065Y-49977609D02*
X110429303Y-50025228D01*
X110429303Y-50025228D02*
X110667398Y-50025228D01*
X110667398Y-50025228D02*
X110762636Y-49977609D01*
X110762636Y-49977609D02*
X110810255Y-49929990D01*
X110810255Y-49929990D02*
X110857874Y-49834752D01*
X110857874Y-49834752D02*
X110857874Y-49596657D01*
X110857874Y-49596657D02*
X110810255Y-49501419D01*
X110810255Y-49501419D02*
X110762636Y-49453800D01*
X110762636Y-49453800D02*
X110667398Y-49406180D01*
X110667398Y-49406180D02*
X110429303Y-49406180D01*
X110429303Y-49406180D02*
X110334065Y-49453800D01*
X110334065Y-49453800D02*
X110286446Y-49501419D01*
X111715017Y-50406180D02*
X111524541Y-50406180D01*
X111524541Y-50406180D02*
X111429303Y-50358561D01*
X111429303Y-50358561D02*
X111381684Y-50310942D01*
X111381684Y-50310942D02*
X111286446Y-50168085D01*
X111286446Y-50168085D02*
X111238827Y-49977609D01*
X111238827Y-49977609D02*
X111238827Y-49596657D01*
X111238827Y-49596657D02*
X111286446Y-49501419D01*
X111286446Y-49501419D02*
X111334065Y-49453800D01*
X111334065Y-49453800D02*
X111429303Y-49406180D01*
X111429303Y-49406180D02*
X111619779Y-49406180D01*
X111619779Y-49406180D02*
X111715017Y-49453800D01*
X111715017Y-49453800D02*
X111762636Y-49501419D01*
X111762636Y-49501419D02*
X111810255Y-49596657D01*
X111810255Y-49596657D02*
X111810255Y-49834752D01*
X111810255Y-49834752D02*
X111762636Y-49929990D01*
X111762636Y-49929990D02*
X111715017Y-49977609D01*
X111715017Y-49977609D02*
X111619779Y-50025228D01*
X111619779Y-50025228D02*
X111429303Y-50025228D01*
X111429303Y-50025228D02*
X111334065Y-49977609D01*
X111334065Y-49977609D02*
X111286446Y-49929990D01*
X111286446Y-49929990D02*
X111238827Y-49834752D01*
X69894571Y-38117704D02*
X69894571Y-38917704D01*
X69894571Y-38917704D02*
X70199333Y-38917704D01*
X70199333Y-38917704D02*
X70275523Y-38879609D01*
X70275523Y-38879609D02*
X70313618Y-38841514D01*
X70313618Y-38841514D02*
X70351714Y-38765323D01*
X70351714Y-38765323D02*
X70351714Y-38651038D01*
X70351714Y-38651038D02*
X70313618Y-38574847D01*
X70313618Y-38574847D02*
X70275523Y-38536752D01*
X70275523Y-38536752D02*
X70199333Y-38498657D01*
X70199333Y-38498657D02*
X69894571Y-38498657D01*
X70656475Y-38155800D02*
X70770761Y-38117704D01*
X70770761Y-38117704D02*
X70961237Y-38117704D01*
X70961237Y-38117704D02*
X71037428Y-38155800D01*
X71037428Y-38155800D02*
X71075523Y-38193895D01*
X71075523Y-38193895D02*
X71113618Y-38270085D01*
X71113618Y-38270085D02*
X71113618Y-38346276D01*
X71113618Y-38346276D02*
X71075523Y-38422466D01*
X71075523Y-38422466D02*
X71037428Y-38460561D01*
X71037428Y-38460561D02*
X70961237Y-38498657D01*
X70961237Y-38498657D02*
X70808856Y-38536752D01*
X70808856Y-38536752D02*
X70732666Y-38574847D01*
X70732666Y-38574847D02*
X70694571Y-38612942D01*
X70694571Y-38612942D02*
X70656475Y-38689133D01*
X70656475Y-38689133D02*
X70656475Y-38765323D01*
X70656475Y-38765323D02*
X70694571Y-38841514D01*
X70694571Y-38841514D02*
X70732666Y-38879609D01*
X70732666Y-38879609D02*
X70808856Y-38917704D01*
X70808856Y-38917704D02*
X70999333Y-38917704D01*
X70999333Y-38917704D02*
X71113618Y-38879609D01*
X71875523Y-38117704D02*
X71418380Y-38117704D01*
X71646952Y-38117704D02*
X71646952Y-38917704D01*
X71646952Y-38917704D02*
X71570761Y-38803419D01*
X71570761Y-38803419D02*
X71494571Y-38727228D01*
X71494571Y-38727228D02*
X71418380Y-38689133D01*
D11*
%TO.C,PS1*%
X65026000Y-31750000D02*
X65026000Y-31750000D01*
X65126000Y-31750000D02*
X65126000Y-31750000D01*
D12*
X65616000Y-30480000D02*
X76116000Y-30480000D01*
X65616000Y-46480000D02*
X65616000Y-30480000D01*
X76116000Y-30480000D02*
X76116000Y-46480000D01*
X76116000Y-46480000D02*
X65616000Y-46480000D01*
D11*
X65026000Y-31750000D02*
G75*
G02*
X65126000Y-31750000I50000J0D01*
G01*
X65126000Y-31750000D02*
G75*
G02*
X65026000Y-31750000I-50000J0D01*
G01*
%TO.C,U2*%
X79502000Y-32310000D02*
X139502000Y-32310000D01*
X79502000Y-59690000D02*
X79502000Y-32310000D01*
X79502000Y-62230000D02*
X79502000Y-59690000D01*
X79502000Y-66040000D02*
X79502000Y-67310000D01*
X139502000Y-32310000D02*
X139502000Y-67310000D01*
X139502000Y-67310000D02*
X79502000Y-67310000D01*
%TD*%
M02*
